<svg id="Layer_4" data-name="Layer 4" xmlns="http://www.w3.org/2000/svg" viewBox="0 0 283.46 240.94"><defs><style>.cls-1,.cls-2,.cls-3{fill:none;}.cls-1,.cls-3{stroke:#7f3f98;}.cls-2{stroke:#2e3192;stroke-linecap:round;stroke-width:2px;}.cls-3{stroke-miterlimit:10;}.cls-4{fill:#231f20;}</style></defs><title>cardHSM</title><path class="cls-1" d="M239.17,180.52a7.16,7.16,0,1,1,5,12.63m-5.58,11.73v2a1.84,1.84,0,0,0,1.84,1.84h6.64a1.84,1.84,0,0,0,1.84-1.84v-2a19.67,19.67,0,0,0,4.55-1.88l1.39,1.38a1.83,1.83,0,0,0,2.6,0l4.69-4.69a1.84,1.84,0,0,0,0-2.6h0l-1.38-1.38a19.24,19.24,0,0,0,1.88-4.55h2a1.85,1.85,0,0,0,1.84-1.84v-6.63a1.85,1.85,0,0,0-1.84-1.84h-2a19.24,19.24,0,0,0-1.88-4.55l1.38-1.39a1.84,1.84,0,0,0,0-2.6h0l-4.69-4.69a1.85,1.85,0,0,0-2.6,0L253.49,169a19.24,19.24,0,0,0-4.55-1.88v-2a1.85,1.85,0,0,0-1.84-1.83h-6.64a1.83,1.83,0,0,0-1.84,1.83v2a19.14,19.14,0,0,0-4.56,1.88l-1.39-1.39a1.83,1.83,0,0,0-2.6,0l-4.69,4.69a1.83,1.83,0,0,0,0,2.6h0l1.38,1.39a19.24,19.24,0,0,0-1.88,4.55"/><path class="cls-2" d="M234.83,179.49l-2.26-.6L221.15,182V195s0,4.87,3.54,7.86a41.81,41.81,0,0,0,7.91,4.72s0,0,0,0a39,39,0,0,0,7.88-4.7c3.54-3,3.54-7.86,3.54-7.86V182l-9.22-2.46"/><path class="cls-2" d="M226.9,192.07l3.55,4.83,9.23-8.94"/><circle class="cls-3" cx="198.07" cy="143.35" r="7.15"/><line class="cls-3" x1="203.3" y1="148.15" x2="223.34" y2="168.19"/><path class="cls-4" d="M210.05,212.79h1a1.72,1.72,0,0,1,1.86,2,1.74,1.74,0,0,1-1.84,2h-1Zm.95,3.52c.92,0,1.38-.57,1.38-1.57s-.46-1.54-1.38-1.54h-.45v3.11Z"/><path class="cls-4" d="M213.48,215.27a1.4,1.4,0,0,1,1.31-1.53c.74,0,1.16.53,1.16,1.37a1.23,1.23,0,0,1,0,.28h-2a1,1,0,0,0,1,1,1.26,1.26,0,0,0,.72-.23l.18.32a1.71,1.71,0,0,1-1,.31A1.4,1.4,0,0,1,213.48,215.27Zm2-.24c0-.58-.26-.9-.72-.9a.9.9,0,0,0-.84.9Z"/><path class="cls-4" d="M216.67,213.81h.41l0,.34h0a1.52,1.52,0,0,1,.93-.41c.75,0,1.15.58,1.15,1.48s-.59,1.58-1.26,1.58a1.36,1.36,0,0,1-.81-.34l0,.51v1h-.5Zm2,1.42c0-.65-.22-1.08-.76-1.08a1.2,1.2,0,0,0-.78.4v1.53a1.12,1.12,0,0,0,.7.3C218.36,216.38,218.71,216,218.71,215.23Z"/><path class="cls-4" d="M220,216.14v-3.69h.49v3.72c0,.16.07.22.14.22l.11,0,.06.38a.67.67,0,0,1-.28.05C220.13,216.8,220,216.56,220,216.14Z"/><path class="cls-4" d="M221.29,215.27a1.36,1.36,0,1,1,1.35,1.53A1.39,1.39,0,0,1,221.29,215.27Zm2.19,0c0-.67-.34-1.12-.84-1.12s-.84.45-.84,1.12.34,1.12.84,1.12S223.48,215.94,223.48,215.27Z"/><path class="cls-4" d="M224.44,217.92l.1-.39a.78.78,0,0,0,.22,0c.33,0,.54-.26.66-.62l.07-.22-1.17-2.92h.5l.6,1.61.28.82h0c.08-.26.16-.56.24-.82l.52-1.61H227l-1.1,3.15c-.21.58-.51,1-1.09,1A.91.91,0,0,1,224.44,217.92Z"/><path class="cls-4" d="M227.54,213.81H228l0,.42h0a1.32,1.32,0,0,1,.91-.49.77.77,0,0,1,.81.55,1.38,1.38,0,0,1,1-.55c.6,0,.88.39.88,1.14v1.84h-.49v-1.78c0-.54-.17-.77-.54-.77a1,1,0,0,0-.73.44v2.11h-.5v-1.78c0-.54-.17-.77-.54-.77a1.06,1.06,0,0,0-.73.44v2.11h-.49Z"/><path class="cls-4" d="M232.3,215.27a1.4,1.4,0,0,1,1.31-1.53c.74,0,1.16.53,1.16,1.37a2.3,2.3,0,0,1,0,.28h-2a1,1,0,0,0,1,1,1.32,1.32,0,0,0,.73-.23l.17.32a1.66,1.66,0,0,1-1,.31A1.39,1.39,0,0,1,232.3,215.27Zm2-.24c0-.58-.26-.9-.71-.9a.89.89,0,0,0-.84.9Z"/><path class="cls-4" d="M235.49,213.81h.41l0,.42h0a1.41,1.41,0,0,1,1-.49c.61,0,.89.39.89,1.14v1.84h-.49v-1.78c0-.54-.17-.77-.55-.77a1.11,1.11,0,0,0-.8.44v2.11h-.49Z"/><path class="cls-4" d="M238.86,215.82v-1.61h-.44v-.37l.46,0,.06-.82h.41v.82h.79v.4h-.79v1.62c0,.36.11.56.45.56a.93.93,0,0,0,.33-.07l.1.37a2,2,0,0,1-.54.11C239.07,216.8,238.86,216.4,238.86,215.82Z"/><path class="cls-4" d="M240.63,217.45a.8.8,0,0,0,.54-.74l0-.44.24.36a.31.31,0,0,1-.25.1.34.34,0,0,1-.36-.34.35.35,0,0,1,.37-.35c.26,0,.42.22.42.58a1.18,1.18,0,0,1-.79,1.12Z"/><path class="cls-4" d="M243.32,215.27a1.41,1.41,0,0,1,1.4-1.53,1.23,1.23,0,0,1,.85.34l-.25.33a.82.82,0,0,0-.58-.26c-.53,0-.91.45-.91,1.12s.36,1.12.9,1.12a1,1,0,0,0,.68-.29l.22.33a1.44,1.44,0,0,1-.94.37A1.37,1.37,0,0,1,243.32,215.27Z"/><path class="cls-4" d="M245.93,215.27a1.36,1.36,0,1,1,1.35,1.53A1.39,1.39,0,0,1,245.93,215.27Zm2.19,0c0-.67-.34-1.12-.84-1.12s-.84.45-.84,1.12.34,1.12.84,1.12S248.12,215.94,248.12,215.27Z"/><path class="cls-4" d="M249.4,213.81h.4l0,.42h0a1.41,1.41,0,0,1,1-.49c.61,0,.89.39.89,1.14v1.84h-.49v-1.78c0-.54-.17-.77-.55-.77a1.11,1.11,0,0,0-.8.44v2.11h-.49Z"/><path class="cls-4" d="M252.37,213.84l.41,0h1.09v.4h-1.5Zm.39-.49c0-.59.27-1,.85-1a1.22,1.22,0,0,1,.49.1l-.11.38a.8.8,0,0,0-.33-.08c-.27,0-.41.19-.41.57v3.37h-.49Z"/><path class="cls-4" d="M254.34,212.89a.34.34,0,1,1,.34.32A.32.32,0,0,1,254.34,212.89Zm.09.92h.49v2.91h-.49Z"/><path class="cls-4" d="M255.69,217.28a.8.8,0,0,1,.42-.65v0a.54.54,0,0,1-.26-.48.71.71,0,0,1,.32-.54v0a1,1,0,0,1,.72-1.82,1.16,1.16,0,0,1,.41.07h1v.38h-.6a.83.83,0,0,1,.24.6,1.06,1.06,0,0,1-1.51.91.45.45,0,0,0-.18.35c0,.18.12.31.51.31h.57c.68,0,1,.21,1,.7s-.58,1-1.48,1C256.18,218.07,255.69,217.79,255.69,217.28Zm2.19-.15c0-.27-.2-.36-.59-.36h-.5a1.76,1.76,0,0,1-.38,0,.58.58,0,0,0-.29.48c0,.32.31.52.84.52S257.88,217.44,257.88,217.13Zm-.37-2.35a.62.62,0,1,0-1.24,0,.62.62,0,1,0,1.24,0Z"/><path class="cls-4" d="M258.89,215.66v-1.85h.5v1.78c0,.55.16.78.55.78s.5-.15.78-.49v-2.07h.49v2.91h-.41l0-.45h0a1.23,1.23,0,0,1-1,.53C259.17,216.8,258.89,216.4,258.89,215.66Z"/><path class="cls-4" d="M262.2,213.81h.4l0,.53h0a1,1,0,0,1,.83-.6.59.59,0,0,1,.31.06l-.09.43a.87.87,0,0,0-.28,0c-.25,0-.55.18-.74.67v1.87h-.49Z"/><path class="cls-4" d="M264,216c0-.64.55-.95,1.79-1.09,0-.38-.12-.74-.6-.74a1.56,1.56,0,0,0-.87.32l-.19-.34a2.09,2.09,0,0,1,1.14-.38c.71,0,1,.47,1,1.2v1.78h-.41l0-.34h0a1.55,1.55,0,0,1-1,.42A.8.8,0,0,1,264,216Zm1.79,0v-.81c-1,.12-1.3.36-1.3.73a.45.45,0,0,0,.51.47A1.19,1.19,0,0,0,265.74,216Z"/><path class="cls-4" d="M267.16,215.82v-1.61h-.43v-.37l.45,0,.06-.82h.41v.82h.79v.4h-.79v1.62c0,.36.12.56.45.56a1,1,0,0,0,.34-.07l.09.37a1.92,1.92,0,0,1-.54.11C267.37,216.8,267.16,216.4,267.16,215.82Z"/><path class="cls-4" d="M269,212.89a.34.34,0,1,1,.34.32A.32.32,0,0,1,269,212.89Zm.09.92h.49v2.91h-.49Z"/><path class="cls-4" d="M270.36,215.27a1.36,1.36,0,1,1,1.35,1.53A1.39,1.39,0,0,1,270.36,215.27Zm2.19,0c0-.67-.34-1.12-.84-1.12s-.84.45-.84,1.12.34,1.12.84,1.12S272.55,215.94,272.55,215.27Z"/><path class="cls-4" d="M273.83,213.81h.41l0,.42h0a1.41,1.41,0,0,1,1-.49c.62,0,.89.39.89,1.14v1.84h-.49v-1.78c0-.54-.17-.77-.55-.77a1.11,1.11,0,0,0-.8.44v2.11h-.49Z"/><path class="cls-4" d="M276.9,217.45a.8.8,0,0,0,.54-.74l-.05-.44.24.36a.29.29,0,0,1-.25.1.34.34,0,0,1-.36-.34.35.35,0,0,1,.37-.35c.26,0,.42.22.42.58a1.18,1.18,0,0,1-.79,1.12Z"/><path class="cls-4" d="M211.14,221h.41l0,.42h0a1.3,1.3,0,0,1,.91-.49.77.77,0,0,1,.8.55,1.4,1.4,0,0,1,1-.55c.6,0,.89.39.89,1.14v1.84h-.49v-1.78c0-.54-.18-.77-.55-.77a1.06,1.06,0,0,0-.73.44v2.11h-.49v-1.78c0-.54-.17-.77-.54-.77a1.06,1.06,0,0,0-.73.44v2.11h-.5Z"/><path class="cls-4" d="M215.94,223.17c0-.64.54-.95,1.79-1.09,0-.37-.13-.74-.61-.74a1.52,1.52,0,0,0-.86.32l-.2-.34a2.12,2.12,0,0,1,1.15-.38c.71,0,1,.47,1,1.2v1.78h-.41l0-.34h0a1.53,1.53,0,0,1-1,.42A.79.79,0,0,1,215.94,223.17Zm1.79,0v-.81c-1,.12-1.31.36-1.31.73a.45.45,0,0,0,.51.47A1.23,1.23,0,0,0,217.73,223.21Z"/><path class="cls-4" d="M219.05,220.09a.34.34,0,1,1,.34.32A.32.32,0,0,1,219.05,220.09Zm.09.92h.49v2.91h-.49Z"/><path class="cls-4" d="M220.62,221h.4l0,.42h0a1.41,1.41,0,0,1,1-.49c.61,0,.89.39.89,1.14v1.84h-.49v-1.78c0-.54-.17-.77-.55-.77a1.11,1.11,0,0,0-.8.44v2.11h-.49Z"/><path class="cls-4" d="M224,223v-1.61h-.44V221l.46,0,.06-.82h.41V221h.79v.4h-.79V223c0,.36.11.56.45.56a.93.93,0,0,0,.33-.07l.1.37a2,2,0,0,1-.54.11C224.2,224,224,223.6,224,223Z"/><path class="cls-4" d="M225.63,222.47a1.4,1.4,0,0,1,1.31-1.53c.74,0,1.16.53,1.16,1.37a2.3,2.3,0,0,1,0,.28h-2a1,1,0,0,0,1,1,1.32,1.32,0,0,0,.73-.23l.18.32a1.72,1.72,0,0,1-1,.31A1.39,1.39,0,0,1,225.63,222.47Zm2-.24c0-.58-.26-.9-.71-.9a.9.9,0,0,0-.84.9Z"/><path class="cls-4" d="M228.82,221h.41l0,.42h0a1.41,1.41,0,0,1,1-.49c.62,0,.89.39.89,1.14v1.84h-.49v-1.78c0-.54-.17-.77-.55-.77a1.11,1.11,0,0,0-.8.44v2.11h-.49Z"/><path class="cls-4" d="M231.92,223.17c0-.64.55-.95,1.79-1.09,0-.37-.13-.74-.6-.74a1.56,1.56,0,0,0-.87.32l-.19-.34a2.09,2.09,0,0,1,1.14-.38c.71,0,1,.47,1,1.2v1.78h-.4l-.05-.34h0a1.56,1.56,0,0,1-1,.42A.8.8,0,0,1,231.92,223.17Zm1.79,0v-.81c-1,.12-1.31.36-1.31.73a.45.45,0,0,0,.51.47A1.19,1.19,0,0,0,233.71,223.21Z"/><path class="cls-4" d="M235.13,221h.4l0,.42h0a1.41,1.41,0,0,1,1-.49c.61,0,.89.39.89,1.14v1.84H237v-1.78c0-.54-.17-.77-.55-.77a1.11,1.11,0,0,0-.8.44v2.11h-.49Z"/><path class="cls-4" d="M238.19,222.47a1.41,1.41,0,0,1,1.4-1.53,1.26,1.26,0,0,1,.86.34l-.26.33a.82.82,0,0,0-.57-.26c-.53,0-.92.45-.92,1.12s.37,1.12.9,1.12a1.06,1.06,0,0,0,.69-.29l.21.33a1.42,1.42,0,0,1-.94.37A1.37,1.37,0,0,1,238.19,222.47Z"/><path class="cls-4" d="M240.8,222.47a1.4,1.4,0,0,1,1.31-1.53c.75,0,1.17.53,1.17,1.37a1.2,1.2,0,0,1,0,.28h-2a1,1,0,0,0,1,1,1.26,1.26,0,0,0,.72-.23l.18.32a1.71,1.71,0,0,1-1,.31A1.4,1.4,0,0,1,240.8,222.47Zm2-.24c0-.58-.26-.9-.72-.9a.9.9,0,0,0-.84.9Z"/><path class="cls-4" d="M245,223.17c0-.64.55-.95,1.79-1.09,0-.37-.12-.74-.6-.74a1.58,1.58,0,0,0-.87.32l-.19-.34a2.12,2.12,0,0,1,1.14-.38c.72,0,1,.47,1,1.2v1.78h-.41l0-.34h0a1.55,1.55,0,0,1-1,.42A.8.8,0,0,1,245,223.17Zm1.79,0v-.81c-1,.12-1.3.36-1.3.73a.45.45,0,0,0,.51.47A1.19,1.19,0,0,0,246.8,223.21Z"/><path class="cls-4" d="M248.22,221h.41l0,.42h0a1.41,1.41,0,0,1,1-.49c.62,0,.89.39.89,1.14v1.84h-.49v-1.78c0-.54-.17-.77-.55-.77a1.11,1.11,0,0,0-.8.44v2.11h-.49Z"/><path class="cls-4" d="M251.29,222.47a1.38,1.38,0,0,1,1.26-1.53,1.19,1.19,0,0,1,.82.34l0-.5v-1.13h.49v4.27h-.4l-.05-.34h0a1.29,1.29,0,0,1-.89.42C251.76,224,251.29,223.44,251.29,222.47Zm2.06.71v-1.52a1,1,0,0,0-.71-.31c-.47,0-.84.45-.84,1.12s.29,1.11.8,1.11A1,1,0,0,0,253.35,223.18Z"/><path class="cls-4" d="M255.85,223.17c0-.64.55-.95,1.79-1.09,0-.37-.13-.74-.6-.74a1.56,1.56,0,0,0-.87.32l-.19-.34a2.06,2.06,0,0,1,1.14-.38c.71,0,1,.47,1,1.2v1.78h-.4l-.05-.34h0a1.56,1.56,0,0,1-1,.42A.8.8,0,0,1,255.85,223.17Zm1.79,0v-.81c-1,.12-1.31.36-1.31.73a.45.45,0,0,0,.51.47A1.19,1.19,0,0,0,257.64,223.21Z"/><path class="cls-4" d="M258.84,222.47a1.41,1.41,0,0,1,1.4-1.53,1.23,1.23,0,0,1,.85.34l-.25.33a.82.82,0,0,0-.58-.26c-.52,0-.91.45-.91,1.12s.36,1.12.9,1.12a1,1,0,0,0,.68-.29l.22.33a1.42,1.42,0,0,1-.94.37A1.37,1.37,0,0,1,258.84,222.47Z"/><path class="cls-4" d="M261.45,222.47a1.41,1.41,0,0,1,1.4-1.53,1.23,1.23,0,0,1,.85.34l-.25.33a.82.82,0,0,0-.58-.26c-.52,0-.91.45-.91,1.12s.36,1.12.9,1.12a1,1,0,0,0,.68-.29l.22.33a1.42,1.42,0,0,1-.94.37A1.37,1.37,0,0,1,261.45,222.47Z"/><path class="cls-4" d="M264.06,222.47a1.4,1.4,0,0,1,1.31-1.53c.74,0,1.16.53,1.16,1.37a2.3,2.3,0,0,1,0,.28h-2a1,1,0,0,0,1,1,1.28,1.28,0,0,0,.72-.23l.18.32a1.72,1.72,0,0,1-1,.31A1.4,1.4,0,0,1,264.06,222.47Zm2-.24c0-.58-.27-.9-.72-.9a.9.9,0,0,0-.84.9Z"/><path class="cls-4" d="M266.93,223.59l.24-.32a1.32,1.32,0,0,0,.86.34c.38,0,.58-.2.58-.45s-.35-.43-.67-.55-.87-.35-.87-.84.37-.83,1-.83a1.48,1.48,0,0,1,.91.33l-.24.31a1.07,1.07,0,0,0-.66-.26c-.37,0-.54.2-.54.42s.32.38.65.51.89.33.89.88-.38.87-1.06.87A1.73,1.73,0,0,1,266.93,223.59Z"/><path class="cls-4" d="M269.44,223.59l.25-.32a1.32,1.32,0,0,0,.86.34c.38,0,.57-.2.57-.45s-.35-.43-.67-.55-.87-.35-.87-.84.38-.83,1-.83a1.45,1.45,0,0,1,.9.33l-.23.31a1.1,1.1,0,0,0-.67-.26c-.36,0-.53.2-.53.42s.31.38.64.51.89.33.89.88-.37.87-1.06.87A1.78,1.78,0,0,1,269.44,223.59Z"/><path class="cls-4" d="M273.39,220.09a.34.34,0,1,1,.34.32A.32.32,0,0,1,273.39,220.09Zm.09.92H274v2.91h-.49Z"/><path class="cls-4" d="M274.63,223.59l.24-.32a1.37,1.37,0,0,0,.87.34c.38,0,.57-.2.57-.45s-.35-.43-.67-.55-.87-.35-.87-.84.38-.83,1-.83a1.45,1.45,0,0,1,.9.33l-.23.31a1.1,1.1,0,0,0-.67-.26c-.36,0-.53.2-.53.42s.31.38.64.51.89.33.89.88-.37.87-1.06.87A1.76,1.76,0,0,1,274.63,223.59Z"/><path class="cls-4" d="M209.39,227.29a.32.32,0,0,1,.34-.32.32.32,0,1,1,0,.64A.32.32,0,0,1,209.39,227.29Zm.09.92h.5v2.92h-.5Z"/><path class="cls-4" d="M211,228.21h.41l0,.42h0a1.34,1.34,0,0,1,.91-.49.77.77,0,0,1,.81.55,1.38,1.38,0,0,1,1-.55c.6,0,.89.39.89,1.14v1.85h-.5v-1.79c0-.54-.17-.77-.54-.77a1,1,0,0,0-.73.44v2.12h-.49v-1.79c0-.54-.18-.77-.55-.77a1.06,1.06,0,0,0-.73.44v2.12H211Z"/><path class="cls-4" d="M215.93,228.21h.41l0,.34h0a1.52,1.52,0,0,1,.93-.41c.75,0,1.15.58,1.15,1.48s-.59,1.58-1.26,1.58a1.36,1.36,0,0,1-.81-.34l0,.51v1h-.5Zm2,1.42c0-.65-.22-1.08-.76-1.08a1.2,1.2,0,0,0-.78.4v1.53a1.12,1.12,0,0,0,.71.3C217.62,230.78,218,230.35,218,229.63Z"/><path class="cls-4" d="M219.24,230.54v-3.69h.49v3.73c0,.15.07.21.14.21l.11,0,.06.38a.67.67,0,0,1-.28,0C219.39,231.2,219.24,231,219.24,230.54Z"/><path class="cls-4" d="M220.55,229.67a1.4,1.4,0,0,1,1.31-1.53c.75,0,1.17.53,1.17,1.37a1.2,1.2,0,0,1,0,.28h-2a1,1,0,0,0,1,1,1.26,1.26,0,0,0,.72-.23l.18.32a1.69,1.69,0,0,1-1,.31A1.4,1.4,0,0,1,220.55,229.67Zm2-.24c0-.58-.26-.9-.72-.9a.89.89,0,0,0-.83.9Z"/><path class="cls-4" d="M223.74,228.21h.41l0,.42h0a1.3,1.3,0,0,1,.91-.49.77.77,0,0,1,.8.55,1.4,1.4,0,0,1,1-.55c.6,0,.89.39.89,1.14v1.85h-.49v-1.79c0-.54-.17-.77-.55-.77a1.06,1.06,0,0,0-.73.44v2.12h-.49v-1.79c0-.54-.17-.77-.54-.77a1.06,1.06,0,0,0-.73.44v2.12h-.5Z"/><path class="cls-4" d="M228.5,229.67a1.4,1.4,0,0,1,1.31-1.53c.75,0,1.17.53,1.17,1.37a1.2,1.2,0,0,1,0,.28h-2a1,1,0,0,0,1,1,1.26,1.26,0,0,0,.72-.23l.18.32a1.71,1.71,0,0,1-1,.31A1.4,1.4,0,0,1,228.5,229.67Zm2-.24c0-.58-.26-.9-.72-.9a.88.88,0,0,0-.83.9Z"/><path class="cls-4" d="M231.69,228.21h.41l0,.42h0a1.41,1.41,0,0,1,1-.49c.61,0,.89.39.89,1.14v1.85h-.5v-1.79c0-.54-.16-.77-.55-.77a1.11,1.11,0,0,0-.79.44v2.12h-.5Z"/><path class="cls-4" d="M235.06,230.22v-1.61h-.43v-.37l.45,0,.06-.82h.42v.82h.79v.4h-.79v1.62c0,.36.11.56.45.56a1,1,0,0,0,.33-.07l.09.37a1.92,1.92,0,0,1-.54.11C235.27,231.2,235.06,230.8,235.06,230.22Z"/><path class="cls-4" d="M236.7,229.67a1.4,1.4,0,0,1,1.31-1.53c.75,0,1.17.53,1.17,1.37a1.2,1.2,0,0,1,0,.28h-2a1,1,0,0,0,1,1,1.32,1.32,0,0,0,.73-.23l.17.32a1.66,1.66,0,0,1-1,.31A1.4,1.4,0,0,1,236.7,229.67Zm2-.24c0-.58-.26-.9-.72-.9a.89.89,0,0,0-.83.9Z"/><path class="cls-4" d="M239.69,229.67a1.37,1.37,0,0,1,1.26-1.53,1.21,1.21,0,0,1,.82.34l0-.5v-1.13h.49v4.28h-.41l0-.35h0a1.25,1.25,0,0,1-.88.42C240.16,231.2,239.69,230.64,239.69,229.67Zm2.06.71v-1.52a1,1,0,0,0-.72-.31c-.46,0-.83.45-.83,1.12s.29,1.11.8,1.11A1,1,0,0,0,241.75,230.38Z"/><path class="cls-4" d="M244.34,227.29a.34.34,0,1,1,.34.32A.32.32,0,0,1,244.34,227.29Zm.09.92h.49v2.92h-.49Z"/><path class="cls-4" d="M245.9,228.21h.41l0,.42h0a1.41,1.41,0,0,1,1-.49c.61,0,.89.39.89,1.14v1.85h-.5v-1.79c0-.54-.16-.77-.55-.77a1.09,1.09,0,0,0-.79.44v2.12h-.5Z"/><path class="cls-4" d="M250.2,230.37c0-.64.55-1,1.79-1.09,0-.37-.12-.74-.6-.74a1.58,1.58,0,0,0-.87.32l-.19-.34a2.12,2.12,0,0,1,1.14-.38c.72,0,1,.47,1,1.2v1.79h-.41l0-.35h0a1.55,1.55,0,0,1-1,.42A.8.8,0,0,1,250.2,230.37Zm1.79,0v-.81c-1,.12-1.3.36-1.3.73s.22.47.51.47A1.19,1.19,0,0,0,252,230.41Z"/><path class="cls-4" d="M253.19,229.67a1.41,1.41,0,0,1,1.4-1.53,1.26,1.26,0,0,1,.86.34l-.25.33a.82.82,0,0,0-.58-.26c-.53,0-.92.45-.92,1.12s.37,1.12.9,1.12a1.06,1.06,0,0,0,.69-.29l.21.33a1.42,1.42,0,0,1-.94.37A1.37,1.37,0,0,1,253.19,229.67Z"/><path class="cls-4" d="M255.8,229.67a1.41,1.41,0,0,1,1.4-1.53,1.26,1.26,0,0,1,.86.34l-.25.33a.82.82,0,0,0-.58-.26c-.53,0-.92.45-.92,1.12s.37,1.12.9,1.12a1.06,1.06,0,0,0,.69-.29l.21.33a1.42,1.42,0,0,1-.94.37A1.37,1.37,0,0,1,255.8,229.67Z"/><path class="cls-4" d="M258.41,229.67a1.36,1.36,0,1,1,1.35,1.53A1.39,1.39,0,0,1,258.41,229.67Zm2.19,0c0-.67-.34-1.12-.84-1.12s-.84.45-.84,1.12.34,1.12.84,1.12S260.6,230.34,260.6,229.67Z"/><path class="cls-4" d="M261.88,228.21h.41l0,.53h0a1,1,0,0,1,.83-.6.62.62,0,0,1,.31.06l-.1.43a.82.82,0,0,0-.28,0c-.24,0-.54.18-.74.67v1.88h-.49Z"/><path class="cls-4" d="M263.7,229.67a1.37,1.37,0,0,1,1.26-1.53,1.17,1.17,0,0,1,.81.34l0-.5v-1.13h.5v4.28h-.41l0-.35h0a1.29,1.29,0,0,1-.88.42C264.17,231.2,263.7,230.64,263.7,229.67Zm2.05.71v-1.52a1,1,0,0,0-.71-.31c-.46,0-.83.45-.83,1.12s.28,1.11.8,1.11A1,1,0,0,0,265.75,230.38Z"/><path class="cls-4" d="M267.05,230.37c0-.64.55-1,1.79-1.09,0-.37-.12-.74-.6-.74a1.58,1.58,0,0,0-.87.32l-.19-.34a2.12,2.12,0,0,1,1.14-.38c.72,0,1,.47,1,1.2v1.79h-.41l0-.35h0a1.55,1.55,0,0,1-1,.42A.8.8,0,0,1,267.05,230.37Zm1.79,0v-.81c-1,.12-1.3.36-1.3.73s.22.47.51.47A1.19,1.19,0,0,0,268.84,230.41Z"/><path class="cls-4" d="M270.26,228.21h.41l0,.42h0a1.41,1.41,0,0,1,1-.49c.62,0,.89.39.89,1.14v1.85h-.49v-1.79c0-.54-.17-.77-.55-.77a1.11,1.11,0,0,0-.8.44v2.12h-.49Z"/><path class="cls-4" d="M273.32,229.67a1.42,1.42,0,0,1,1.41-1.53,1.25,1.25,0,0,1,.85.34l-.25.33a.82.82,0,0,0-.58-.26c-.53,0-.92.45-.92,1.12s.37,1.12.91,1.12a1.05,1.05,0,0,0,.68-.29l.21.33a1.42,1.42,0,0,1-.94.37A1.38,1.38,0,0,1,273.32,229.67Z"/><path class="cls-4" d="M275.93,229.67a1.4,1.4,0,0,1,1.31-1.53c.75,0,1.17.53,1.17,1.37a1.2,1.2,0,0,1,0,.28h-2a1,1,0,0,0,1,1,1.32,1.32,0,0,0,.73-.23l.17.32a1.66,1.66,0,0,1-1,.31A1.4,1.4,0,0,1,275.93,229.67Zm2-.24c0-.58-.26-.9-.72-.9a.89.89,0,0,0-.83.9Z"/><path class="cls-4" d="M210.36,235.41h.5l.43,1.68c.07.28.12.54.18.82h0c.06-.28.13-.54.2-.82l.45-1.68h.48l.46,1.68.2.82h0c.07-.28.12-.54.18-.82l.43-1.68h.47l-.78,2.91H213l-.42-1.56c-.07-.28-.12-.55-.19-.84h0c-.06.29-.12.57-.2.85l-.41,1.55h-.57Z"/><path class="cls-4" d="M214.92,234.49a.34.34,0,1,1,.34.32A.32.32,0,0,1,214.92,234.49Zm.09.92h.5v2.91H215Z"/><path class="cls-4" d="M216.57,237.42v-1.61h-.43v-.37l.46,0,.06-.82h.41v.82h.79v.4h-.79v1.62c0,.36.11.56.45.56a.93.93,0,0,0,.33-.07l.1.37a2,2,0,0,1-.54.11C216.78,238.4,216.57,238,216.57,237.42Z"/><path class="cls-4" d="M218.52,234.05H219v1.17l0,.6a1.4,1.4,0,0,1,1-.48c.61,0,.89.39.89,1.14v1.84h-.49v-1.78c0-.54-.17-.77-.55-.77a1.11,1.11,0,0,0-.8.44v2.11h-.49Z"/><path class="cls-4" d="M223,234.39h1.12c.88,0,1.48.3,1.48,1.16s-.59,1.21-1.46,1.21h-.64v1.56H223Zm1.08,2c.69,0,1-.25,1-.81s-.35-.76-1-.76h-.56v1.57Z"/><path class="cls-4" d="M226.19,236.36a1.81,1.81,0,0,1,1.75-2,1.46,1.46,0,0,1,1.08.48l-.27.33a1.08,1.08,0,0,0-.8-.37c-.74,0-1.24.61-1.24,1.59s.47,1.61,1.22,1.61a1.17,1.17,0,0,0,.91-.45l.28.32a1.53,1.53,0,0,1-1.21.57C226.93,238.4,226.19,237.64,226.19,236.36Z"/><path class="cls-4" d="M229.85,234.39h.5v3.93h-.5Z"/><path class="cls-4" d="M232.4,237.57c0-.64.55-.95,1.79-1.09,0-.38-.13-.74-.6-.74a1.56,1.56,0,0,0-.87.32l-.19-.34a2.06,2.06,0,0,1,1.14-.38c.71,0,1,.47,1,1.2v1.78h-.4l-.05-.34h0a1.56,1.56,0,0,1-1,.42A.8.8,0,0,1,232.4,237.57Zm1.79,0v-.81c-1,.12-1.31.36-1.31.73a.45.45,0,0,0,.51.47A1.19,1.19,0,0,0,234.19,237.61Z"/><path class="cls-4" d="M235.61,235.41h.4l0,.42h0a1.41,1.41,0,0,1,1-.49c.61,0,.89.39.89,1.14v1.84h-.49v-1.78c0-.54-.17-.77-.55-.77a1.11,1.11,0,0,0-.8.44v2.11h-.49Z"/><path class="cls-4" d="M238.68,236.87a1.37,1.37,0,0,1,1.26-1.53,1.2,1.2,0,0,1,.82.33l0-.5v-1.12h.49v4.27h-.41l0-.34h0a1.25,1.25,0,0,1-.88.42C239.15,238.4,238.68,237.84,238.68,236.87Zm2.06.71v-1.52a1,1,0,0,0-.71-.31c-.47,0-.84.45-.84,1.12s.29,1.11.8,1.11A1,1,0,0,0,240.74,237.58Z"/><path class="cls-4" d="M243.87,238h0l-.05.3h-.39v-4.27h.49v1.17l0,.52a1.49,1.49,0,0,1,.92-.4c.75,0,1.16.58,1.16,1.48s-.6,1.58-1.26,1.58A1.29,1.29,0,0,1,243.87,238Zm1.59-1.19c0-.65-.22-1.08-.77-1.08a1.2,1.2,0,0,0-.78.4v1.53a1.14,1.14,0,0,0,.71.3C245.1,238,245.46,237.55,245.46,236.83Z"/><path class="cls-4" d="M246.52,236.87a1.4,1.4,0,0,1,1.31-1.53c.74,0,1.16.53,1.16,1.37a2.3,2.3,0,0,1,0,.28h-2a1,1,0,0,0,1,1,1.28,1.28,0,0,0,.72-.23l.18.32a1.72,1.72,0,0,1-1,.31A1.4,1.4,0,0,1,246.52,236.87Zm2-.24c0-.58-.27-.9-.72-.9a.9.9,0,0,0-.84.9Z"/><path class="cls-4" d="M249.39,238l.24-.32a1.32,1.32,0,0,0,.86.34c.38,0,.58-.2.58-.45s-.35-.43-.67-.55-.87-.35-.87-.84.37-.83,1-.83a1.48,1.48,0,0,1,.91.33l-.24.31a1.07,1.07,0,0,0-.66-.26c-.37,0-.54.2-.54.42s.32.38.65.51.89.32.89.88-.38.87-1.06.87A1.73,1.73,0,0,1,249.39,238Z"/><path class="cls-4" d="M252.19,237.42v-1.61h-.43v-.37l.45,0,.06-.82h.41v.82h.79v.4h-.79v1.62c0,.36.12.56.46.56a1,1,0,0,0,.33-.07l.09.37a1.92,1.92,0,0,1-.54.11C252.4,238.4,252.19,238,252.19,237.42Z"/><path class="cls-4" d="M255.33,235.41h.41l0,.34h0a1.52,1.52,0,0,1,.93-.41c.75,0,1.15.58,1.15,1.48s-.59,1.58-1.26,1.58a1.36,1.36,0,0,1-.81-.34l0,.51v1h-.5Zm2,1.42c0-.65-.21-1.08-.76-1.08a1.2,1.2,0,0,0-.78.4v1.53a1.12,1.12,0,0,0,.71.3C257,238,257.37,237.55,257.37,236.83Z"/><path class="cls-4" d="M258.66,235.41h.41l0,.53h0a1,1,0,0,1,.83-.6.59.59,0,0,1,.31.06l-.09.43a.88.88,0,0,0-.29-.05c-.24,0-.54.18-.73.67v1.87h-.5Z"/><path class="cls-4" d="M260.42,237.57c0-.64.55-.95,1.79-1.09,0-.38-.12-.74-.6-.74a1.56,1.56,0,0,0-.87.32l-.19-.34a2.09,2.09,0,0,1,1.14-.38c.71,0,1,.47,1,1.2v1.78h-.4l0-.34h0a1.55,1.55,0,0,1-1,.42A.8.8,0,0,1,260.42,237.57Zm1.79,0v-.81c-1,.12-1.31.36-1.31.73s.23.47.52.47A1.19,1.19,0,0,0,262.21,237.61Z"/><path class="cls-4" d="M263.41,236.87a1.41,1.41,0,0,1,1.4-1.53,1.21,1.21,0,0,1,.85.34l-.25.33a.82.82,0,0,0-.58-.26c-.52,0-.91.45-.91,1.12s.36,1.12.9,1.12a1.08,1.08,0,0,0,.69-.29l.21.33a1.42,1.42,0,0,1-.94.37A1.37,1.37,0,0,1,263.41,236.87Z"/><path class="cls-4" d="M266.39,237.42v-1.61H266v-.37l.46,0,.06-.82h.41v.82h.79v.4h-.79v1.62c0,.36.12.56.45.56a.88.88,0,0,0,.33-.07l.1.37a1.92,1.92,0,0,1-.54.11C266.6,238.4,266.39,238,266.39,237.42Z"/><path class="cls-4" d="M268.24,234.49a.34.34,0,1,1,.34.32A.32.32,0,0,1,268.24,234.49Zm.09.92h.49v2.91h-.49Z"/><path class="cls-4" d="M269.59,236.87a1.41,1.41,0,0,1,1.4-1.53,1.23,1.23,0,0,1,.85.34l-.25.33a.82.82,0,0,0-.58-.26c-.52,0-.91.45-.91,1.12s.36,1.12.9,1.12a1.08,1.08,0,0,0,.69-.29l.21.33a1.42,1.42,0,0,1-.94.37A1.37,1.37,0,0,1,269.59,236.87Z"/><path class="cls-4" d="M272.2,236.87a1.4,1.4,0,0,1,1.31-1.53c.74,0,1.16.53,1.16,1.37a2.3,2.3,0,0,1,0,.28h-2a1,1,0,0,0,1,1,1.26,1.26,0,0,0,.72-.23l.18.32a1.71,1.71,0,0,1-1,.31A1.4,1.4,0,0,1,272.2,236.87Zm2-.24c0-.58-.27-.9-.72-.9a.9.9,0,0,0-.84.9Z"/><path class="cls-4" d="M275.07,238l.24-.32a1.34,1.34,0,0,0,.86.34c.39,0,.58-.2.58-.45s-.35-.43-.67-.55-.87-.35-.87-.84.37-.83,1-.83a1.45,1.45,0,0,1,.91.33l-.23.31a1.12,1.12,0,0,0-.67-.26c-.37,0-.54.2-.54.42s.32.38.65.51.89.32.89.88-.38.87-1.06.87A1.73,1.73,0,0,1,275.07,238Z"/></svg>