<svg id="Layer_6" data-name="Layer 6" xmlns="http://www.w3.org/2000/svg" xmlns:xlink="http://www.w3.org/1999/xlink" viewBox="0 0 566.93 354.33"><defs><style>.cls-1,.cls-10,.cls-11,.cls-12,.cls-13,.cls-2,.cls-4,.cls-5,.cls-6,.cls-7,.cls-8{fill:none;}.cls-12,.cls-13,.cls-2,.cls-4,.cls-5,.cls-6,.cls-7,.cls-8{stroke:#7f3f98;}.cls-10,.cls-11,.cls-13,.cls-2,.cls-4,.cls-5,.cls-6,.cls-7,.cls-8{stroke-linecap:round;}.cls-10,.cls-11,.cls-12,.cls-13,.cls-2{stroke-miterlimit:10;}.cls-10,.cls-11,.cls-2,.cls-4,.cls-5,.cls-6,.cls-7,.cls-8{stroke-width:2px;}.cls-3{clip-path:url(#clip-path);}.cls-4,.cls-5,.cls-6,.cls-7,.cls-8{stroke-linejoin:round;}.cls-4{stroke-dasharray:80 30 70;}.cls-5{stroke-dasharray:60 30 20 0 0 0;}.cls-6{stroke-dasharray:37 20 10 0 0 0;}.cls-7{stroke-dasharray:20 10 20 0 0 0;}.cls-9{clip-path:url(#clip-path-2);}.cls-10,.cls-11{stroke:#2e3192;}.cls-10{stroke-dasharray:8 10 8;}.cls-12,.cls-13{stroke-width:3px;}.cls-14{fill:#231f20;}</style><clipPath id="clip-path"><rect class="cls-1" x="465.06" y="205.27" width="43.93" height="33.39"/></clipPath><clipPath id="clip-path-2"><rect class="cls-1" x="465.06" y="238.66" width="42.61" height="18.08"/></clipPath></defs><title>card</title><path class="cls-2" d="M472.69,204.73H458.45a1.39,1.39,0,0,0-1.39,1.39v14.49"/><path class="cls-2" d="M501.51,204.73h14.25a1.38,1.38,0,0,1,1.38,1.39v14.49"/><path class="cls-2" d="M501.51,261.42h14.25a1.38,1.38,0,0,0,1.38-1.38v-14.5"/><path class="cls-2" d="M472.69,261.42H458.45a1.38,1.38,0,0,1-1.39-1.38v-14.5"/><g class="cls-3"><path class="cls-4" d="M498,254.16a17.51,17.51,0,0,0,5.76-13V225.92a17.54,17.54,0,0,0-17.54-17.54h0a17.54,17.54,0,0,0-17.54,17.54v15.25a17.48,17.48,0,0,0,4.42,11.63"/><path class="cls-5" d="M492.41,252.39a13.14,13.14,0,0,0,6.94-11.59V226.29a13.14,13.14,0,0,0-13.14-13.15h0a13.14,13.14,0,0,0-13.14,13.14h0V240.8A13.14,13.14,0,0,0,480,252.39"/><path class="cls-6" d="M490.77,247.93a7.58,7.58,0,0,0,4.41-6.69v-15.4c0-4.23-3.87-7.66-8.64-7.66h0c-4.78,0-8.64,3.43-8.64,7.66v15.4a7.37,7.37,0,0,0,3.36,6.07"/><path class="cls-7" d="M488.77,244.15a5.14,5.14,0,0,0,2-4.3V227.23c0-1.81-2.32-3.91-4.56-3.91s-4.56,2.1-4.56,3.91v12.62a5.46,5.46,0,0,0,1.43,4"/><line class="cls-8" x1="486.21" y1="229.68" x2="486.21" y2="238.66"/></g><g class="cls-9"><path class="cls-10" d="M498,254.4a17.53,17.53,0,0,0,5.76-13V226.15a17.55,17.55,0,0,0-17.54-17.54h0a17.54,17.54,0,0,0-17.54,17.54v15.26A17.52,17.52,0,0,0,473.09,253"/><path class="cls-10" d="M492.41,252.63A13.15,13.15,0,0,0,499.35,241V226.52a13.14,13.14,0,0,0-13.14-13.14h0a13.14,13.14,0,0,0-13.14,13.14h0V241A13.16,13.16,0,0,0,480,252.63"/><path class="cls-10" d="M490.77,248.16a7.56,7.56,0,0,0,4.41-6.68v-15.4c0-4.24-3.87-7.67-8.64-7.67h0c-4.78,0-8.64,3.43-8.64,7.67v15.4a7.37,7.37,0,0,0,3.36,6.07"/><path class="cls-10" d="M488.77,244.38a5.12,5.12,0,0,0,2-4.29V227.47c0-1.81-2.32-3.92-4.56-3.92s-4.56,2.11-4.56,3.92v12.62a5.44,5.44,0,0,0,1.43,4"/><line class="cls-11" x1="486.21" y1="229.68" x2="486.21" y2="238.66"/></g><line class="cls-11" x1="457.06" y1="237.96" x2="517.14" y2="237.96"/><circle class="cls-12" cx="377.04" cy="122.44" r="32.6"/><line class="cls-13" x1="399.8" y1="145.78" x2="449.91" y2="195.88"/><path class="cls-14" d="M441.84,271.2h2c1.33,0,2.26.45,2.26,1.61a1.44,1.44,0,0,1-1,1.42v0a1.51,1.51,0,0,1,1.33,1.57c0,1.29-1,1.92-2.48,1.92h-2.1Zm1.81,2.79c1.11,0,1.58-.41,1.58-1.08s-.53-1.05-1.54-1.05h-1V274Zm.17,3.11c1.12,0,1.78-.41,1.78-1.29s-.63-1.18-1.78-1.18h-1.14v2.47Z"/><path class="cls-14" d="M447.49,271.37a.57.57,0,0,1,1.14,0,.57.57,0,0,1-1.14,0Zm.16,1.53h.82v4.86h-.82Z"/><path class="cls-14" d="M449.74,275.34a2.27,2.27,0,1,1,2.26,2.54A2.33,2.33,0,0,1,449.74,275.34Zm3.66,0c0-1.12-.57-1.88-1.4-1.88s-1.41.76-1.41,1.88.57,1.85,1.41,1.85S453.4,276.45,453.4,275.34Z"/><path class="cls-14" d="M455.53,272.9h.67l.07.7h0a2.21,2.21,0,0,1,1.51-.82,1.28,1.28,0,0,1,1.34.93,2.31,2.31,0,0,1,1.61-.93c1,0,1.48.66,1.48,1.9v3.08h-.83v-3c0-.91-.28-1.3-.9-1.3a1.78,1.78,0,0,0-1.22.75v3.52h-.82v-3c0-.91-.29-1.3-.9-1.3a1.8,1.8,0,0,0-1.22.75v3.52h-.82Z"/><path class="cls-14" d="M463.45,275.34a2.34,2.34,0,0,1,2.19-2.56c1.24,0,1.94.89,1.94,2.28a3.06,3.06,0,0,1,0,.47h-3.27a1.61,1.61,0,0,0,1.61,1.69,2.17,2.17,0,0,0,1.21-.38l.29.53a2.82,2.82,0,0,1-1.6.51A2.33,2.33,0,0,1,463.45,275.34Zm3.4-.4c0-1-.44-1.5-1.2-1.5a1.48,1.48,0,0,0-1.39,1.5Z"/><path class="cls-14" d="M468.82,276.26v-2.69h-.72V273l.76-.05.1-1.36h.68v1.36H471v.67h-1.32v2.7c0,.59.19.94.75.94a1.76,1.76,0,0,0,.56-.13l.16.62a3.07,3.07,0,0,1-.91.18C469.17,277.88,468.82,277.22,468.82,276.26Z"/><path class="cls-14" d="M472.06,272.9h.68l.06.88h0a1.69,1.69,0,0,1,1.38-1,1.15,1.15,0,0,1,.52.1l-.15.72a1.45,1.45,0,0,0-.47-.08c-.41,0-.9.3-1.23,1.12v3.12h-.82Z"/><path class="cls-14" d="M475.37,271.37a.57.57,0,0,1,1.14,0,.57.57,0,0,1-1.14,0Zm.16,1.53h.82v4.86h-.82Z"/><path class="cls-14" d="M477.62,275.34a2.36,2.36,0,0,1,2.34-2.56,2,2,0,0,1,1.42.57l-.42.54a1.42,1.42,0,0,0-1-.43c-.88,0-1.53.76-1.53,1.88s.61,1.85,1.51,1.85a1.76,1.76,0,0,0,1.14-.48l.35.55a2.33,2.33,0,0,1-1.57.62A2.29,2.29,0,0,1,477.62,275.34Z"/><path class="cls-14" d="M484.62,271.2h3.78v.7h-2.94V274h2.48v.71h-2.48v2.38h3v.71h-3.88Z"/><path class="cls-14" d="M489.81,272.9h.68l.07.7h0a2.33,2.33,0,0,1,1.63-.82c1,0,1.48.66,1.48,1.9v3.08h-.82v-3c0-.91-.27-1.3-.92-1.3a1.84,1.84,0,0,0-1.32.75v3.52h-.83Z"/><path class="cls-14" d="M495.28,272.9H496l.07.88h0a1.69,1.69,0,0,1,1.38-1,1.15,1.15,0,0,1,.52.1l-.15.72a1.45,1.45,0,0,0-.47-.08c-.42,0-.91.3-1.23,1.12v3.12h-.83Z"/><path class="cls-14" d="M498.29,275.34a2.27,2.27,0,1,1,2.25,2.54A2.32,2.32,0,0,1,498.29,275.34Zm3.65,0c0-1.12-.56-1.88-1.4-1.88s-1.4.76-1.4,1.88.57,1.85,1.4,1.85S501.94,276.45,501.94,275.34Z"/><path class="cls-14" d="M504,276.78v-6.14h.83v6.2c0,.25.1.35.22.35l.18,0,.12.63a1.39,1.39,0,0,1-.48.08C504.29,277.88,504,277.49,504,276.78Z"/><path class="cls-14" d="M506.58,276.78v-6.14h.82v6.2c0,.25.11.35.23.35l.18,0,.12.63a1.39,1.39,0,0,1-.48.08C506.84,277.88,506.58,277.49,506.58,276.78Z"/><path class="cls-14" d="M509.13,272.9h.68l.07.7h0a2.17,2.17,0,0,1,1.51-.82,1.29,1.29,0,0,1,1.34.93,2.3,2.3,0,0,1,1.6-.93c1,0,1.48.66,1.48,1.9v3.08H515v-3c0-.91-.29-1.3-.9-1.3a1.78,1.78,0,0,0-1.22.75v3.52h-.82v-3c0-.91-.29-1.3-.91-1.3a1.82,1.82,0,0,0-1.22.75v3.52h-.82Z"/><path class="cls-14" d="M517.06,275.34a2.34,2.34,0,0,1,2.19-2.56c1.24,0,1.93.89,1.93,2.28a3.18,3.18,0,0,1,0,.47h-3.28a1.61,1.61,0,0,0,1.62,1.69,2.2,2.2,0,0,0,1.21-.38l.29.53a2.82,2.82,0,0,1-1.6.51A2.32,2.32,0,0,1,517.06,275.34Zm3.4-.4c0-1-.44-1.5-1.2-1.5a1.48,1.48,0,0,0-1.39,1.5Z"/><path class="cls-14" d="M522.38,272.9h.68l.07.7h0a2.33,2.33,0,0,1,1.63-.82c1,0,1.48.66,1.48,1.9v3.08h-.82v-3c0-.91-.27-1.3-.92-1.3a1.88,1.88,0,0,0-1.33.75v3.52h-.82Z"/><path class="cls-14" d="M528,276.26v-2.69h-.73V273l.76-.05.1-1.36h.69v1.36h1.32v.67h-1.32v2.7c0,.59.19.94.75.94a1.7,1.7,0,0,0,.55-.13l.16.62a3,3,0,0,1-.9.18C528.35,277.88,528,277.22,528,276.26Z"/><path class="cls-14" d="M446.17,288.5c0-1.06.91-1.59,3-1.82,0-.62-.21-1.22-1-1.22a2.64,2.64,0,0,0-1.45.52l-.32-.57a3.61,3.61,0,0,1,1.91-.63c1.18,0,1.68.79,1.68,2v3h-.67l-.07-.58h0a2.62,2.62,0,0,1-1.61.7A1.32,1.32,0,0,1,446.17,288.5Zm3,.07v-1.35c-1.63.2-2.18.6-2.18,1.22s.38.78.86.78A2,2,0,0,0,449.15,288.57Z"/><path class="cls-14" d="M451.51,284.9h.68l.07.7h0a2.33,2.33,0,0,1,1.63-.82c1,0,1.48.66,1.48,1.9v3.08h-.82v-3c0-.91-.28-1.3-.92-1.3s-.84.26-1.33.75v3.52h-.82Z"/><path class="cls-14" d="M456.63,287.34a2.3,2.3,0,0,1,2.11-2.56,2,2,0,0,1,1.36.56l0-.83v-1.87h.82v7.12h-.68l-.06-.57h0a2.2,2.2,0,0,1-1.48.69C457.42,289.88,456.63,289,456.63,287.34Zm3.43,1.18V286a1.71,1.71,0,0,0-1.18-.51c-.78,0-1.4.75-1.4,1.86s.48,1.86,1.34,1.86A1.66,1.66,0,0,0,460.06,288.52Z"/><path class="cls-14" d="M466,283.2h.95l2.22,6.56h-.89l-1.14-3.67c-.24-.73-.45-1.45-.66-2.21h0c-.2.77-.41,1.48-.65,2.21l-1.15,3.67h-.85Zm-1.05,3.89h3v.67h-3Z"/><path class="cls-14" d="M469.84,288V284.9h.83v3c0,.91.27,1.29.91,1.29s.84-.24,1.3-.81V284.9h.83v4.86H473L473,289h0a2.07,2.07,0,0,1-1.6.88C470.3,289.88,469.84,289.22,469.84,288Z"/><path class="cls-14" d="M475.49,288.26v-2.69h-.72V285l.76-.05.1-1.36h.69v1.36h1.31v.67h-1.31v2.7c0,.59.19.94.75.94a1.77,1.77,0,0,0,.55-.13l.16.62a3,3,0,0,1-.9.18C475.84,289.88,475.49,289.22,475.49,288.26Z"/><path class="cls-14" d="M478.73,282.64h.82v1.95l0,1a2.34,2.34,0,0,1,1.61-.8c1,0,1.49.66,1.49,1.9v3.08h-.82v-3c0-.91-.28-1.3-.92-1.3s-.84.26-1.33.75v3.52h-.82Z"/><path class="cls-14" d="M483.81,287.34a2.34,2.34,0,0,1,2.18-2.56c1.24,0,1.94.89,1.94,2.28a3.06,3.06,0,0,1,0,.47h-3.27a1.61,1.61,0,0,0,1.61,1.69,2.17,2.17,0,0,0,1.21-.38l.3.53a2.88,2.88,0,0,1-1.61.51A2.32,2.32,0,0,1,483.81,287.34Zm3.39-.4c0-1-.43-1.5-1.19-1.5a1.48,1.48,0,0,0-1.4,1.5Z"/><path class="cls-14" d="M489.13,284.9h.68l.07.7h0a2.37,2.37,0,0,1,1.63-.82c1,0,1.49.66,1.49,1.9v3.08h-.83v-3c0-.91-.27-1.3-.91-1.3s-.84.26-1.33.75v3.52h-.82Z"/><path class="cls-14" d="M494.74,288.26v-2.69H494V285l.76-.05.1-1.36h.68v1.36h1.32v.67h-1.32v2.7c0,.59.2.94.76.94a1.77,1.77,0,0,0,.55-.13l.16.62a3.06,3.06,0,0,1-.9.18C495.09,289.88,494.74,289.22,494.74,288.26Z"/><path class="cls-14" d="M497.83,283.37a.57.57,0,0,1,1.13,0,.57.57,0,0,1-1.13,0Zm.15,1.53h.82v4.86H498Z"/><path class="cls-14" d="M500.08,287.34a2.35,2.35,0,0,1,2.33-2.56,2.06,2.06,0,0,1,1.43.57l-.43.54a1.42,1.42,0,0,0-1-.43c-.88,0-1.52.76-1.52,1.88s.61,1.85,1.5,1.85a1.74,1.74,0,0,0,1.14-.48l.36.55a2.37,2.37,0,0,1-1.57.62A2.28,2.28,0,0,1,500.08,287.34Z"/><path class="cls-14" d="M504.6,288.5c0-1.06.91-1.59,3-1.82,0-.62-.21-1.22-1-1.22a2.61,2.61,0,0,0-1.45.52l-.32-.57a3.54,3.54,0,0,1,1.9-.63c1.19,0,1.69.79,1.69,2v3h-.68l-.07-.58h0a2.64,2.64,0,0,1-1.61.7A1.32,1.32,0,0,1,504.6,288.5Zm3,.07v-1.35c-1.63.2-2.18.6-2.18,1.22a.75.75,0,0,0,.85.78A2,2,0,0,0,507.58,288.57Z"/><path class="cls-14" d="M509.94,288.26v-2.69h-.72V285l.76-.05.1-1.36h.68v1.36h1.32v.67h-1.32v2.7c0,.59.19.94.75.94a1.76,1.76,0,0,0,.56-.13l.16.62a3.07,3.07,0,0,1-.91.18C510.29,289.88,509.94,289.22,509.94,288.26Z"/><path class="cls-14" d="M513,283.37a.52.52,0,0,1,.56-.53.53.53,0,0,1,.57.53.54.54,0,0,1-.57.53A.53.53,0,0,1,513,283.37Zm.15,1.53H514v4.86h-.82Z"/><path class="cls-14" d="M515.28,287.34a2.27,2.27,0,1,1,2.25,2.54A2.32,2.32,0,0,1,515.28,287.34Zm3.65,0c0-1.12-.57-1.88-1.4-1.88s-1.4.76-1.4,1.88.56,1.85,1.4,1.85S518.93,288.45,518.93,287.34Z"/><path class="cls-14" d="M521.06,284.9h.68l.07.7h0a2.37,2.37,0,0,1,1.63-.82c1,0,1.49.66,1.49,1.9v3.08h-.83v-3c0-.91-.27-1.3-.91-1.3s-.84.26-1.33.75v3.52h-.82Z"/></svg>