<svg id="Layer_8" data-name="Layer 8" xmlns="http://www.w3.org/2000/svg" viewBox="0 0 566.93 354.33"><defs><style>.cls-1,.cls-2{fill:none;stroke-linecap:round;stroke-width:3px;}.cls-1{stroke:#7f3f98;}.cls-2{stroke:#2e3192;}.cls-3{fill:#231f20;}</style></defs><title>card</title><path class="cls-1" d="M105.53,66.2a37.39,37.39,0,0,1,0-52.5"/><path class="cls-1" d="M115.78,60.94a29.9,29.9,0,0,1,0-42"/><path class="cls-1" d="M125.55,53.26a18.94,18.94,0,0,1,0-26.61"/><circle class="cls-2" cx="135.51" cy="40.41" r="4.19"/><path class="cls-2" d="M165.62,61.58a5.07,5.07,0,1,1-10.13,0h0a5.11,5.11,0,0,1,5.07-5.12h0a5.09,5.09,0,0,1,5.06,5.12Z"/><path class="cls-2" d="M156,32.43a3.76,3.76,0,0,1-3.74,3.78h0a3.75,3.75,0,0,1-3.74-3.77h0a3.76,3.76,0,0,1,3.74-3.78h0A3.75,3.75,0,0,1,156,32.43Z"/><path class="cls-2" d="M165.34,30.65H172V23.93h-6.65Z"/><path class="cls-2" d="M154,19.12,160.36,10l6.39,9.12Z"/><path class="cls-1" d="M161.2,44.6l7.46-5.88V30.65"/><path class="cls-1" d="M160.64,51l-8.42-6.63V36.21"/><path class="cls-1" d="M160.64,19.39V56.46"/><circle class="cls-1" cx="198.4" cy="144.53" r="14.17"/><line class="cls-1" x1="188.73" y1="133.9" x2="156.66" y2="101.83"/><path class="cls-3" d="M93.64,74.82h1l1.26,3.5c.16.45.31.92.46,1.37h0c.16-.45.3-.92.46-1.37l1.24-3.5h1v6.56h-.78V77.77c0-.57.07-1.36.11-1.94h0l-.52,1.49-1.24,3.4h-.55l-1.24-3.4-.52-1.49h0c0,.58.1,1.37.1,1.94v3.61h-.75Z"/><path class="cls-3" d="M100.76,79.6V76.52h.83v3c0,.91.27,1.3.91,1.3s.84-.25,1.3-.82V76.52h.83v4.86H104l-.07-.76h0a2.07,2.07,0,0,1-1.6.88C101.22,81.5,100.76,80.84,100.76,79.6Z"/><path class="cls-3" d="M106.27,80.4V74.26h.82v6.2c0,.25.11.35.23.35h.18l.11.62a1.38,1.38,0,0,1-.47.08C106.52,81.5,106.27,81.11,106.27,80.4Z"/><path class="cls-3" d="M109,79.88V77.19h-.72v-.62l.76,0,.1-1.36h.68v1.36h1.32v.67h-1.32v2.7c0,.6.2.94.76.94a1.77,1.77,0,0,0,.55-.13l.16.62a3,3,0,0,1-.9.18C109.31,81.5,109,80.84,109,79.88Z"/><path class="cls-3" d="M112.05,75a.53.53,0,0,1,.57-.53.52.52,0,0,1,.56.53.53.53,0,0,1-.56.53A.54.54,0,0,1,112.05,75Zm.15,1.53H113v4.86h-.82Z"/><path class="cls-3" d="M114.66,76.52h.68l.07.56h0A2.6,2.6,0,0,1,117,76.4c1.26,0,1.93,1,1.93,2.48,0,1.65-1,2.62-2.1,2.62a2.23,2.23,0,0,1-1.35-.56l0,.84v1.65h-.82Zm3.4,2.36c0-1.07-.37-1.79-1.28-1.79a2,2,0,0,0-1.3.67V80.3a1.9,1.9,0,0,0,1.18.51C117.47,80.81,118.06,80.08,118.06,78.88Z"/><path class="cls-3" d="M120.17,80.4V74.26H121v6.2c0,.25.11.35.23.35h.18l.11.62a1.38,1.38,0,0,1-.47.08C120.42,81.5,120.17,81.11,120.17,80.4Z"/><path class="cls-3" d="M122.36,79a2.34,2.34,0,0,1,2.18-2.56c1.24,0,1.94.89,1.94,2.28a3.06,3.06,0,0,1,0,.47h-3.27a1.61,1.61,0,0,0,1.61,1.69,2.17,2.17,0,0,0,1.21-.38l.3.54a3,3,0,0,1-1.61.5A2.32,2.32,0,0,1,122.36,79Zm3.39-.4c0-1-.43-1.5-1.19-1.5a1.48,1.48,0,0,0-1.4,1.5Z"/><path class="cls-3" d="M129.75,74.82h.84v6.56h-.84Z"/><path class="cls-3" d="M132.31,76.52H133l.07.7h0a2.37,2.37,0,0,1,1.63-.82c1,0,1.49.66,1.49,1.9v3.08h-.83v-3c0-.91-.27-1.3-.91-1.3s-.84.26-1.33.75v3.52h-.82Z"/><path class="cls-3" d="M137.92,79.88V77.19h-.72v-.62l.76,0,.1-1.36h.68v1.36h1.32v.67h-1.32v2.7c0,.6.2.94.75.94a1.76,1.76,0,0,0,.56-.13l.16.62a3.06,3.06,0,0,1-.9.18C138.27,81.5,137.92,80.84,137.92,79.88Z"/><path class="cls-3" d="M140.66,79a2.34,2.34,0,0,1,2.18-2.56c1.24,0,1.94.89,1.94,2.28a3.06,3.06,0,0,1,0,.47h-3.27a1.61,1.61,0,0,0,1.61,1.69,2.17,2.17,0,0,0,1.21-.38l.3.54a3,3,0,0,1-1.61.5A2.32,2.32,0,0,1,140.66,79Zm3.39-.4c0-1-.44-1.5-1.19-1.5a1.48,1.48,0,0,0-1.4,1.5Z"/><path class="cls-3" d="M146,76.52h.68l.07.89h0a1.68,1.68,0,0,1,1.38-1,1.15,1.15,0,0,1,.52.1l-.15.72a1.45,1.45,0,0,0-.47-.08c-.41,0-.9.3-1.23,1.12v3.12H146Z"/><path class="cls-3" d="M148.92,76.57l.7,0h1.81v.67h-2.51Zm.66-.82c0-1,.45-1.61,1.43-1.61a2,2,0,0,1,.8.17l-.17.62a1.44,1.44,0,0,0-.55-.12c-.46,0-.69.32-.69,1v5.62h-.82Z"/><path class="cls-3" d="M151.87,80.12c0-1.06.91-1.59,3-1.82,0-.62-.21-1.22-1-1.22a2.61,2.61,0,0,0-1.45.52l-.32-.56A3.47,3.47,0,0,1,154,76.4c1.18,0,1.68.79,1.68,2v3H155l-.07-.58h0a2.64,2.64,0,0,1-1.61.7A1.32,1.32,0,0,1,151.87,80.12Zm3,.07V78.84c-1.63.2-2.18.6-2.18,1.22a.75.75,0,0,0,.85.78A2,2,0,0,0,154.85,80.19Z"/><path class="cls-3" d="M156.85,79a2.36,2.36,0,0,1,2.33-2.56,2.06,2.06,0,0,1,1.43.57l-.43.54a1.41,1.41,0,0,0-1-.42c-.88,0-1.52.75-1.52,1.87s.61,1.85,1.5,1.85a1.74,1.74,0,0,0,1.14-.48l.35.55a2.33,2.33,0,0,1-1.57.62A2.28,2.28,0,0,1,156.85,79Z"/><path class="cls-3" d="M161.2,79a2.34,2.34,0,0,1,2.18-2.56c1.24,0,1.94.89,1.94,2.28a3.06,3.06,0,0,1,0,.47H162a1.61,1.61,0,0,0,1.61,1.69,2.17,2.17,0,0,0,1.21-.38l.3.54a3,3,0,0,1-1.61.5A2.32,2.32,0,0,1,161.2,79Zm3.39-.4c0-1-.44-1.5-1.2-1.5a1.48,1.48,0,0,0-1.39,1.5Z"/><path class="cls-3" d="M166,80.82l.4-.54a2.21,2.21,0,0,0,1.44.58c.64,0,1-.34,1-.76s-.57-.72-1.11-.92-1.45-.58-1.45-1.4.63-1.38,1.68-1.38a2.47,2.47,0,0,1,1.51.55l-.39.52A1.89,1.89,0,0,0,167.9,77c-.61,0-.9.33-.9.7s.53.64,1.08.84,1.48.55,1.48,1.47-.62,1.45-1.77,1.45A2.85,2.85,0,0,1,166,80.82Z"/><path class="cls-3" d="M76,90.1c0-2.11,1.25-3.4,2.91-3.4a2.47,2.47,0,0,1,1.81.81l-.46.54a1.79,1.79,0,0,0-1.33-.62c-1.24,0-2.07,1-2.07,2.65s.79,2.68,2,2.68A2,2,0,0,0,80.36,92l.46.52a2.54,2.54,0,0,1-2,1C77.18,93.5,76,92.24,76,90.1Z"/><path class="cls-3" d="M81.6,91a2.27,2.27,0,1,1,2.26,2.54A2.33,2.33,0,0,1,81.6,91Zm3.66,0c0-1.12-.57-1.87-1.4-1.87s-1.41.75-1.41,1.87.57,1.85,1.41,1.85S85.26,92.07,85.26,91Z"/><path class="cls-3" d="M87.38,88.52h.68l.07.7h0a2.33,2.33,0,0,1,1.63-.82c1,0,1.48.66,1.48,1.9v3.08h-.82v-3c0-.91-.27-1.3-.92-1.3a1.84,1.84,0,0,0-1.32.75v3.52h-.83Z"/><path class="cls-3" d="M93,91.88V89.19h-.72v-.62l.76,0,.09-1.36h.69v1.36h1.32v.67H93.82v2.7c0,.6.19.94.75.94a1.83,1.83,0,0,0,.56-.13l.15.62a2.94,2.94,0,0,1-.9.18C93.35,93.5,93,92.84,93,91.88Z"/><path class="cls-3" d="M95.72,92.12c0-1.06.92-1.59,3-1.82,0-.62-.21-1.22-1-1.22a2.61,2.61,0,0,0-1.44.52L95.93,89a3.53,3.53,0,0,1,1.91-.64c1.19,0,1.69.79,1.69,2v3h-.68l-.07-.58h0a2.59,2.59,0,0,1-1.6.7A1.33,1.33,0,0,1,95.72,92.12Zm3,.07V90.84c-1.63.2-2.18.6-2.18,1.22a.74.74,0,0,0,.85.78A2,2,0,0,0,98.71,92.19Z"/><path class="cls-3" d="M100.7,91A2.36,2.36,0,0,1,103,88.4a2,2,0,0,1,1.42.57l-.42.54a1.41,1.41,0,0,0-1-.42c-.88,0-1.53.75-1.53,1.87s.61,1.85,1.51,1.85a1.76,1.76,0,0,0,1.14-.48l.35.55a2.33,2.33,0,0,1-1.57.62A2.29,2.29,0,0,1,100.7,91Z"/><path class="cls-3" d="M105.67,91.88V89.19H105v-.62l.76,0,.09-1.36h.69v1.36h1.32v.67h-1.32v2.7c0,.6.19.94.75.94a1.83,1.83,0,0,0,.56-.13l.15.62a2.94,2.94,0,0,1-.9.18C106,93.5,105.67,92.84,105.67,91.88Z"/><path class="cls-3" d="M112.86,86.28h.59L110.78,95h-.59Z"/><path class="cls-3" d="M116.1,90.1c0-2.11,1.25-3.4,2.91-3.4a2.47,2.47,0,0,1,1.81.81l-.46.54a1.79,1.79,0,0,0-1.33-.62c-1.24,0-2.07,1-2.07,2.65s.79,2.68,2,2.68a2,2,0,0,0,1.52-.73l.46.52a2.54,2.54,0,0,1-2,1C117.32,93.5,116.1,92.24,116.1,90.1Z"/><path class="cls-3" d="M121.75,91A2.27,2.27,0,1,1,124,93.5,2.33,2.33,0,0,1,121.75,91Zm3.66,0c0-1.12-.57-1.87-1.41-1.87s-1.4.75-1.4,1.87.57,1.85,1.4,1.85S125.41,92.07,125.41,91Z"/><path class="cls-3" d="M127.53,88.52h.68l.07.7h0a2.33,2.33,0,0,1,1.63-.82c1,0,1.48.66,1.48,1.9v3.08h-.82v-3c0-.91-.27-1.3-.92-1.3a1.84,1.84,0,0,0-1.32.75v3.52h-.83Z"/><path class="cls-3" d="M133.15,91.88V89.19h-.72v-.62l.76,0,.09-1.36H134v1.36h1.32v.67H134v2.7c0,.6.19.94.75.94a1.83,1.83,0,0,0,.56-.13l.15.62a2.94,2.94,0,0,1-.9.18C133.5,93.5,133.15,92.84,133.15,91.88Z"/><path class="cls-3" d="M135.87,92.12c0-1.06.92-1.59,3-1.82,0-.62-.21-1.22-1-1.22a2.67,2.67,0,0,0-1.45.52l-.32-.56A3.53,3.53,0,0,1,138,88.4c1.19,0,1.69.79,1.69,2v3H139l-.07-.58h0a2.59,2.59,0,0,1-1.6.7A1.33,1.33,0,0,1,135.87,92.12Zm3,.07V90.84c-1.63.2-2.18.6-2.18,1.22a.74.74,0,0,0,.85.78A2,2,0,0,0,138.86,92.19Z"/><path class="cls-3" d="M140.85,91a2.36,2.36,0,0,1,2.34-2.56,2,2,0,0,1,1.42.57l-.42.54a1.41,1.41,0,0,0-1-.42c-.88,0-1.53.75-1.53,1.87s.61,1.85,1.5,1.85a1.76,1.76,0,0,0,1.15-.48l.35.55a2.35,2.35,0,0,1-1.57.62A2.29,2.29,0,0,1,140.85,91Z"/><path class="cls-3" d="M145.82,91.88V89.19h-.73v-.62l.76,0,.1-1.36h.69v1.36H148v.67h-1.32v2.7c0,.6.19.94.75.94a1.7,1.7,0,0,0,.55-.13l.16.62a3,3,0,0,1-.9.18C146.17,93.5,145.82,92.84,145.82,91.88Z"/><path class="cls-3" d="M149.05,92.4V86.26h.82v6.2c0,.25.11.35.23.35h.18l.12.62a1.39,1.39,0,0,1-.48.08C149.31,93.5,149.05,93.11,149.05,92.4Z"/><path class="cls-3" d="M151.24,91a2.35,2.35,0,0,1,2.19-2.56c1.23,0,1.93.89,1.93,2.28a3.18,3.18,0,0,1,0,.47h-3.28a1.61,1.61,0,0,0,1.62,1.69,2.2,2.2,0,0,0,1.21-.38l.29.54a2.89,2.89,0,0,1-1.6.5A2.32,2.32,0,0,1,151.24,91Zm3.4-.4c0-1-.44-1.5-1.2-1.5a1.48,1.48,0,0,0-1.39,1.5Z"/><path class="cls-3" d="M156,92.82l.41-.54a2.19,2.19,0,0,0,1.43.58c.64,0,1-.34,1-.76s-.58-.72-1.11-.92c-.68-.25-1.45-.58-1.45-1.4s.62-1.38,1.67-1.38a2.43,2.43,0,0,1,1.51.55l-.39.52a1.87,1.87,0,0,0-1.11-.43c-.61,0-.89.33-.89.7s.53.64,1.08.84c.7.26,1.48.55,1.48,1.47s-.63,1.45-1.77,1.45A2.9,2.9,0,0,1,156,92.82Z"/><path class="cls-3" d="M160.21,92.82l.41-.54a2.19,2.19,0,0,0,1.43.58c.64,0,1-.34,1-.76s-.58-.72-1.11-.92c-.68-.25-1.45-.58-1.45-1.4s.62-1.38,1.67-1.38a2.43,2.43,0,0,1,1.51.55l-.39.52a1.87,1.87,0,0,0-1.11-.43c-.61,0-.89.33-.89.7s.53.64,1.08.84c.7.26,1.48.55,1.48,1.47s-.63,1.45-1.77,1.45A2.9,2.9,0,0,1,160.21,92.82Z"/><path class="cls-3" d="M168.89,86.28h.6L166.82,95h-.6Z"/><path class="cls-3" d="M170.49,90.67V86.82h.84v3.87c0,1.58.66,2.07,1.52,2.07s1.55-.49,1.55-2.07V86.82h.8v3.85c0,2.11-1,2.83-2.35,2.83S170.49,92.78,170.49,90.67Z"/><path class="cls-3" d="M176.39,92.53l.5-.58a2.56,2.56,0,0,0,1.81.81c.86,0,1.37-.42,1.37-1.06s-.47-.88-1.09-1.15l-.94-.42a1.75,1.75,0,0,1,.73-3.43,2.76,2.76,0,0,1,1.94.81l-.45.54a2.09,2.09,0,0,0-1.49-.62c-.73,0-1.22.37-1.22,1s.57.87,1.09,1.09l.93.4a1.83,1.83,0,0,1,1.35,1.75,2,2,0,0,1-2.23,1.87A3.2,3.2,0,0,1,176.39,92.53Z"/><path class="cls-3" d="M182.21,86.82h1.95c1.33,0,2.25.45,2.25,1.61a1.43,1.43,0,0,1-1,1.42v0a1.52,1.52,0,0,1,1.34,1.57c0,1.29-1,1.92-2.48,1.92h-2.1Zm1.8,2.79c1.12,0,1.58-.41,1.58-1.08s-.52-1-1.54-1h-1v2.13Zm.18,3.11c1.12,0,1.78-.41,1.78-1.29s-.64-1.18-1.78-1.18H183v2.47Z"/></svg>