<svg id="Layer_9" data-name="Layer 9" xmlns="http://www.w3.org/2000/svg" width="566.93" height="354.33" viewBox="0 0 566.93 354.33"><defs><style>.cls-1,.cls-2,.cls-3,.cls-4,.cls-5{fill:none;}.cls-1,.cls-4{stroke:#2e3192;}.cls-1,.cls-2{stroke-miterlimit:2.61;}.cls-1,.cls-2,.cls-4{stroke-width:2px;}.cls-2,.cls-3,.cls-5{stroke:#7f3f98;stroke-linecap:round;}.cls-3,.cls-5{stroke-width:3px;}.cls-4,.cls-5{stroke-miterlimit:10;}.cls-6{fill:#231f20;}</style></defs><title>card</title><circle class="cls-1" cx="441.09" cy="69" r="2.25"/><line class="cls-1" x1="437.2" y1="65.11" x2="439.5" y2="67.41"/><line class="cls-1" x1="442.68" y1="70.59" x2="444.98" y2="72.89"/><line class="cls-1" x1="442.68" y1="67.41" x2="444.98" y2="65.11"/><line class="cls-1" x1="437.2" y1="72.89" x2="439.5" y2="70.59"/><line class="cls-1" x1="441.09" y1="66.77" x2="441.09" y2="63.53"/><line class="cls-1" x1="441.09" y1="74.86" x2="441.09" y2="71.62"/><line class="cls-1" x1="435.59" y1="69.02" x2="438.84" y2="69.02"/><line class="cls-1" x1="443.68" y1="69.02" x2="446.93" y2="69.02"/><line class="cls-2" x1="441.09" y1="61.54" x2="441.09" y2="60.12"/><line class="cls-2" x1="441.09" y1="78.27" x2="441.09" y2="76.85"/><line class="cls-2" x1="448.92" y1="69.02" x2="450.33" y2="69.02"/><line class="cls-2" x1="432.19" y1="69" x2="433.61" y2="69"/><line class="cls-2" x1="446.55" y1="63.66" x2="447.55" y2="62.66"/><line class="cls-2" x1="434.73" y1="75.49" x2="435.73" y2="74.48"/><line class="cls-2" x1="446.8" y1="74.48" x2="447.8" y2="75.49"/><line class="cls-2" x1="434.99" y1="62.64" x2="435.99" y2="63.65"/><rect class="cls-3" x="458.49" y="48.8" width="80.68" height="42.58" rx="2.83"/><line class="cls-4" x1="466.15" y1="58.19" x2="528.96" y2="58.19"/><line class="cls-4" x1="466.15" y1="65.19" x2="528.96" y2="65.19"/><line class="cls-4" x1="466.15" y1="73.19" x2="528.96" y2="73.19"/><line class="cls-4" x1="466.15" y1="81.19" x2="528.96" y2="81.19"/><path class="cls-3" d="M338.92,96.81a40.93,40.93,0,1,1,7.77-11.56"/><path class="cls-3" d="M346.7,85.25a7.57,7.57,0,1,1-7.65,11.68"/><line class="cls-5" x1="350.44" y1="68.47" x2="421.3" y2="68.47"/><path class="cls-6" d="M442.68,104.77a2.34,2.34,0,0,1,2.18-2.55c1.24,0,1.94.89,1.94,2.28a2.07,2.07,0,0,1,0,.46h-3.27a1.62,1.62,0,0,0,1.62,1.7,2.13,2.13,0,0,0,1.21-.39l.29.54a2.85,2.85,0,0,1-1.6.51A2.33,2.33,0,0,1,442.68,104.77Zm3.4-.39c0-1-.44-1.51-1.2-1.51a1.49,1.49,0,0,0-1.39,1.51Z"/><path class="cls-6" d="M448.08,100.64h.83v6.56h-.83Z"/><path class="cls-6" d="M450.63,102.34h.68l.07.7h0a2.29,2.29,0,0,1,1.63-.82c1,0,1.48.66,1.48,1.9v3.08h-.82v-3c0-.9-.28-1.29-.92-1.29s-.84.26-1.33.75v3.52h-.82Z"/><path class="cls-6" d="M456.1,100.08h.81v4.82h0l2.07-2.56h.91l-1.63,2,1.84,2.91h-.89l-1.42-2.34-.91,1.06v1.28h-.81Z"/><path class="cls-6" d="M463.13,100.64h1.64c2,0,3.1,1.17,3.1,3.25s-1.08,3.31-3.06,3.31h-1.68Zm1.58,5.87c1.53,0,2.29-1,2.29-2.62s-.76-2.57-2.29-2.57H464v5.19Z"/><path class="cls-6" d="M469.05,100.81a.57.57,0,0,1,1.14,0,.57.57,0,0,1-1.14,0Zm.15,1.53H470v4.86h-.82Z"/><path class="cls-6" d="M471.12,106.64l.41-.54a2.19,2.19,0,0,0,1.43.58c.64,0,1-.34,1-.76s-.58-.72-1.12-.92-1.44-.58-1.44-1.4.62-1.38,1.67-1.38a2.48,2.48,0,0,1,1.51.54l-.39.53a1.83,1.83,0,0,0-1.11-.43c-.61,0-.89.32-.89.69s.52.64,1.08.85,1.48.55,1.48,1.47-.63,1.45-1.78,1.45A2.93,2.93,0,0,1,471.12,106.64Z"/><path class="cls-6" d="M475.85,102.34h.68l.07.56h0a2.51,2.51,0,0,1,1.54-.68c1.26,0,1.93,1,1.93,2.47,0,1.66-1,2.63-2.1,2.63a2.21,2.21,0,0,1-1.35-.57l0,.85v1.65h-.82Zm3.4,2.36c0-1.07-.36-1.79-1.28-1.79a2,2,0,0,0-1.3.66v2.55a1.88,1.88,0,0,0,1.18.5C478.66,106.62,479.25,105.9,479.25,104.7Z"/><path class="cls-6" d="M481.36,106.22v-6.14h.82v6.2c0,.25.11.35.23.35l.18,0,.11.63a1.33,1.33,0,0,1-.47.08C481.61,107.32,481.36,106.92,481.36,106.22Z"/><path class="cls-6" d="M483.61,105.93c0-1.05.91-1.58,3-1.81,0-.62-.21-1.22-1-1.22a2.64,2.64,0,0,0-1.45.52l-.32-.57a3.61,3.61,0,0,1,1.91-.63c1.18,0,1.68.79,1.68,2v3h-.67l-.07-.58h0a2.62,2.62,0,0,1-1.61.7A1.32,1.32,0,0,1,483.61,105.93Zm3,.08v-1.35c-1.63.2-2.18.6-2.18,1.22s.38.77.86.77A2,2,0,0,0,486.59,106Z"/><path class="cls-6" d="M488.46,109.19l.16-.65a1.43,1.43,0,0,0,.37.07c.55,0,.9-.44,1.1-1l.11-.35-1.95-4.87h.85l1,2.69c.15.42.31.92.47,1.37h0c.14-.45.28-.94.41-1.37l.87-2.69h.8l-1.83,5.26c-.34,1-.84,1.69-1.82,1.69A1.61,1.61,0,0,1,488.46,109.19Z"/><path class="cls-6" d="M495.32,105.93c0-1.05.91-1.58,3-1.81,0-.62-.21-1.22-1-1.22a2.64,2.64,0,0,0-1.45.52l-.32-.57a3.61,3.61,0,0,1,1.91-.63c1.18,0,1.68.79,1.68,2v3h-.68l-.06-.58h0a2.62,2.62,0,0,1-1.61.7A1.32,1.32,0,0,1,495.32,105.93Zm3,.08v-1.35c-1.63.2-2.18.6-2.18,1.22s.38.77.86.77A2,2,0,0,0,498.3,106Z"/><path class="cls-6" d="M500.66,102.34h.68l.07.7h0a2.29,2.29,0,0,1,1.63-.82c1,0,1.48.66,1.48,1.9v3.08h-.82v-3c0-.9-.28-1.29-.92-1.29s-.84.26-1.33.75v3.52h-.82Z"/><path class="cls-6" d="M505.78,104.77a2.3,2.3,0,0,1,2.1-2.55,2,2,0,0,1,1.37.56l0-.83v-1.87H510v7.12h-.68l-.07-.58h0a2.16,2.16,0,0,1-1.48.7C506.57,107.32,505.78,106.39,505.78,104.77Zm3.43,1.19v-2.54a1.71,1.71,0,0,0-1.18-.51c-.78,0-1.4.75-1.4,1.86s.48,1.85,1.34,1.85A1.66,1.66,0,0,0,509.21,106Z"/><path class="cls-6" d="M513.76,100.64h.83v5.85h2.86v.71h-3.69Z"/><path class="cls-6" d="M518.62,100.64h3.78v.7h-2.95v2.06h2.49v.71h-2.49v2.38h3v.71h-3.88Z"/><path class="cls-6" d="M523.89,100.64h1.64c2,0,3.09,1.17,3.09,3.25s-1.08,3.31-3.06,3.31h-1.67Zm1.57,5.87c1.54,0,2.3-1,2.3-2.62s-.76-2.57-2.3-2.57h-.74v5.19Z"/><path class="cls-6" d="M439.56,112.64h.88l1.06,3.54c.23.77.39,1.4.63,2.17h0c.24-.77.41-1.4.63-2.17l1.05-3.54h.85l-2.08,6.56h-1Z"/><path class="cls-6" d="M445.38,112.81a.52.52,0,0,1,.56-.53.53.53,0,0,1,.57.53.54.54,0,0,1-.57.53A.53.53,0,0,1,445.38,112.81Zm.15,1.53h.82v4.86h-.82Z"/><path class="cls-6" d="M447.45,118.64l.4-.54a2.21,2.21,0,0,0,1.44.58c.64,0,.95-.34.95-.76s-.57-.72-1.11-.92-1.45-.58-1.45-1.4.63-1.38,1.68-1.38a2.53,2.53,0,0,1,1.51.54l-.39.53a1.83,1.83,0,0,0-1.11-.43c-.61,0-.9.32-.9.69s.53.64,1.08.85,1.48.55,1.48,1.47-.62,1.45-1.77,1.45A2.91,2.91,0,0,1,447.45,118.64Z"/><path class="cls-6" d="M452.11,117.42v-3.08h.82v3c0,.9.28,1.29.92,1.29s.84-.24,1.3-.82v-3.44H456v4.86h-.68l-.07-.76h0a2.07,2.07,0,0,1-1.61.88C452.57,119.32,452.11,118.66,452.11,117.42Z"/><path class="cls-6" d="M457.31,117.93c0-1.05.92-1.58,3-1.81,0-.62-.21-1.22-1-1.22a2.61,2.61,0,0,0-1.45.52l-.32-.57a3.54,3.54,0,0,1,1.9-.63c1.19,0,1.69.79,1.69,2v3h-.68l-.07-.58h0a2.59,2.59,0,0,1-1.6.7A1.33,1.33,0,0,1,457.31,117.93Zm3,.08v-1.35c-1.63.2-2.18.6-2.18,1.22s.37.77.85.77A2,2,0,0,0,460.3,118Z"/><path class="cls-6" d="M462.65,118.22v-6.14h.83v6.2c0,.25.11.35.23.35l.18,0,.11.63a1.38,1.38,0,0,1-.47.08C462.91,119.32,462.65,118.92,462.65,118.22Z"/><path class="cls-6" d="M466.39,112.64h.88l1.06,3.54c.23.77.39,1.4.63,2.17h0c.24-.77.4-1.4.63-2.17l1.05-3.54h.85l-2.08,6.56h-1Z"/><path class="cls-6" d="M471.84,116.77a2.34,2.34,0,0,1,2.19-2.55c1.24,0,1.94.89,1.94,2.28a2.92,2.92,0,0,1,0,.46h-3.27a1.62,1.62,0,0,0,1.61,1.7,2.1,2.1,0,0,0,1.21-.39l.29.54a2.82,2.82,0,0,1-1.6.51A2.33,2.33,0,0,1,471.84,116.77Zm3.4-.39c0-1-.44-1.51-1.2-1.51a1.49,1.49,0,0,0-1.39,1.51Z"/><path class="cls-6" d="M477.16,114.34h.68l.07.88h0a1.69,1.69,0,0,1,1.38-1,1.15,1.15,0,0,1,.52.1l-.15.72a1.45,1.45,0,0,0-.47-.08c-.41,0-.9.3-1.23,1.12v3.12h-.83Z"/><path class="cls-6" d="M480.48,112.81a.57.57,0,0,1,1.14,0,.57.57,0,0,1-1.14,0Zm.15,1.53h.83v4.86h-.83Z"/><path class="cls-6" d="M482.57,114.39l.7,0h1.81V115h-2.51Zm.66-.82c0-1,.45-1.61,1.42-1.61a2.2,2.2,0,0,1,.81.16l-.17.63a1.44,1.44,0,0,0-.55-.12c-.46,0-.69.32-.69.94v5.63h-.82Z"/><path class="cls-6" d="M485.86,112.81a.57.57,0,0,1,1.14,0,.57.57,0,0,1-1.14,0Zm.15,1.53h.83v4.86H486Z"/><path class="cls-6" d="M488.11,116.77a2.36,2.36,0,0,1,2.34-2.55,2,2,0,0,1,1.42.57l-.42.54a1.42,1.42,0,0,0-1-.43c-.88,0-1.53.76-1.53,1.87s.61,1.86,1.51,1.86a1.76,1.76,0,0,0,1.14-.48l.35.55a2.33,2.33,0,0,1-1.57.62A2.29,2.29,0,0,1,488.11,116.77Z"/><path class="cls-6" d="M492.63,117.93c0-1.05.92-1.58,3-1.81,0-.62-.21-1.22-1-1.22a2.61,2.61,0,0,0-1.44.52l-.33-.57a3.61,3.61,0,0,1,1.91-.63c1.19,0,1.69.79,1.69,2v3h-.68l-.07-.58h0a2.59,2.59,0,0,1-1.6.7A1.33,1.33,0,0,1,492.63,117.93Zm3,.08v-1.35c-1.63.2-2.18.6-2.18,1.22s.37.77.85.77A2,2,0,0,0,495.62,118Z"/><path class="cls-6" d="M498,117.69V115h-.72v-.62l.76,0,.09-1.36h.69v1.36h1.32V115H498.8v2.7c0,.59.19.94.75.94a1.76,1.76,0,0,0,.56-.13l.15.62a2.94,2.94,0,0,1-.9.18C498.33,119.32,498,118.66,498,117.69Z"/><path class="cls-6" d="M501.06,112.81a.57.57,0,0,1,1.14,0,.57.57,0,0,1-1.14,0Zm.15,1.53H502v4.86h-.83Z"/><path class="cls-6" d="M503.31,116.77a2.27,2.27,0,1,1,2.26,2.55A2.32,2.32,0,0,1,503.31,116.77Zm3.66,0c0-1.11-.57-1.87-1.4-1.87s-1.41.76-1.41,1.87.57,1.86,1.41,1.86S507,117.89,507,116.77Z"/><path class="cls-6" d="M509.09,114.34h.68l.07.7h0a2.29,2.29,0,0,1,1.63-.82c1,0,1.48.66,1.48,1.9v3.08h-.82v-3c0-.9-.27-1.29-.92-1.29a1.84,1.84,0,0,0-1.32.75v3.52h-.83Z"/><path class="cls-6" d="M516.26,117.93c0-1.05.92-1.58,3-1.81,0-.62-.21-1.22-1-1.22a2.61,2.61,0,0,0-1.44.52l-.33-.57a3.61,3.61,0,0,1,1.91-.63c1.19,0,1.69.79,1.69,2v3h-.68l-.07-.58h0a2.59,2.59,0,0,1-1.6.7A1.33,1.33,0,0,1,516.26,117.93Zm3,.08v-1.35c-1.63.2-2.18.6-2.18,1.22s.37.77.85.77A2,2,0,0,0,519.25,118Z"/><path class="cls-6" d="M521.6,114.34h.68l.07.7h0a2.29,2.29,0,0,1,1.63-.82c1,0,1.48.66,1.48,1.9v3.08h-.82v-3c0-.9-.27-1.29-.92-1.29a1.84,1.84,0,0,0-1.32.75v3.52h-.83Z"/><path class="cls-6" d="M526.73,116.77a2.29,2.29,0,0,1,2.1-2.55,2,2,0,0,1,1.36.56l0-.83v-1.87H531v7.12h-.68l-.07-.58h0a2.12,2.12,0,0,1-1.47.7C527.52,119.32,526.73,118.39,526.73,116.77Zm3.43,1.19v-2.54a1.73,1.73,0,0,0-1.19-.51c-.78,0-1.39.75-1.39,1.86s.48,1.85,1.33,1.85A1.66,1.66,0,0,0,530.16,118Z"/><path class="cls-6" d="M456.32,128.49v-3.85h.83v3.87c0,1.58.67,2.07,1.52,2.07s1.56-.49,1.56-2.07v-3.87h.8v3.85c0,2.1-1,2.83-2.36,2.83S456.32,130.59,456.32,128.49Z"/><path class="cls-6" d="M462.14,130.64l.4-.54a2.19,2.19,0,0,0,1.44.58c.63,0,.95-.34.95-.76s-.57-.72-1.11-.92-1.45-.58-1.45-1.4.62-1.38,1.68-1.38a2.53,2.53,0,0,1,1.51.54l-.4.53a1.78,1.78,0,0,0-1.1-.43c-.62,0-.9.32-.9.69s.53.64,1.08.85,1.48.55,1.48,1.47-.62,1.45-1.77,1.45A2.91,2.91,0,0,1,462.14,130.64Z"/><path class="cls-6" d="M466.5,128.77a2.34,2.34,0,0,1,2.19-2.55c1.24,0,1.94.89,1.94,2.28a2.92,2.92,0,0,1,0,.46h-3.27a1.62,1.62,0,0,0,1.61,1.7,2.1,2.1,0,0,0,1.21-.39l.29.54a2.82,2.82,0,0,1-1.6.51A2.33,2.33,0,0,1,466.5,128.77Zm3.4-.39c0-1-.44-1.51-1.2-1.51a1.49,1.49,0,0,0-1.39,1.51Z"/><path class="cls-6" d="M471.82,126.34h.68l.07.88h0a1.69,1.69,0,0,1,1.38-1,1.15,1.15,0,0,1,.52.1l-.15.72a1.45,1.45,0,0,0-.47-.08c-.41,0-.9.3-1.23,1.12v3.12h-.83Z"/><path class="cls-6" d="M477,127.92c0-2.11,1.27-3.4,3-3.4a2.52,2.52,0,0,1,1.89.81l-.45.54a1.89,1.89,0,0,0-1.42-.62c-1.32,0-2.17,1-2.17,2.65s.78,2.68,2.18,2.68a1.79,1.79,0,0,0,1.18-.38v-1.71h-1.39v-.69H482v2.75a2.84,2.84,0,0,1-2,.77C478.22,131.32,477,130.05,477,127.92Z"/><path class="cls-6" d="M483.4,129.42v-3.08h.82v3c0,.9.28,1.29.92,1.29s.84-.24,1.3-.82v-3.44h.82v4.86h-.68l-.07-.76h0a2.09,2.09,0,0,1-1.61.88C483.86,131.32,483.4,130.66,483.4,129.42Z"/><path class="cls-6" d="M488.75,124.81a.57.57,0,0,1,1.14,0,.57.57,0,0,1-1.14,0Zm.15,1.53h.83v4.86h-.83Z"/><path class="cls-6" d="M491,128.77a2.29,2.29,0,0,1,2.1-2.55,2,2,0,0,1,1.36.56l0-.83v-1.87h.82v7.12h-.68l-.07-.58h0a2.12,2.12,0,0,1-1.47.7C491.81,131.32,491,130.39,491,128.77Zm3.43,1.19v-2.54a1.73,1.73,0,0,0-1.19-.51c-.77,0-1.39.75-1.39,1.86s.48,1.85,1.33,1.85A1.66,1.66,0,0,0,494.45,130Z"/><path class="cls-6" d="M496.61,129.93c0-1.05.92-1.58,3-1.81,0-.62-.21-1.22-1-1.22a2.61,2.61,0,0,0-1.44.52l-.33-.57a3.61,3.61,0,0,1,1.91-.63c1.19,0,1.69.79,1.69,2v3h-.68l-.07-.58h0a2.59,2.59,0,0,1-1.6.7A1.33,1.33,0,0,1,496.61,129.93Zm3,.08v-1.35c-1.63.2-2.18.6-2.18,1.22s.37.77.85.77A2,2,0,0,0,499.6,130Z"/><path class="cls-6" d="M502,126.34h.68l.07.7h0a2.29,2.29,0,0,1,1.63-.82c1,0,1.48.66,1.48,1.9v3.08H505v-3c0-.9-.27-1.29-.92-1.29a1.84,1.84,0,0,0-1.32.75v3.52H502Z"/><path class="cls-6" d="M507.06,128.77a2.36,2.36,0,0,1,2.34-2.55,2,2,0,0,1,1.42.57l-.42.54a1.42,1.42,0,0,0-1-.43c-.88,0-1.53.76-1.53,1.87s.61,1.86,1.5,1.86a1.76,1.76,0,0,0,1.15-.48l.35.55a2.35,2.35,0,0,1-1.57.62A2.29,2.29,0,0,1,507.06,128.77Z"/><path class="cls-6" d="M511.41,128.77a2.34,2.34,0,0,1,2.19-2.55c1.24,0,1.93.89,1.93,2.28a3,3,0,0,1,0,.46h-3.27a1.61,1.61,0,0,0,1.61,1.7,2.1,2.1,0,0,0,1.21-.39l.29.54a2.82,2.82,0,0,1-1.6.51A2.33,2.33,0,0,1,511.41,128.77Zm3.4-.39c0-1-.44-1.51-1.2-1.51a1.49,1.49,0,0,0-1.39,1.51Z"/></svg>