<svg id="Layer_4_copy" data-name="Layer 4 copy" xmlns="http://www.w3.org/2000/svg" viewBox="0 0 283.46 240.94"><defs><style>.cls-1,.cls-2,.cls-3,.cls-4{fill:none;}.cls-1,.cls-2,.cls-4{stroke:#7f3f98;}.cls-1,.cls-3{stroke-linecap:round;}.cls-2{stroke-linejoin:round;}.cls-3{stroke:#2e3192;stroke-width:2px;}.cls-4{stroke-miterlimit:10;}.cls-5{fill:#231f20;}</style></defs><title>cardHSM</title><path class="cls-1" d="M44.8,6.31v-3a.4.4,0,0,1,.4-.4H57.48a.4.4,0,0,1,.4.4V6.13"/><path class="cls-1" d="M21.54,30H18.06a1.59,1.59,0,0,1-1.58-1.59V2.83a1.58,1.58,0,0,1,1.58-1.58h5.61V4.44a.2.2,0,0,0,.2.2h4a.2.2,0,0,0,.2-.2V1.25H58a1.58,1.58,0,0,1,1.58,1.58V6.31"/><line class="cls-1" x1="24.76" y1="3.77" x2="24.76" y2="1.44"/><line class="cls-1" x1="25.92" y1="3.75" x2="25.92" y2="1.42"/><line class="cls-1" x1="27.08" y1="3.75" x2="27.08" y2="1.42"/><path class="cls-1" d="M21.54,18.48h-.81a.79.79,0,0,1-.8-.79V13.23a.79.79,0,0,1,.8-.79h.81"/><line class="cls-1" x1="19.93" y1="15.46" x2="21.54" y2="15.46"/><line class="cls-1" x1="19.93" y1="13.95" x2="21.54" y2="13.95"/><line class="cls-1" x1="19.93" y1="16.97" x2="21.54" y2="16.97"/><path class="cls-1" d="M49.86,11.38v-3a.4.4,0,0,1,.41-.4H62.54a.4.4,0,0,1,.4.4v3"/><path class="cls-1" d="M21.54,29.89V7.9a1.59,1.59,0,0,1,1.59-1.59h5.6v3.2a.2.2,0,0,0,.2.19h4a.19.19,0,0,0,.19-.19V6.31H44.8"/><path class="cls-1" d="M26.6,35H23.13a1.59,1.59,0,0,1-1.59-1.58V29.89"/><path class="cls-1" d="M44.8,6.31H63.06A1.59,1.59,0,0,1,64.65,7.9v3.48"/><line class="cls-1" x1="29.83" y1="8.83" x2="29.83" y2="6.5"/><line class="cls-1" x1="30.99" y1="8.81" x2="30.99" y2="6.49"/><line class="cls-1" x1="32.14" y1="8.81" x2="32.14" y2="6.49"/><path class="cls-1" d="M26.6,23.55h-.81a.79.79,0,0,1-.79-.8V18.3a.79.79,0,0,1,.79-.8h.81"/><line class="cls-1" x1="25" y1="20.53" x2="26.6" y2="20.53"/><line class="cls-1" x1="25" y1="19.01" x2="26.6" y2="19.01"/><line class="cls-1" x1="25" y1="22.04" x2="26.6" y2="22.04"/><rect class="cls-1" x="54.93" y="13" width="13.08" height="8.52" rx="0.4"/><path class="cls-1" d="M34.32,40.09H28.19A1.59,1.59,0,0,1,26.6,38.5V13a1.59,1.59,0,0,1,1.59-1.58H33.8v3.19a.2.2,0,0,0,.2.2h4a.2.2,0,0,0,.2-.2V11.38H68.12A1.59,1.59,0,0,1,69.71,13V38.5a1.59,1.59,0,0,1-1.59,1.59H53.36"/><line class="cls-1" x1="34.89" y1="13.89" x2="34.89" y2="11.57"/><line class="cls-1" x1="36.05" y1="13.88" x2="36.05" y2="11.55"/><line class="cls-1" x1="37.21" y1="13.88" x2="37.21" y2="11.55"/><line class="cls-1" x1="32.61" y1="22.57" x2="32.61" y2="28.61"/><path class="cls-1" d="M32.39,28.61H30.86a.79.79,0,0,1-.8-.79V23.36a.79.79,0,0,1,.8-.79h1.53"/><line class="cls-1" x1="30.06" y1="25.59" x2="32.61" y2="25.59"/><line class="cls-1" x1="30.06" y1="24.08" x2="32.61" y2="24.08"/><line class="cls-1" x1="30.06" y1="27.1" x2="32.61" y2="27.1"/><path class="cls-2" d="M63.71,33.87H60.37a.47.47,0,0,0-.47.46h0a.47.47,0,0,0,.47.47h3.88a.87.87,0,0,0,.87-.87h0a.87.87,0,0,0-.87-.87H60.4"/><path class="cls-2" d="M63.94,35.7H60.31A1.32,1.32,0,0,1,59,34.38h0a1.32,1.32,0,0,1,1.31-1.32h3.37"/><path class="cls-2" d="M65.64,33.14A2.15,2.15,0,0,1,66,34.32h0a2.17,2.17,0,0,1-2.17,2.16H61.54"/><path class="cls-2" d="M60.43,36.49a2.17,2.17,0,0,1-2.16-2.17h0a2.17,2.17,0,0,1,2.16-2.17h3.39a2.24,2.24,0,0,1,1,.23"/><path class="cls-2" d="M58.31,32.2a3,3,0,0,1,2-.79H64a3,3,0,0,1,2.46,1.31"/><path class="cls-2" d="M66.52,35.87A3,3,0,0,1,64,37.35H60.33a3,3,0,0,1-3-3h0a3.4,3.4,0,0,1,0-.45"/><path class="cls-2" d="M65.75,37.66a3.8,3.8,0,0,1-1.75.43H60.41a3.81,3.81,0,0,1-1.56-.34"/><path class="cls-2" d="M67.57,33.09a3.4,3.4,0,0,1,.2,1.22h0a3.75,3.75,0,0,1-.85,2.4"/><path class="cls-2" d="M64,30.54a3.82,3.82,0,0,1,2.52,1"/><path class="cls-2" d="M57,35.92a3.7,3.7,0,0,1-.36-1.6h0a3.78,3.78,0,0,1,3.77-3.78h0"/><path class="cls-3" d="M46.07,18.49l-2.26-.6L32.39,21V34s0,4.87,3.54,7.86a42.13,42.13,0,0,0,7.91,4.72,0,0,0,0,0,0,0,39.94,39.94,0,0,0,7.89-4.71c3.53-3,3.53-7.86,3.53-7.86V21l-9.22-2.46"/><path class="cls-3" d="M38.14,31.07l3.55,4.83L50.93,27"/><circle class="cls-4" cx="98.56" cy="66.81" r="7.15"/><line class="cls-4" x1="93.54" y1="62.03" x2="73.49" y2="41.98"/><path class="cls-5" d="M18.16,53.84l.3-.35a1.5,1.5,0,0,0,1.08.49c.52,0,.82-.26.82-.64s-.28-.53-.65-.69l-.57-.25a1.05,1.05,0,0,1,.44-2.06,1.59,1.59,0,0,1,1.16.49l-.26.32a1.25,1.25,0,0,0-.9-.37c-.44,0-.73.22-.73.58s.34.52.65.65l.56.24a1.09,1.09,0,0,1,.81,1,1.19,1.19,0,0,1-1.34,1.12A1.9,1.9,0,0,1,18.16,53.84Z"/><path class="cls-5" d="M21.38,52.89a1.41,1.41,0,0,1,1.31-1.53c.75,0,1.17.54,1.17,1.37a1.14,1.14,0,0,1,0,.28h-2a1,1,0,0,0,1,1,1.2,1.2,0,0,0,.72-.24l.18.33a1.74,1.74,0,0,1-1,.3A1.4,1.4,0,0,1,21.38,52.89Zm2-.23c0-.59-.26-.91-.72-.91a.89.89,0,0,0-.83.91Z"/><path class="cls-5" d="M24.36,52.89a1.41,1.41,0,0,1,1.4-1.53,1.23,1.23,0,0,1,.85.34l-.25.33a.86.86,0,0,0-.58-.26,1,1,0,0,0-.91,1.12c0,.67.36,1.12.9,1.12a1,1,0,0,0,.68-.29l.22.33a1.42,1.42,0,0,1-.94.37A1.37,1.37,0,0,1,24.36,52.89Z"/><path class="cls-5" d="M27.27,53.28V51.43h.5v1.79c0,.54.16.77.55.77s.5-.15.78-.49V51.43h.49v2.92h-.41l0-.46h0a1.23,1.23,0,0,1-1,.53C27.55,54.42,27.27,54,27.27,53.28Z"/><path class="cls-5" d="M30.58,51.43H31L31,52h0a1,1,0,0,1,.83-.6.71.71,0,0,1,.31.06l-.09.43a.86.86,0,0,0-.28,0c-.25,0-.55.17-.74.67v1.87h-.49Z"/><path class="cls-5" d="M32.38,52.89a1.41,1.41,0,0,1,1.31-1.53c.74,0,1.16.54,1.16,1.37a1.19,1.19,0,0,1,0,.28h-2a1,1,0,0,0,1,1,1.2,1.2,0,0,0,.72-.24l.18.33a1.79,1.79,0,0,1-1,.3A1.4,1.4,0,0,1,32.38,52.89Zm2-.23c0-.59-.26-.91-.72-.91a.9.9,0,0,0-.84.91Z"/><path class="cls-5" d="M35.57,53.76V50.08h.5V53.8c0,.15.06.21.13.21h.11l.07.37a.7.7,0,0,1-.28.05C35.72,54.42,35.57,54.18,35.57,53.76Z"/><path class="cls-5" d="M36.81,55.54l.1-.39a.72.72,0,0,0,.22,0c.33,0,.54-.26.66-.62l.06-.22-1.17-2.92h.51l.6,1.62c.09.25.19.55.28.82h0c.08-.27.16-.57.24-.82l.52-1.62h.48l-1.1,3.16c-.2.58-.5,1-1.09,1A.86.86,0,0,1,36.81,55.54Z"/><path class="cls-5" d="M41.11,50.08h.49v1.16l0,.6a1.4,1.4,0,0,1,1-.48c.61,0,.89.4.89,1.14v1.85H43V52.56c0-.54-.17-.77-.55-.77a1.09,1.09,0,0,0-.8.45v2.11h-.49Z"/><path class="cls-5" d="M44.15,52.89a1.36,1.36,0,1,1,1.35,1.53A1.39,1.39,0,0,1,44.15,52.89Zm2.19,0c0-.66-.34-1.12-.84-1.12s-.84.46-.84,1.12S45,54,45.5,54,46.34,53.56,46.34,52.89Z"/><path class="cls-5" d="M47.6,53.76V50.08h.49V53.8c0,.15.07.21.14.21h.11l.06.37a.67.67,0,0,1-.28.05C47.75,54.42,47.6,54.18,47.6,53.76Z"/><path class="cls-5" d="M48.92,52.89a1.38,1.38,0,0,1,1.26-1.53,1.21,1.21,0,0,1,.82.34l0-.5V50.08h.49v4.27h-.41L51,54h0a1.25,1.25,0,0,1-.88.42C49.39,54.42,48.92,53.87,48.92,52.89Zm2.06.72V52.08a1,1,0,0,0-.71-.3c-.47,0-.84.45-.84,1.11s.29,1.12.8,1.12A1,1,0,0,0,51,53.61Z"/><path class="cls-5" d="M52.13,54l.25-.33a1.33,1.33,0,0,0,.86.35c.38,0,.57-.21.57-.46s-.34-.43-.67-.55-.87-.35-.87-.84.38-.83,1-.83a1.5,1.5,0,0,1,.91.33L54,52a1.14,1.14,0,0,0-.66-.25c-.37,0-.54.19-.54.41s.32.39.65.51.88.33.88.88-.37.87-1.06.87A1.83,1.83,0,0,1,52.13,54Z"/><path class="cls-5" d="M56.17,51.43h.41l0,.43h0a1.28,1.28,0,0,1,.9-.5.77.77,0,0,1,.81.56,1.38,1.38,0,0,1,1-.56c.6,0,.89.4.89,1.14v1.85h-.5V52.56c0-.54-.17-.77-.54-.77a1.06,1.06,0,0,0-.73.45v2.11h-.49V52.56c0-.54-.18-.77-.55-.77a1.1,1.1,0,0,0-.73.45v2.11h-.49Z"/><path class="cls-5" d="M61,53.59c0-.63.55-1,1.79-1.09,0-.37-.12-.73-.6-.73a1.66,1.66,0,0,0-.87.31l-.19-.34a2.2,2.2,0,0,1,1.14-.38c.72,0,1,.47,1,1.2v1.79h-.41l0-.35h0a1.55,1.55,0,0,1-1,.42A.8.8,0,0,1,61,53.59Zm1.79,0v-.81c-1,.11-1.3.35-1.3.73s.22.46.51.46A1.17,1.17,0,0,0,62.75,53.64Z"/><path class="cls-5" d="M64.17,51.43h.41l0,.42h0a1.41,1.41,0,0,1,1-.49c.62,0,.89.4.89,1.14v1.85H66V52.56c0-.54-.16-.77-.55-.77a1.09,1.09,0,0,0-.8.45v2.11h-.49Z"/><path class="cls-5" d="M67.16,55.54l.1-.39a.67.67,0,0,0,.22,0c.33,0,.53-.26.66-.62l.06-.22L67,51.43h.51l.59,1.62c.1.25.19.55.29.82h0c.09-.27.17-.57.25-.82l.52-1.62h.48l-1.1,3.16c-.2.58-.5,1-1.09,1A.83.83,0,0,1,67.16,55.54Z"/><path class="cls-5" d="M18,57.61h.53l.64,2.13c.14.46.23.84.38,1.3h0c.15-.46.24-.84.38-1.3l.63-2.13h.51l-1.25,3.94h-.58Z"/><path class="cls-5" d="M21.25,60.79c0-.63.55-.95,1.79-1.09,0-.37-.12-.73-.6-.73a1.63,1.63,0,0,0-.87.31l-.19-.34a2.17,2.17,0,0,1,1.14-.38c.71,0,1,.47,1,1.2v1.79h-.4l0-.35h0a1.56,1.56,0,0,1-1,.42A.79.79,0,0,1,21.25,60.79Zm1.79.05V60c-1,.12-1.31.35-1.31.73s.23.46.52.46A1.17,1.17,0,0,0,23,60.84Z"/><path class="cls-5" d="M24.42,60.48V58.63h.49v1.79c0,.54.16.77.55.77s.5-.15.78-.49V58.63h.49v2.92h-.4l0-.46h0a1.23,1.23,0,0,1-1,.53C24.69,61.62,24.42,61.22,24.42,60.48Z"/><path class="cls-5" d="M27.72,61V57.28h.49V61c0,.15.07.21.14.21h.11l.07.37a.72.72,0,0,1-.29,0C27.87,61.62,27.72,61.38,27.72,61Z"/><path class="cls-5" d="M29.34,60.65V59H28.9v-.38l.46,0,.06-.81h.41v.81h.79V59h-.79v1.62c0,.35.11.56.45.56a.94.94,0,0,0,.33-.08l.1.37a1.68,1.68,0,0,1-.54.11C29.55,61.62,29.34,61.23,29.34,60.65Z"/><path class="cls-5" d="M31,60.79c0-.63.55-.95,1.79-1.09,0-.37-.12-.73-.6-.73a1.63,1.63,0,0,0-.87.31l-.19-.34a2.17,2.17,0,0,1,1.14-.38c.71,0,1,.47,1,1.2v1.79h-.41l0-.35h0a1.55,1.55,0,0,1-1,.42A.8.8,0,0,1,31,60.79Zm1.79.05V60c-1,.12-1.31.35-1.31.73s.23.46.52.46A1.17,1.17,0,0,0,32.76,60.84Z"/><path class="cls-5" d="M33.76,58.63h.5l.56,1.66c.08.28.18.58.27.86h0l.27-.86.55-1.66h.48l-1,2.92h-.57Z"/><path class="cls-5" d="M36.74,60.09a1.36,1.36,0,1,1,1.35,1.53A1.39,1.39,0,0,1,36.74,60.09Zm2.19,0c0-.66-.34-1.12-.84-1.12s-.84.46-.84,1.12.34,1.12.84,1.12S38.93,60.76,38.93,60.09Z"/><path class="cls-5" d="M41.14,61l.3-.35a1.54,1.54,0,0,0,1.09.49c.52,0,.82-.26.82-.64s-.28-.53-.66-.69l-.56-.25a1.05,1.05,0,0,1,.44-2.06,1.61,1.61,0,0,1,1.16.49l-.26.32a1.27,1.27,0,0,0-.9-.37c-.44,0-.73.22-.73.58s.34.52.65.65l.56.24a1.09,1.09,0,0,1,.81,1,1.19,1.19,0,0,1-1.34,1.12A1.9,1.9,0,0,1,41.14,61Z"/><path class="cls-5" d="M44.59,58.63H45l0,.43h0a1.3,1.3,0,0,1,.91-.5.76.76,0,0,1,.8.56,1.4,1.4,0,0,1,1-.56c.59,0,.88.4.88,1.14v1.85h-.49V59.77c0-.55-.17-.78-.54-.78a1.06,1.06,0,0,0-.73.45v2.11h-.5V59.77c0-.55-.17-.78-.54-.78a1.08,1.08,0,0,0-.73.45v2.11h-.49Z"/><path class="cls-5" d="M49.38,60.79c0-.63.55-.95,1.79-1.09,0-.37-.13-.73-.6-.73a1.63,1.63,0,0,0-.87.31l-.19-.34a2.14,2.14,0,0,1,1.14-.38c.71,0,1,.47,1,1.2v1.79h-.4l0-.35h0a1.56,1.56,0,0,1-1,.42A.79.79,0,0,1,49.38,60.79Zm1.79.05V60c-1,.12-1.31.35-1.31.73s.23.46.51.46A1.17,1.17,0,0,0,51.17,60.84Z"/><path class="cls-5" d="M52.59,58.63H53l0,.53h0a1,1,0,0,1,.83-.6.71.71,0,0,1,.31.06l-.09.43a.86.86,0,0,0-.28,0c-.25,0-.55.17-.74.67v1.87h-.49Z"/><path class="cls-5" d="M54.75,60.65V59h-.43v-.38l.46,0,0-.81h.42v.81H56V59h-.79v1.62c0,.35.11.56.45.56a1,1,0,0,0,.33-.08l.09.37a1.57,1.57,0,0,1-.54.11C55,61.62,54.75,61.23,54.75,60.65Z"/><path class="cls-5" d="M56.39,60.09a1.42,1.42,0,0,1,1.41-1.53,1.25,1.25,0,0,1,.85.34l-.25.33a.86.86,0,0,0-.58-.26,1,1,0,0,0-.92,1.12c0,.67.37,1.12.91,1.12a1.05,1.05,0,0,0,.68-.29l.21.33a1.42,1.42,0,0,1-.94.37A1.38,1.38,0,0,1,56.39,60.09Z"/><path class="cls-5" d="M59.11,60.79c0-.63.54-.95,1.79-1.09,0-.37-.13-.73-.6-.73a1.6,1.6,0,0,0-.87.31l-.2-.34a2.21,2.21,0,0,1,1.15-.38c.71,0,1,.47,1,1.2v1.79H61l0-.35h0a1.53,1.53,0,0,1-1,.42A.79.79,0,0,1,59.11,60.79Zm1.79.05V60c-1,.12-1.31.35-1.31.73s.22.46.51.46A1.21,1.21,0,0,0,60.9,60.84Z"/><path class="cls-5" d="M62.31,58.63h.41l0,.53h0a1,1,0,0,1,.83-.6.75.75,0,0,1,.31.06l-.1.43a.82.82,0,0,0-.28,0c-.24,0-.54.17-.74.67v1.87h-.49Z"/><path class="cls-5" d="M64.13,60.09a1.37,1.37,0,0,1,1.26-1.53,1.17,1.17,0,0,1,.81.34l0-.5V57.28h.5v4.27h-.41l0-.35h0a1.29,1.29,0,0,1-.88.42C64.6,61.62,64.13,61.07,64.13,60.09Zm2.05.72V59.28a1,1,0,0,0-.71-.3c-.46,0-.83.45-.83,1.11s.29,1.12.8,1.12A1,1,0,0,0,66.18,60.81Z"/><path class="cls-5" d="M67.34,61.22l.24-.33a1.37,1.37,0,0,0,.86.35c.39,0,.58-.21.58-.46s-.35-.43-.67-.55-.87-.35-.87-.84.37-.83,1-.83a1.45,1.45,0,0,1,.9.33l-.23.31a1.15,1.15,0,0,0-.67-.25c-.36,0-.53.19-.53.41s.31.39.64.51.89.33.89.88-.37.87-1.06.87A1.79,1.79,0,0,1,67.34,61.22Z"/><path class="cls-5" d="M16.31,65.83h.5l.43,1.69c.07.27.12.54.18.81h0c.06-.27.13-.54.2-.81l.45-1.69h.48L19,67.52c.08.27.14.54.21.81h0l.18-.81.43-1.69h.47l-.78,2.92h-.61l-.42-1.57c-.07-.27-.12-.54-.19-.84h0c-.06.3-.12.57-.2.85l-.41,1.56h-.57Z"/><path class="cls-5" d="M20.87,64.92a.34.34,0,0,1,.68,0,.34.34,0,0,1-.68,0Zm.09.91h.5v2.92H21Z"/><path class="cls-5" d="M22.52,67.85V66.24h-.43v-.38l.46,0,.06-.81H23v.81h.79v.41H23v1.62c0,.35.11.56.45.56a.94.94,0,0,0,.33-.08l.1.37a1.68,1.68,0,0,1-.54.11C22.73,68.82,22.52,68.43,22.52,67.85Z"/><path class="cls-5" d="M24.47,64.48H25v1.17l0,.59a1.4,1.4,0,0,1,1-.48c.61,0,.89.4.89,1.14v1.85h-.49V67c0-.55-.17-.78-.55-.78a1.09,1.09,0,0,0-.8.45v2.11h-.49Z"/><path class="cls-5" d="M27.64,64.92a.34.34,0,0,1,.68,0,.34.34,0,0,1-.68,0Zm.09.91h.49v2.92h-.49Z"/><path class="cls-5" d="M29.21,65.83h.4l.05.42h0a1.41,1.41,0,0,1,1-.49c.61,0,.89.4.89,1.14v1.85h-.49V67c0-.55-.17-.78-.55-.78a1.09,1.09,0,0,0-.8.45v2.11h-.49Z"/><path class="cls-5" d="M33.37,68.42l.24-.33a1.33,1.33,0,0,0,.86.35c.38,0,.57-.21.57-.46s-.34-.43-.66-.55-.87-.35-.87-.84.37-.83,1-.83a1.5,1.5,0,0,1,.91.33l-.24.31a1.14,1.14,0,0,0-.66-.25c-.37,0-.54.19-.54.41s.32.39.65.51.89.33.89.88-.38.87-1.07.87A1.72,1.72,0,0,1,33.37,68.42Z"/><path class="cls-5" d="M36.11,64.92a.34.34,0,0,1,.68,0,.34.34,0,0,1-.68,0Zm.09.91h.5v2.92h-.5Z"/><path class="cls-5" d="M37.68,65.83h.41l0,.43h0a1.3,1.3,0,0,1,.91-.5.77.77,0,0,1,.8.56,1.4,1.4,0,0,1,1-.56c.6,0,.88.4.88,1.14v1.85h-.49V67c0-.55-.17-.78-.54-.78a1.06,1.06,0,0,0-.73.45v2.11h-.5V67c0-.55-.17-.78-.54-.78a1.08,1.08,0,0,0-.73.45v2.11h-.49Z"/><path class="cls-5" d="M42.61,67.68V65.83h.5v1.79c0,.54.16.77.55.77s.5-.15.78-.49V65.83h.49v2.92h-.41l0-.46h0a1.23,1.23,0,0,1-1,.53C42.89,68.82,42.61,68.42,42.61,67.68Z"/><path class="cls-5" d="M45.92,68.16V64.48h.49V68.2c0,.15.06.21.14.21h.1l.07.37a.67.67,0,0,1-.28,0C46.07,68.82,45.92,68.58,45.92,68.16Z"/><path class="cls-5" d="M47.53,67.85V66.24H47.1v-.38l.45,0,.06-.81H48v.81h.79v.41H48v1.62c0,.35.12.56.46.56a1,1,0,0,0,.33-.08l.09.37a1.62,1.62,0,0,1-.54.11C47.74,68.82,47.53,68.43,47.53,67.85Z"/><path class="cls-5" d="M49.17,68c0-.63.55-.95,1.79-1.09,0-.37-.13-.73-.6-.73a1.63,1.63,0,0,0-.87.31l-.2-.34a2.21,2.21,0,0,1,1.15-.38c.71,0,1,.47,1,1.2v1.79H51l0-.35h0a1.53,1.53,0,0,1-1,.42A.79.79,0,0,1,49.17,68ZM51,68v-.81c-1,.12-1.31.35-1.31.73s.23.46.51.46A1.19,1.19,0,0,0,51,68Z"/><path class="cls-5" d="M52.37,65.83h.41l0,.42h0a1.41,1.41,0,0,1,1-.49c.61,0,.89.4.89,1.14v1.85h-.5V67c0-.55-.16-.78-.55-.78s-.5.15-.79.45v2.11h-.5Z"/><path class="cls-5" d="M55.44,67.29a1.41,1.41,0,0,1,1.31-1.53c.74,0,1.16.54,1.16,1.37a2.16,2.16,0,0,1,0,.28h-2a1,1,0,0,0,1,1,1.25,1.25,0,0,0,.73-.24l.18.33a1.72,1.72,0,0,1-1,.3A1.4,1.4,0,0,1,55.44,67.29Zm2-.23c0-.59-.27-.91-.72-.91a.9.9,0,0,0-.84.91Z"/><path class="cls-5" d="M58.41,67.29a1.36,1.36,0,1,1,1.35,1.53A1.39,1.39,0,0,1,58.41,67.29Zm2.19,0c0-.66-.34-1.12-.84-1.12s-.84.46-.84,1.12.34,1.12.84,1.12S60.6,68,60.6,67.29Z"/><path class="cls-5" d="M61.84,67.68V65.83h.5v1.79c0,.54.16.77.55.77s.5-.15.78-.49V65.83h.49v2.92h-.41l0-.46h0a1.23,1.23,0,0,1-1,.53C62.12,68.82,61.84,68.42,61.84,67.68Z"/><path class="cls-5" d="M64.82,68.42l.25-.33a1.33,1.33,0,0,0,.86.35c.38,0,.57-.21.57-.46s-.35-.43-.67-.55-.87-.35-.87-.84.38-.83,1-.83a1.45,1.45,0,0,1,.9.33l-.23.31a1.15,1.15,0,0,0-.67-.25c-.36,0-.53.19-.53.41s.31.39.64.51.89.33.89.88-.37.87-1.06.87A1.77,1.77,0,0,1,64.82,68.42Z"/><path class="cls-5" d="M67.66,68.16V64.48h.49V68.2c0,.15.07.21.14.21h.11l.07.37a.76.76,0,0,1-.29,0C67.81,68.82,67.66,68.58,67.66,68.16Z"/><path class="cls-5" d="M68.9,69.94l.09-.39a.78.78,0,0,0,.23,0c.32,0,.53-.27.65-.63l.07-.22-1.17-2.92h.51l.59,1.62c.09.25.19.55.29.82h0c.08-.27.17-.57.25-.82L71,65.83h.48L70.33,69c-.21.58-.51,1-1.09,1A.83.83,0,0,1,68.9,69.94Z"/></svg>