<svg id="Layer_5" data-name="Layer 5" xmlns="http://www.w3.org/2000/svg" viewBox="0 0 283.46 240.94"><defs><style>.cls-1,.cls-2,.cls-4{fill:none;}.cls-1,.cls-4{stroke:#7f3f98;}.cls-1,.cls-2{stroke-miterlimit:10;}.cls-2{stroke:#2e3192;stroke-linecap:round;}.cls-3{fill:#2e3192;}.cls-5{fill:#231f20;}</style></defs><title>cardHSM</title><line class="cls-1" x1="9.08" y1="154.43" x2="22.17" y2="154.43"/><line class="cls-1" x1="9.08" y1="174.89" x2="22.17" y2="174.89"/><line class="cls-2" x1="15.69" y1="172.26" x2="15.69" y2="158.02"/><polygon class="cls-3" points="12.65 171.85 18.72 171.85 15.69 174.89 12.65 171.85"/><polygon class="cls-3" points="18.18 158.75 15.69 154.43 13.19 158.75 18.18 158.75"/><ellipse class="cls-4" cx="53.23" cy="128.53" rx="13.24" ry="12.85"/><line class="cls-1" x1="24.57" y1="158.16" x2="44.61" y2="138.11"/><path class="cls-5" d="M5.3,181.5c1.16-1.15,1.8-1.84,1.8-2.46a.67.67,0,0,0-.72-.75,1.11,1.11,0,0,0-.81.46l-.29-.28a1.5,1.5,0,0,1,1.16-.58A1.07,1.07,0,0,1,7.59,179c0,.72-.66,1.43-1.56,2.38.2,0,.44,0,.64,0H7.78v.43H5.3Z"/><path class="cls-5" d="M8.57,180.16v-2.31h.5v2.33c0,.94.4,1.24.91,1.24s.94-.3.94-1.24v-2.33h.48v2.31c0,1.27-.61,1.7-1.42,1.7S8.57,181.43,8.57,180.16Z"/><path class="cls-5" d="M13.66,177.85h2.27v.43H14.16v1.32h1.5V180h-1.5v1.76h-.5Z"/><path class="cls-5" d="M16.27,180.33a1.37,1.37,0,1,1,1.36,1.53A1.4,1.4,0,0,1,16.27,180.33Zm2.2,0c0-.66-.34-1.12-.84-1.12s-.85.46-.85,1.12.34,1.12.85,1.12S18.47,181,18.47,180.33Z"/><path class="cls-5" d="M19.74,178.87h.41l0,.53h0a1,1,0,0,1,.83-.6.71.71,0,0,1,.31.06l-.09.43a.88.88,0,0,0-.29,0c-.24,0-.54.17-.73.67v1.87h-.5Z"/><path class="cls-5" d="M21.83,178.87h.4l0,.43h0a1.3,1.3,0,0,1,.91-.5.76.76,0,0,1,.8.56,1.38,1.38,0,0,1,1-.56c.6,0,.89.4.89,1.14v1.85h-.49V180c0-.54-.17-.77-.55-.77a1.08,1.08,0,0,0-.73.45v2.11h-.49V180c0-.54-.17-.77-.54-.77a1.08,1.08,0,0,0-.73.45v2.11h-.49Z"/><path class="cls-5" d="M8.36,185.05h2.27v.43H8.86v1.32h1.5v.43H8.86V189h-.5Z"/><path class="cls-5" d="M10.89,188.23c0-.63.55-.95,1.79-1.09,0-.37-.13-.73-.6-.73a1.63,1.63,0,0,0-.87.31l-.2-.34a2.21,2.21,0,0,1,1.15-.38c.71,0,1,.47,1,1.2V189h-.41l0-.35h0a1.58,1.58,0,0,1-1,.42A.79.79,0,0,1,10.89,188.23Zm1.79.05v-.81c-1,.11-1.31.35-1.31.73s.23.46.51.46A1.19,1.19,0,0,0,12.68,188.28Z"/><path class="cls-5" d="M13.88,187.53a1.41,1.41,0,0,1,1.4-1.53,1.23,1.23,0,0,1,.85.34l-.25.33a.86.86,0,0,0-.58-.26c-.53,0-.91.46-.91,1.12s.36,1.12.9,1.12a1.05,1.05,0,0,0,.68-.29l.22.33a1.45,1.45,0,0,1-1,.37A1.37,1.37,0,0,1,13.88,187.53Z"/><path class="cls-5" d="M16.86,188.09v-1.61h-.44v-.38l.46,0,.06-.81h.41v.81h.79v.41h-.79v1.62c0,.35.12.56.45.56a.94.94,0,0,0,.33-.08l.1.37a1.68,1.68,0,0,1-.54.11C17.07,189.06,16.86,188.67,16.86,188.09Z"/><path class="cls-5" d="M18.5,187.53a1.36,1.36,0,1,1,1.35,1.53A1.39,1.39,0,0,1,18.5,187.53Zm2.19,0c0-.66-.34-1.12-.84-1.12s-.84.46-.84,1.12.34,1.12.84,1.12S20.69,188.2,20.69,187.53Z"/><path class="cls-5" d="M22,186.07h.4l.05.53h0a1,1,0,0,1,.83-.6.71.71,0,0,1,.31.06l-.09.43a.86.86,0,0,0-.28,0c-.25,0-.54.17-.74.67V189H22Z"/></svg>