<svg id="Layer_7" data-name="Layer 7" xmlns="http://www.w3.org/2000/svg" viewBox="0 0 566.93 354.33"><defs><style>.cls-1,.cls-2,.cls-3{fill:none;}.cls-1,.cls-3{stroke:#7f3f98;}.cls-1,.cls-2{stroke-width:2px;}.cls-2{stroke:#2e3192;}.cls-2,.cls-3{stroke-linecap:round;}.cls-3{stroke-miterlimit:10;stroke-width:3px;}.cls-4{fill:#231f20;}</style></defs><title>card</title><path class="cls-1" d="M104,181.49h.36a9.07,9.07,0,1,1-3.78.79m3.42-.79-9.82,16.42a12.55,12.55,0,0,0,8.42,5.08v22a1.71,1.71,0,1,0,3.41,0v-2.55h4.92a1.72,1.72,0,0,0,0-3.43H106v-2.35h2.87a1.72,1.72,0,1,0,0-3.43H106V203a12.54,12.54,0,1,0-4-24.76m-7.82,19.68-1.38-2.45,5.61-16a12.48,12.48,0,0,0-6.61,11h0a12.34,12.34,0,0,0,1,4.93"/><path class="cls-1" d="M92.81,195.46h-.35a9.09,9.09,0,1,1,3.74-.8m-3.39.32,3.39-.79,2.14,3.22M91.26,222a1.67,1.67,0,0,0,1.2.5,1.71,1.71,0,0,0,1.71-1.71v-2.55h4.92a1.72,1.72,0,0,0,0-3.43H94.17v-2.35H97A1.72,1.72,0,0,0,97,209H94.17V198.78l.62-.1m3.55-1.26A12.53,12.53,0,1,0,80,186.32h0a12.6,12.6,0,0,0,1.78,6.46"/><path class="cls-2" d="M81.9,193l-3-.8-15.21,4.08v17.42s0,6.48,4.71,10.47c3.71,3.15,10.52,6.3,10.54,6.29a0,0,0,0,0,0,0,52.55,52.55,0,0,0,10.51-6.27c4.71-4,4.71-10.47,4.71-10.47V196.32L81.9,193"/><path class="cls-2" d="M71.34,209.81l4.73,6.43,12.3-11.91"/><circle class="cls-3" cx="222.6" cy="202.15" r="25.51"/><line class="cls-3" x1="126.22" y1="202.4" x2="197.09" y2="202.4"/><path class="cls-4" d="M33.36,239h.94l2.22,6.56h-.88L34.5,241.9c-.24-.73-.45-1.45-.66-2.21h0c-.2.76-.42,1.48-.65,2.21L32,245.57h-.85Zm-1,3.89h3v.67h-3Z"/><path class="cls-4" d="M37.34,244.59v-6.14h.82v6.2c0,.25.11.35.23.35l.18,0,.11.63a1.38,1.38,0,0,1-.47.08C37.59,245.69,37.34,245.29,37.34,244.59Z"/><path class="cls-4" d="M39.89,244.59v-6.14h.82v6.2c0,.25.11.35.23.35l.18,0,.11.63a1.38,1.38,0,0,1-.47.08C40.14,245.69,39.89,245.29,39.89,244.59Z"/><path class="cls-4" d="M44.51,239h1.88c1.47,0,2.46.49,2.46,1.93s-1,2-2.42,2H45.35v2.61h-.84Zm1.81,3.28c1.15,0,1.69-.42,1.69-1.35s-.58-1.26-1.73-1.26h-.93v2.61Z"/><path class="cls-4" d="M50.1,240.71h.68l.06.88h0a1.69,1.69,0,0,1,1.38-1,1,1,0,0,1,.52.1l-.15.72a1.45,1.45,0,0,0-.47-.08c-.41,0-.9.29-1.23,1.12v3.12H50.1Z"/><path class="cls-4" d="M53.42,239.18a.52.52,0,0,1,.56-.53.53.53,0,0,1,.57.53.54.54,0,0,1-.57.53A.53.53,0,0,1,53.42,239.18Zm.15,1.53h.82v4.86h-.82Z"/><path class="cls-4" d="M55.33,240.71h.84l.92,2.76c.15.47.31,1,.45,1.43h0c.15-.46.3-1,.45-1.43l.92-2.76h.8L58,245.57h-1Z"/><path class="cls-4" d="M60.19,244.3c0-1.05.92-1.58,3-1.81,0-.62-.21-1.22-1-1.22a2.61,2.61,0,0,0-1.45.52l-.32-.57a3.54,3.54,0,0,1,1.9-.63c1.19,0,1.69.79,1.69,2v3h-.68l-.07-.58h0a2.59,2.59,0,0,1-1.6.7A1.33,1.33,0,0,1,60.19,244.3Zm3,.08V243c-1.63.2-2.18.6-2.18,1.22s.38.77.85.77A2,2,0,0,0,63.18,244.38Z"/><path class="cls-4" d="M65.54,244.06v-2.68h-.72v-.62l.76,0,.1-1.36h.68v1.36h1.32v.67H66.36v2.7c0,.59.19.94.75.94a1.76,1.76,0,0,0,.56-.13l.16.62a3.07,3.07,0,0,1-.91.18C65.89,245.69,65.54,245,65.54,244.06Z"/><path class="cls-4" d="M68.28,243.14a2.33,2.33,0,0,1,2.18-2.55c1.24,0,1.94.89,1.94,2.28a2.92,2.92,0,0,1,0,.46H69.09A1.62,1.62,0,0,0,70.7,245a2.1,2.1,0,0,0,1.21-.39l.3.54a2.88,2.88,0,0,1-1.61.51A2.33,2.33,0,0,1,68.28,243.14Zm3.39-.39c0-1-.44-1.51-1.2-1.51a1.49,1.49,0,0,0-1.39,1.51Z"/><path class="cls-4" d="M75.67,239h.84v3.29h0L79.26,239h.94l-2,2.5,2.37,4.06h-.93l-2-3.41-1.12,1.33v2.08h-.84Z"/><path class="cls-4" d="M81,243.14a2.33,2.33,0,0,1,2.18-2.55c1.24,0,1.94.89,1.94,2.28a2.92,2.92,0,0,1,0,.46H81.77a1.62,1.62,0,0,0,1.61,1.7,2.1,2.1,0,0,0,1.21-.39l.29.54a2.82,2.82,0,0,1-1.6.51A2.33,2.33,0,0,1,81,243.14Zm3.39-.39c0-1-.44-1.51-1.2-1.51a1.49,1.49,0,0,0-1.39,1.51Z"/><path class="cls-4" d="M85.84,247.56l.16-.66a1.06,1.06,0,0,0,.37.08c.55,0,.89-.44,1.1-1l.11-.35-2-4.87h.84l1,2.69c.15.42.31.92.47,1.37h0c.14-.45.27-.94.41-1.37l.86-2.69h.81L88.23,246c-.35,1-.85,1.69-1.82,1.69A1.57,1.57,0,0,1,85.84,247.56Z"/><path class="cls-4" d="M90.46,245l.4-.54a2.19,2.19,0,0,0,1.44.58c.63,0,1-.34,1-.76s-.57-.72-1.11-.92-1.45-.58-1.45-1.4.62-1.38,1.68-1.38a2.53,2.53,0,0,1,1.51.54l-.4.53a1.78,1.78,0,0,0-1.1-.43c-.62,0-.9.32-.9.69s.53.64,1.08.85c.7.26,1.48.55,1.48,1.47s-.62,1.45-1.77,1.45A2.91,2.91,0,0,1,90.46,245Z"/><path class="cls-4" d="M96.88,244.3c0-1.05.92-1.58,3-1.81,0-.62-.21-1.22-1-1.22a2.61,2.61,0,0,0-1.45.52l-.33-.57a3.61,3.61,0,0,1,1.91-.63c1.19,0,1.69.79,1.69,2v3H100l-.07-.58h0a2.59,2.59,0,0,1-1.6.7A1.33,1.33,0,0,1,96.88,244.3Zm3,.08V243c-1.63.2-2.18.6-2.18,1.22s.37.77.85.77A2,2,0,0,0,99.87,244.38Z"/><path class="cls-4" d="M102.22,240.71h.68l.07.88h0a1.69,1.69,0,0,1,1.38-1,1,1,0,0,1,.52.1l-.15.72a1.45,1.45,0,0,0-.47-.08c-.41,0-.9.29-1.23,1.12v3.12h-.83Z"/><path class="cls-4" d="M105.23,243.14a2.34,2.34,0,0,1,2.19-2.55c1.24,0,1.94.89,1.94,2.28a2.92,2.92,0,0,1,0,.46h-3.27a1.62,1.62,0,0,0,1.61,1.7,2.1,2.1,0,0,0,1.21-.39l.29.54a2.82,2.82,0,0,1-1.6.51A2.33,2.33,0,0,1,105.23,243.14Zm3.4-.39c0-1-.44-1.51-1.2-1.51a1.49,1.49,0,0,0-1.39,1.51Z"/><path class="cls-4" d="M112.19,243.14a2.36,2.36,0,0,1,2.34-2.55,2,2,0,0,1,1.42.57l-.42.54a1.42,1.42,0,0,0-1-.43c-.88,0-1.53.76-1.53,1.87s.61,1.86,1.51,1.86a1.76,1.76,0,0,0,1.14-.48l.35.55a2.33,2.33,0,0,1-1.57.62A2.29,2.29,0,0,1,112.19,243.14Z"/><path class="cls-4" d="M117.11,240.71h.68l.07.88h0a1.69,1.69,0,0,1,1.38-1,1,1,0,0,1,.52.1l-.15.72a1.45,1.45,0,0,0-.47-.08c-.41,0-.91.29-1.23,1.12v3.12h-.83Z"/><path class="cls-4" d="M120.12,243.14a2.34,2.34,0,0,1,2.19-2.55c1.24,0,1.94.89,1.94,2.28a2.92,2.92,0,0,1,0,.46h-3.27a1.62,1.62,0,0,0,1.61,1.7,2.1,2.1,0,0,0,1.21-.39l.29.54a2.82,2.82,0,0,1-1.6.51A2.33,2.33,0,0,1,120.12,243.14Zm3.4-.39c0-1-.44-1.51-1.2-1.51a1.49,1.49,0,0,0-1.39,1.51Z"/><path class="cls-4" d="M125,244.3c0-1.05.92-1.58,3-1.81,0-.62-.21-1.22-1-1.22a2.61,2.61,0,0,0-1.44.52l-.33-.57a3.61,3.61,0,0,1,1.91-.63c1.19,0,1.69.79,1.69,2v3h-.68l-.07-.58h0a2.59,2.59,0,0,1-1.6.7A1.33,1.33,0,0,1,125,244.3Zm3,.08V243c-1.63.2-2.18.6-2.18,1.22s.37.77.85.77A2,2,0,0,0,128,244.38Z"/><path class="cls-4" d="M130.35,244.06v-2.68h-.72v-.62l.76,0,.09-1.36h.69v1.36h1.32v.67h-1.32v2.7c0,.59.19.94.75.94a1.83,1.83,0,0,0,.56-.13l.15.62a2.94,2.94,0,0,1-.9.18C130.7,245.69,130.35,245,130.35,244.06Z"/><path class="cls-4" d="M133.08,243.14a2.34,2.34,0,0,1,2.19-2.55c1.24,0,1.94.89,1.94,2.28a2.92,2.92,0,0,1,0,.46H133.9a1.62,1.62,0,0,0,1.61,1.7,2.1,2.1,0,0,0,1.21-.39l.29.54a2.82,2.82,0,0,1-1.6.51A2.33,2.33,0,0,1,133.08,243.14Zm3.4-.39c0-1-.44-1.51-1.2-1.51a1.49,1.49,0,0,0-1.39,1.51Z"/><path class="cls-4" d="M138.06,243.14a2.29,2.29,0,0,1,2.1-2.55,2,2,0,0,1,1.36.56l0-.83v-1.87h.82v7.12h-.68l-.07-.58h0a2.12,2.12,0,0,1-1.47.7C138.85,245.69,138.06,244.76,138.06,243.14Zm3.43,1.19v-2.55a1.76,1.76,0,0,0-1.19-.5c-.77,0-1.39.75-1.39,1.86s.48,1.85,1.33,1.85A1.66,1.66,0,0,0,141.49,244.33Z"/><path class="cls-4" d="M143.61,246.78a1.36,1.36,0,0,0,.9-1.24l-.09-.74.4.6a.48.48,0,0,1-.41.17.56.56,0,0,1-.6-.57.57.57,0,0,1,.61-.57c.44,0,.7.36.7,1a2,2,0,0,1-1.31,1.87Z"/><path class="cls-4" d="M27.38,257l.41-.54a2.19,2.19,0,0,0,1.43.58c.64,0,1-.34,1-.76s-.58-.72-1.11-.92-1.45-.58-1.45-1.4.62-1.38,1.67-1.38a2.48,2.48,0,0,1,1.51.54l-.39.53a1.8,1.8,0,0,0-1.11-.43c-.61,0-.89.32-.89.69s.53.64,1.08.85c.7.26,1.48.55,1.48,1.47s-.63,1.45-1.77,1.45A3,3,0,0,1,27.38,257Z"/><path class="cls-4" d="M32.06,256.06v-2.68h-.73v-.62l.76,0,.1-1.36h.69v1.36h1.31v.67H32.88v2.7c0,.59.19.94.75.94a1.77,1.77,0,0,0,.55-.13l.16.62a3,3,0,0,1-.9.18C32.41,257.69,32.06,257,32.06,256.06Z"/><path class="cls-4" d="M34.79,255.14A2.27,2.27,0,1,1,37,257.69,2.32,2.32,0,0,1,34.79,255.14Zm3.65,0c0-1.11-.56-1.87-1.4-1.87s-1.4.76-1.4,1.87S36.21,257,37,257,38.44,256.26,38.44,255.14Z"/><path class="cls-4" d="M40.57,252.71h.68l.07.88h0a1.68,1.68,0,0,1,1.38-1,1.08,1.08,0,0,1,.52.1l-.16.72a1.36,1.36,0,0,0-.47-.08c-.41,0-.9.29-1.23,1.12v3.12h-.82Z"/><path class="cls-4" d="M43.58,255.14a2.34,2.34,0,0,1,2.18-2.55c1.24,0,1.94.89,1.94,2.28a3,3,0,0,1,0,.46H44.39A1.62,1.62,0,0,0,46,257a2.13,2.13,0,0,0,1.21-.39l.29.54a2.82,2.82,0,0,1-1.6.51A2.33,2.33,0,0,1,43.58,255.14Zm3.4-.39c0-1-.44-1.51-1.2-1.51a1.49,1.49,0,0,0-1.39,1.51Z"/><path class="cls-4" d="M48.56,255.14a2.29,2.29,0,0,1,2.1-2.55,2,2,0,0,1,1.36.56l0-.83v-1.87h.83v7.12h-.68l-.07-.58h0a2.16,2.16,0,0,1-1.47.7C49.34,257.69,48.56,256.76,48.56,255.14ZM52,256.33v-2.55a1.72,1.72,0,0,0-1.18-.5c-.78,0-1.39.75-1.39,1.86s.48,1.85,1.33,1.85A1.63,1.63,0,0,0,52,256.33Z"/><path class="cls-4" d="M56.15,256.3c0-1.05.91-1.58,3-1.81,0-.62-.21-1.22-1-1.22a2.64,2.64,0,0,0-1.45.52l-.32-.57a3.61,3.61,0,0,1,1.91-.63c1.19,0,1.69.79,1.69,2v3h-.68l-.07-.58h0a2.59,2.59,0,0,1-1.61.7A1.32,1.32,0,0,1,56.15,256.3Zm3,.08V255c-1.62.2-2.17.6-2.17,1.22s.37.77.85.77A2,2,0,0,0,59.13,256.38Z"/><path class="cls-4" d="M61.49,252.71h.68l.07.7h0a2.29,2.29,0,0,1,1.63-.82c1,0,1.48.66,1.48,1.9v3.08h-.82v-3c0-.9-.27-1.29-.92-1.29a1.88,1.88,0,0,0-1.33.75v3.52h-.82Z"/><path class="cls-4" d="M66.62,255.14a2.29,2.29,0,0,1,2.1-2.55,2,2,0,0,1,1.36.56l0-.83v-1.87h.83v7.12h-.68l-.07-.58h0a2.16,2.16,0,0,1-1.47.7C67.4,257.69,66.62,256.76,66.62,255.14ZM70,256.33v-2.55a1.72,1.72,0,0,0-1.18-.5c-.78,0-1.39.75-1.39,1.86S68,257,68.8,257A1.63,1.63,0,0,0,70,256.33Z"/><path class="cls-4" d="M74.51,252.71h.68l.07.7h0a2.14,2.14,0,0,1,1.51-.82,1.28,1.28,0,0,1,1.34.92,2.3,2.3,0,0,1,1.6-.92c1,0,1.48.66,1.48,1.9v3.08H80.4v-3c0-.9-.29-1.29-.91-1.29a1.79,1.79,0,0,0-1.21.75v3.52h-.82v-3c0-.9-.29-1.29-.91-1.29a1.82,1.82,0,0,0-1.22.75v3.52h-.82Z"/><path class="cls-4" d="M82.5,256.3c0-1.05.91-1.58,3-1.81,0-.62-.21-1.22-1-1.22a2.64,2.64,0,0,0-1.45.52l-.32-.57a3.61,3.61,0,0,1,1.91-.63c1.18,0,1.69.79,1.69,2v3h-.68l-.07-.58h0a2.59,2.59,0,0,1-1.61.7A1.32,1.32,0,0,1,82.5,256.3Zm3,.08V255c-1.62.2-2.17.6-2.17,1.22s.37.77.85.77A2,2,0,0,0,85.48,256.38Z"/><path class="cls-4" d="M87.84,252.71h.68l.07.7h0a2.29,2.29,0,0,1,1.63-.82c1,0,1.48.66,1.48,1.9v3.08h-.82v-3c0-.9-.28-1.29-.92-1.29a1.88,1.88,0,0,0-1.33.75v3.52h-.82Z"/><path class="cls-4" d="M93,256.3c0-1.05.91-1.58,3-1.81,0-.62-.21-1.22-1-1.22a2.64,2.64,0,0,0-1.45.52l-.32-.57a3.61,3.61,0,0,1,1.91-.63c1.18,0,1.69.79,1.69,2v3h-.68l-.07-.58h0a2.59,2.59,0,0,1-1.61.7A1.32,1.32,0,0,1,93,256.3Zm3,.08V255c-1.62.2-2.17.6-2.17,1.22s.37.77.85.77A2,2,0,0,0,96,256.38Z"/><path class="cls-4" d="M98,258.5a1.36,1.36,0,0,1,.72-1.1v0a.89.89,0,0,1-.44-.8,1.15,1.15,0,0,1,.54-.9v0a1.65,1.65,0,0,1-.63-1.3,1.72,1.72,0,0,1,1.82-1.73,1.84,1.84,0,0,1,.68.12h1.7v.63h-1a1.41,1.41,0,0,1,.4,1A1.67,1.67,0,0,1,100,256a1.7,1.7,0,0,1-.73-.17.72.72,0,0,0-.3.57c0,.31.2.53.85.53h.94c1.13,0,1.7.36,1.7,1.16s-1,1.68-2.46,1.68C98.8,259.8,98,259.34,98,258.5Zm3.66-.26c0-.44-.34-.6-1-.6h-.84a2.83,2.83,0,0,1-.63-.07,1,1,0,0,0-.5.81c0,.53.53.86,1.41.86S101.64,258.75,101.64,258.24Zm-.62-3.92a1,1,0,1,0-2.06,0,1,1,0,1,0,2.06,0Z"/><path class="cls-4" d="M102.89,255.14a2.34,2.34,0,0,1,2.18-2.55c1.24,0,1.94.89,1.94,2.28a2.07,2.07,0,0,1,0,.46H103.7a1.62,1.62,0,0,0,1.62,1.7,2.13,2.13,0,0,0,1.21-.39l.29.54a2.85,2.85,0,0,1-1.6.51A2.33,2.33,0,0,1,102.89,255.14Zm3.4-.39c0-1-.44-1.51-1.2-1.51a1.51,1.51,0,0,0-1.4,1.51Z"/><path class="cls-4" d="M107.86,255.14a2.3,2.3,0,0,1,2.11-2.55,2,2,0,0,1,1.36.56l0-.83v-1.87h.83v7.12h-.68l-.07-.58h0a2.16,2.16,0,0,1-1.47.7C108.65,257.69,107.86,256.76,107.86,255.14Zm3.43,1.19v-2.55a1.72,1.72,0,0,0-1.18-.5c-.78,0-1.4.75-1.4,1.86s.49,1.85,1.34,1.85A1.63,1.63,0,0,0,111.29,256.33Z"/><path class="cls-4" d="M115.22,257l.41-.54a2.19,2.19,0,0,0,1.43.58c.64,0,1-.34,1-.76s-.58-.72-1.11-.92c-.69-.25-1.45-.58-1.45-1.4s.62-1.38,1.67-1.38a2.48,2.48,0,0,1,1.51.54l-.39.53a1.83,1.83,0,0,0-1.11-.43c-.61,0-.89.32-.89.69s.52.64,1.08.85,1.48.55,1.48,1.47-.63,1.45-1.78,1.45A2.93,2.93,0,0,1,115.22,257Z"/><path class="cls-4" d="M119.59,255.14a2.33,2.33,0,0,1,2.18-2.55c1.24,0,1.94.89,1.94,2.28a2.07,2.07,0,0,1,0,.46H120.4A1.62,1.62,0,0,0,122,257a2.1,2.1,0,0,0,1.2-.39l.3.54a2.85,2.85,0,0,1-1.6.51A2.33,2.33,0,0,1,119.59,255.14Zm3.4-.39c0-1-.44-1.51-1.2-1.51a1.49,1.49,0,0,0-1.4,1.51Z"/><path class="cls-4" d="M124.55,255.14a2.35,2.35,0,0,1,2.34-2.55,2,2,0,0,1,1.42.57l-.42.54a1.47,1.47,0,0,0-1-.43c-.88,0-1.52.76-1.52,1.87S126,257,126.9,257a1.74,1.74,0,0,0,1.14-.48l.36.55a2.37,2.37,0,0,1-1.57.62A2.29,2.29,0,0,1,124.55,255.14Z"/><path class="cls-4" d="M129.4,255.79v-3.08h.83v3c0,.9.27,1.29.91,1.29s.84-.24,1.3-.82v-3.44h.83v4.86h-.68l-.07-.76h0a2.07,2.07,0,0,1-1.6.88C129.86,257.69,129.4,257,129.4,255.79Z"/><path class="cls-4" d="M134.91,252.71h.68l.07.88h0a1.69,1.69,0,0,1,1.39-1,1,1,0,0,1,.51.1l-.15.72a1.45,1.45,0,0,0-.47-.08c-.41,0-.9.29-1.23,1.12v3.12h-.82Z"/><path class="cls-4" d="M137.92,255.14a2.33,2.33,0,0,1,2.18-2.55c1.24,0,1.94.89,1.94,2.28a2.07,2.07,0,0,1,0,.46h-3.27a1.62,1.62,0,0,0,1.61,1.7,2.1,2.1,0,0,0,1.21-.39l.3.54a2.88,2.88,0,0,1-1.61.51A2.33,2.33,0,0,1,137.92,255.14Zm3.39-.39c0-1-.43-1.51-1.19-1.51a1.49,1.49,0,0,0-1.4,1.51Z"/><path class="cls-4" d="M143.24,256.59v-6.14h.82v6.2c0,.25.11.35.23.35l.18,0,.11.63a1.33,1.33,0,0,1-.47.08C143.49,257.69,143.24,257.29,143.24,256.59Z"/><path class="cls-4" d="M145.3,259.56l.16-.66a1.11,1.11,0,0,0,.37.08c.55,0,.9-.44,1.1-1.05l.11-.35-1.95-4.87h.85l1,2.69c.15.42.31.92.47,1.37h0c.14-.45.28-.94.41-1.37l.87-2.69h.8L147.69,258c-.34,1-.85,1.69-1.82,1.69A1.61,1.61,0,0,1,145.3,259.56Z"/><path class="cls-4" d="M57.32,264.71h.84l.72,2.8.29,1.36h0c.1-.46.21-.9.33-1.36l.75-2.8h.8l.76,2.8c.12.47.22.9.33,1.36h0c.11-.46.2-.89.31-1.36l.7-2.8H64l-1.31,4.86h-1L61,267c-.12-.46-.21-.91-.33-1.4h0c-.1.49-.2.95-.33,1.41l-.68,2.6h-1Z"/><path class="cls-4" d="M64.93,263.18a.52.52,0,0,1,.56-.53.53.53,0,0,1,.57.53.54.54,0,0,1-.57.53A.53.53,0,0,1,64.93,263.18Zm.15,1.53h.82v4.86h-.82Z"/><path class="cls-4" d="M67.68,268.06v-2.68H67v-.62l.76-.05.1-1.36h.68v1.36h1.32v.67H68.5v2.7c0,.59.19.94.75.94a1.76,1.76,0,0,0,.56-.13l.16.62a3.07,3.07,0,0,1-.91.18C68,269.69,67.68,269,67.68,268.06Z"/><path class="cls-4" d="M70.92,262.45h.82v1.94l0,1a2.3,2.3,0,0,1,1.61-.8c1,0,1.49.66,1.49,1.9v3.08H74v-3c0-.9-.27-1.29-.91-1.29s-.84.26-1.33.75v3.52h-.82Z"/><path class="cls-4" d="M76.21,263.18a.52.52,0,0,1,.56-.53.53.53,0,0,1,.57.53.54.54,0,0,1-.57.53A.53.53,0,0,1,76.21,263.18Zm.15,1.53h.82v4.86h-.82Z"/><path class="cls-4" d="M78.82,264.71h.68l.06.7h0a2.29,2.29,0,0,1,1.63-.82c1,0,1.49.66,1.49,1.9v3.08h-.83v-3c0-.9-.27-1.29-.91-1.29s-.84.26-1.33.75v3.52h-.82Z"/><path class="cls-4" d="M86.43,268.06v-2.68h-.72v-.62l.76-.05.1-1.36h.68v1.36h1.32v.67H87.25v2.7c0,.59.19.94.75.94a1.76,1.76,0,0,0,.56-.13l.16.62a3.07,3.07,0,0,1-.91.18C86.78,269.69,86.43,269,86.43,268.06Z"/><path class="cls-4" d="M89.67,262.45h.82v1.94l0,1a2.28,2.28,0,0,1,1.61-.8c1,0,1.48.66,1.48,1.9v3.08h-.82v-3c0-.9-.27-1.29-.91-1.29a1.84,1.84,0,0,0-1.33.75v3.52h-.82Z"/><path class="cls-4" d="M94.74,267.14a2.34,2.34,0,0,1,2.19-2.55c1.24,0,1.94.89,1.94,2.28a2.92,2.92,0,0,1,0,.46H95.56a1.62,1.62,0,0,0,1.61,1.7,2.1,2.1,0,0,0,1.21-.39l.29.54a2.82,2.82,0,0,1-1.6.51A2.33,2.33,0,0,1,94.74,267.14Zm3.4-.39c0-1-.44-1.51-1.2-1.51a1.49,1.49,0,0,0-1.39,1.51Z"/><path class="cls-4" d="M101.7,267.14a2.36,2.36,0,0,1,2.34-2.55,2,2,0,0,1,1.42.57l-.42.54a1.42,1.42,0,0,0-1-.43c-.88,0-1.53.76-1.53,1.87s.61,1.86,1.51,1.86a1.76,1.76,0,0,0,1.14-.48l.35.55a2.33,2.33,0,0,1-1.57.62A2.29,2.29,0,0,1,101.7,267.14Z"/><path class="cls-4" d="M106.22,268.3c0-1.05.92-1.58,3-1.81,0-.62-.21-1.22-1-1.22a2.61,2.61,0,0,0-1.45.52l-.33-.57a3.61,3.61,0,0,1,1.91-.63c1.19,0,1.69.79,1.69,2v3h-.68l-.07-.58h0a2.59,2.59,0,0,1-1.6.7A1.33,1.33,0,0,1,106.22,268.3Zm3,.08V267c-1.63.2-2.18.6-2.18,1.22s.37.77.85.77A2,2,0,0,0,109.21,268.38Z"/><path class="cls-4" d="M111.56,264.71h.68l.07.88h0a1.69,1.69,0,0,1,1.38-1,1,1,0,0,1,.52.1l-.15.72a1.45,1.45,0,0,0-.47-.08c-.41,0-.9.29-1.23,1.12v3.12h-.83Z"/><path class="cls-4" d="M114.59,267.14a2.29,2.29,0,0,1,2.1-2.55,2,2,0,0,1,1.36.56l0-.83v-1.87h.82v7.12h-.68l-.07-.58h0a2.12,2.12,0,0,1-1.47.7C115.38,269.69,114.59,268.76,114.59,267.14Zm3.43,1.19v-2.55a1.76,1.76,0,0,0-1.19-.5c-.78,0-1.39.75-1.39,1.86s.48,1.85,1.33,1.85A1.66,1.66,0,0,0,118,268.33Z"/></svg>