
<svg xmlns="http://www.w3.org/2000/svg" xmlns:xlink="http://www.w3.org/1999/xlink" viewBox="0 0 170 24.07"><defs><style>.cls-1{font-size:18px;fill:#21409a;font-family:Lowvetica;}.cls-2{fill-rule:evenodd;fill:url(#linear-gradient);}</style><linearGradient id="linear-gradient" x1="1.42" y1="13.45" x2="29.89" y2="13.45" gradientUnits="userSpaceOnUse"><stop offset="0" stop-color="#7f3f98"/><stop offset="1" stop-color="#21409a"/></linearGradient></defs><title>logo</title><g id="Layer_1" data-name="Layer 1"><text class="cls-1" transform="translate(37.1 19.93)">V A U L T A V O</text></g><g id="Layer_3" data-name="Layer 3"><path class="cls-2" d="M1.67,4.31a2.08,2.08,0,0,1,.5-2.6,1.47,1.47,0,0,1,2.22.59,2.09,2.09,0,0,1-.51,2.6L3.77,5A29.5,29.5,0,0,0,7.13,15.1a23.24,23.24,0,0,0,7.18,8.55c3.23-2.27,6.27-8.64,6.85-10.94a31.82,31.82,0,0,0,1.61-9.16l1.33-1a33.16,33.16,0,0,1-1.69,10.7c-1.3,4-4.27,9.71-8.06,12.17-3.41-2-6.34-5.76-8.35-9.5A31,31,0,0,1,2.45,5.06a1.66,1.66,0,0,1-.78-.75Zm.79-.59A.6.6,0,0,0,3.38,4a.86.86,0,0,0,.21-1.08.62.62,0,0,0-.92-.24A.86.86,0,0,0,2.46,3.72Zm5.89,0A.6.6,0,0,0,9.27,4a.88.88,0,0,0,.21-1.08.62.62,0,0,0-.92-.24A.85.85,0,0,0,8.35,3.72Zm6,11.51c-.54-.69.13.21-.43-.64A28.79,28.79,0,0,1,9.74,4.88l.11-.09a2.11,2.11,0,0,0,.29-2.64,1.46,1.46,0,0,0-2.26-.34,2.11,2.11,0,0,0-.29,2.64,1.63,1.63,0,0,0,.84.67,30.11,30.11,0,0,0,4.42,10.43,22.13,22.13,0,0,0,1.48,2.05Zm8.14,10.25a29.76,29.76,0,0,0,6.25-11.8,33.33,33.33,0,0,0,1.09-10.8L28.54,4a32.31,32.31,0,0,1-1.09,9.26c-.46,2.34-3.87,9.74-7,12.26h0" transform="translate(-1.42 -1.42)"/></g></svg>