<svg xmlns="http://www.w3.org/2000/svg" viewBox="0 0 637.8 570.93"><defs><style>.cls-1,.cls-10,.cls-2,.cls-3,.cls-5,.cls-9{fill:none}.cls-1{stroke:#7f3f98;stroke-width:3px}.cls-1,.cls-9{stroke-linecap:round}.cls-1,.cls-2,.cls-3,.cls-5{stroke-miterlimit:10}.cls-10,.cls-2,.cls-3,.cls-5,.cls-9{stroke:#21409a}.cls-2{stroke-width:4px}.cls-10,.cls-3,.cls-9{stroke-width:2px}.cls-4,.cls-7{fill:#21409a}.cls-7{fill-rule:evenodd}.cls-10{stroke-linejoin:round}</style></defs><g id="Layer_1" data-name="Layer 1"><path id="path1" class="cls-1" d="M282.14 95.83h-60.78l-50.19 41.88v212.88"/><path id="path2" class="cls-1" d="M282.14 95.83H221.37l-50.2 41.88v32.38l23.3 23.3v133.24"/><path id="path3" class="cls-1" d="M282.23 113.45h-48.91L192.73 146"/><path id="path4" class="cls-1" d="M282.23 130.72h-48.91l-40.59 32.53"/><path id="path5" class="cls-1" d="M282.23 151h-48.91l-21.74 17.31"/><path id="path6" class="cls-1" d="M360.67 166.42H237.58l-29.88 28.11v76.75"/><path id="path7" class="cls-1" d="M397.29 165.26h56.39"/><path id="path8" class="cls-1" d="M471.11 181.41H246l-19.31 19.71v135.49"/><path id="path9" class="cls-1" d="M242.62 215.15v88.23"/><path id="path10" class="cls-1" d="M259.02 228.2v62"/><path id="path11" class="cls-1" d="M295.51 237.11v-30.78l12.36-13.4h-33l-11.74 12"/><path id="path12" class="cls-1" d="M295.51 243.79v29.89"/><path id="path13" class="cls-1" d="M278.87 228.91v75.36H287l8.47-9.11v-14.24"/><path id="path14" class="cls-1" d="M261.1 322.43h25l22.84-22.66v-83l22.45-24.9h43.7"/><path id="path15" class="cls-1" d="M315.88 313.87l9.46-11.95v-76.58l18.7-19h31"/><path id="path16" class="cls-1" d="M257.88 339.56h46.33"/><path id="path17" class="cls-1" d="M338.51 235.02l15.11-14.64"/><path id="path18" class="cls-1" d="M381.77 191.86h64.61l10.1 11.14"/><path id="path19" class="cls-1" d="M397.29 206.33h56.39"/><path id="path20" class="cls-1" d="M452.2 227h-80.3l-34.06 34v80.8"/><path id="path21" class="cls-1" d="M452.2 247.33h-70.74l-22.36 22.48v72.74"/><path id="path22" class="cls-1" d="M379.93 274.95v67.5"/><path id="path23" class="cls-1" d="M399.74 274.95v67.5"/><path id="path24" class="cls-1" d="M419.89 274.95v19.32"/><path id="path25" class="cls-1" d="M437.59 274.95v19.32"/><path id="path26" class="cls-1" d="M438.07 320.01h-19.32"/><path id="path27" class="cls-1" d="M438.07 337.71h-19.32"/><path id="path28" class="cls-1" d="M457.02 273.15v78.09"/><path id="path29" class="cls-1" d="M472.63 349.67l4.32-8.62.85-1.69V216.59"/><path id="path30" class="cls-1" d="M493.63 170.09v139.49l-20.78 39.51"/><circle class="cls-1" cx="493.5" cy="165.81" r="3.34"/><circle id="circle1" class="cls-1" cx="285.85" cy="96.36" r="3.34"/><circle class="cls-1" cx="285.85" cy="113.45" r="3.34"/><circle class="cls-1" cx="190.06" cy="148.65" r="3.34"/><circle class="cls-1" cx="171.17" cy="353.93" r="3.34"/><circle class="cls-1" cx="194.47" cy="329.76" r="3.34"/><circle class="cls-1" cx="470.58" cy="352.3" r="3.34"/><circle class="cls-1" cx="457.02" cy="355.64" r="3.34"/><circle class="cls-1" cx="285.85" cy="130.72" r="3.34"/><circle class="cls-1" cx="190.06" cy="165.92" r="3.34"/><circle class="cls-1" cx="209.44" cy="170.62" r="3.34"/><circle class="cls-1" cx="285.85" cy="151" r="3.34"/><circle class="cls-1" cx="457.02" cy="226.97" r="3.34"/><circle class="cls-1" cx="457.02" cy="165.26" r="3.34"/><circle class="cls-1" cx="393.95" cy="165.26" r="3.34"/><circle class="cls-1" cx="364.01" cy="166.33" r="3.34"/><circle class="cls-1" cx="378.43" cy="191.86" r="3.34"/><circle class="cls-1" cx="378.43" cy="206.33" r="3.34"/><circle class="cls-1" cx="336.54" cy="238.18" r="3.34"/><circle class="cls-1" cx="356.49" cy="217.7" r="3.34"/><circle class="cls-1" cx="457.02" cy="247.33" r="3.34"/><circle class="cls-1" cx="457.02" cy="269.81" r="3.34"/><circle class="cls-1" cx="399.74" cy="270.54" r="3.34"/><circle class="cls-1" cx="399.74" cy="346.2" r="3.34"/><circle class="cls-1" cx="419.89" cy="270.54" r="3.34"/><circle class="cls-1" cx="419.89" cy="298.02" r="3.34"/><circle class="cls-1" cx="437.59" cy="270.54" r="3.34"/><circle class="cls-1" cx="437.59" cy="298.02" r="3.34"/><circle class="cls-1" cx="442.48" cy="320.01" r="3.34"/><circle class="cls-1" cx="415" cy="320.01" r="3.34"/><circle class="cls-1" cx="442.48" cy="337.71" r="3.34"/><circle class="cls-1" cx="415" cy="337.71" r="3.34"/><circle class="cls-1" cx="379.93" cy="270.54" r="3.34"/><circle class="cls-1" cx="379.93" cy="346.2" r="3.34"/><circle class="cls-1" cx="242.62" cy="211.27" r="3.34"/><circle class="cls-1" cx="261.34" cy="207.74" r="3.34"/><circle class="cls-1" cx="242.62" cy="307.28" r="3.34"/><circle class="cls-1" cx="259.02" cy="224.86" r="3.34"/><circle class="cls-1" cx="259.02" cy="294.1" r="3.34"/><circle class="cls-1" cx="278.87" cy="225.57" r="3.34"/><circle class="cls-1" cx="295.51" cy="240.45" r="3.34"/><circle class="cls-1" cx="295.51" cy="277.58" r="3.34"/><circle class="cls-1" cx="359.1" cy="345.89" r="3.34"/><circle class="cls-1" cx="337.84" cy="344.61" r="3.34"/><circle class="cls-1" cx="207.7" cy="275.54" r="3.34"/><circle class="cls-1" cx="226.65" cy="341.05" r="3.34"/><circle class="cls-1" cx="253.54" cy="339.69" r="3.34"/><circle class="cls-1" cx="256.75" cy="322.56" r="3.34"/><circle class="cls-1" cx="307.55" cy="339.69" r="3.34"/><circle class="cls-1" cx="313.74" cy="316.8" r="3.34"/><circle class="cls-1" cx="474.45" cy="181.41" r="3.34"/><circle class="cls-1" cx="477.26" cy="212.34" r="3.34"/><circle class="cls-1" cx="457.02" cy="206.33" r="3.34"/><circle class="cls-1" cx="393.95" cy="206.33" r="3.34"/></g><g id="Layer_2" data-name="Layer 2"><path class="cls-2" d="M123.04 493.33h392.74l-75.21-137.85H195.58l-1.93 3.56-72.27 134.3 1.66-.01z"/><rect class="cls-2" x="518.65" y="545.81" width="15.07" height="9.73" rx=".65"/><rect class="cls-2" x="104.39" y="545.93" width="15.07" height="9.73" rx=".65"/><rect class="cls-2" x="518.34" y="517.25" width="17.36" height="28.56" rx=".65"/><rect class="cls-2" x="102.1" y="517.25" width="17.36" height="28.56" rx=".65"/><path class="cls-3" d="M525.22 535.88a4.38 4.38 0 114.37-4.38 4.38 4.38 0 01-4.37 4.38zM112.78 535.88a4.38 4.38 0 10-4.38-4.38 4.38 4.38 0 004.38 4.38z"/><path class="cls-4" d="M525.18 534.32a.4.4 0 01-.39-.4v-2h-2a.38.38 0 01-.39-.39.41.41 0 01.39-.45h2v-2a.4.4 0 01.39-.38.42.42 0 01.46.38v2h2a.39.39 0 01.4.4.4.4 0 01-.4.44h-2v2a.41.41 0 01-.4.4zM112.75 534.32a.4.4 0 01-.39-.4v-2h-2a.4.4 0 01-.41-.39.42.42 0 01.41-.45h2v-2a.4.4 0 01.39-.38.41.41 0 01.45.38v2h2a.39.39 0 01.39.4.4.4 0 01-.39.44h-2v2a.39.39 0 01-.39.4z"/><path id="Face1" class="cls-2" d="M123 568.93a3.6 3.6 0 01-3.59-3.59v-68.43a3.6 3.6 0 013.59-3.58h391.7a3.59 3.59 0 013.6 3.58v68.43a3.6 3.6 0 01-3.6 3.59z"/><path class="cls-4" d="M121.4 565.34A1.65 1.65 0 00123 567h391.7a1.66 1.66 0 001.66-1.66v-1.13h-395z" id="Bottom_Lip" data-name="Bottom Lip"/><path id="Top_Lip" data-name="Top Lip" class="cls-4" d="M516.4 496.91a1.66 1.66 0 00-1.66-1.65H123a1.65 1.65 0 00-1.64 1.65V498h395z"/><path class="cls-2" d="M506.35 539.66a8.14 8.14 0 110-16.27M518.34 523.39h-11.99M518.34 539.66h-11.99"/><path class="cls-5" d="M512.61 531.52a5.53 5.53 0 11-5.53-5.54 5.52 5.52 0 015.53 5.54z"/><path d="M510.18 531.49a3.1 3.1 0 01-6.2 0m6.2 0a3.11 3.11 0 00-1.63-2.73m-2.94 0a3.11 3.11 0 00-1.63 2.73" stroke="#21409a" fill="none"/><path class="cls-5" d="M507.08 527.19v3.97M488.68 541.55l-1.32 2.28h-2.63l-1.32-2.28 1.32-2.28h2.63l1.32 2.28zM488.68 534.89l-1.32 2.28h-2.63l-1.32-2.28 1.32-2.28h2.63l1.32 2.28zM494.41 538.22l-1.31 2.28h-2.64l-1.31-2.28 1.31-2.28h2.64l1.31 2.28zM494.41 531.56l-1.31 2.28h-2.64l-1.31-2.28 1.31-2.28h2.64l1.31 2.28zM488.68 554.95l-1.32 2.28h-2.63l-1.32-2.28 1.32-2.28h2.63l1.32 2.28zM488.68 548.25l-1.32 2.28h-2.63l-1.32-2.28 1.32-2.28h2.63l1.32 2.28zM494.41 551.62l-1.31 2.28h-2.64l-1.31-2.28 1.31-2.28h2.64l1.31 2.28zM494.41 544.92l-1.31 2.28h-2.64l-1.31-2.28 1.31-2.28h2.64l1.31 2.28zM500.15 554.95l-1.31 2.28h-2.64l-1.31-2.28 1.31-2.28h2.64l1.31 2.28zM500.15 548.25l-1.31 2.28h-2.64l-1.31-2.28 1.31-2.28h2.64l1.31 2.28zM505.89 551.62l-1.32 2.28h-2.63l-1.32-2.28 1.32-2.28h2.63l1.32 2.28zM505.89 544.92l-1.32 2.28h-2.63l-1.32-2.28 1.32-2.28h2.63l1.32 2.28zM500.15 541.55l-1.31 2.28h-2.64l-1.31-2.28 1.31-2.28h2.64l1.31 2.28zM494.41 558.5l-1.31 2.28h-2.64l-1.31-2.28 1.31-2.28h2.64l1.31 2.28zM511.62 554.95l-1.31 2.28h-2.63l-1.32-2.28 1.32-2.28h2.63l1.31 2.28zM511.62 548.25l-1.31 2.28h-2.63l-1.32-2.28 1.32-2.28h2.63l1.31 2.28zM505.89 558.5l-1.32 2.28h-2.63l-1.32-2.28 1.32-2.28h2.63l1.32 2.28zM488.68 528.22l-1.32 2.28h-2.63l-1.32-2.28 1.32-2.28h2.63l1.32 2.28zM488.68 521.63l-1.32 2.27h-2.63l-1.32-2.27 1.32-2.28h2.63l1.32 2.28zM494.42 524.96l-1.32 2.28h-2.63l-1.32-2.28 1.32-2.28h2.63l1.32 2.28zM494.42 518.35l-1.32 2.28h-2.63l-1.32-2.28 1.32-2.28h2.63l1.32 2.28zM488.68 501.63l-1.32 2.28h-2.63l-1.32-2.28 1.32-2.28h2.63l1.32 2.28zM488.68 515.03l-1.32 2.28h-2.63l-1.32-2.28 1.32-2.28h2.63l1.32 2.28zM488.68 508.33l-1.32 2.28h-2.63l-1.32-2.28 1.32-2.28h2.63l1.32 2.28zM494.41 511.63l-1.32 2.28h-2.63l-1.31-2.28 1.31-2.28h2.63l1.32 2.28zM494.41 505.03l-1.32 2.28h-2.63l-1.31-2.28 1.31-2.28h2.63l1.32 2.28zM500.57 514.9l-1.32 2.28h-2.63l-1.31-2.28 1.31-2.28h2.63l1.32 2.28zM506.31 511.57l-1.32 2.28h-2.63l-1.32-2.28 1.32-2.28h2.63l1.32 2.28zM500.57 521.59l-1.32 2.28h-2.63l-1.31-2.28 1.31-2.28h2.63l1.32 2.28zM506.31 518.26l-1.32 2.28h-2.63l-1.32-2.28 1.32-2.28h2.63l1.32 2.28zM500.57 501.8l-1.32 2.28h-2.63l-1.31-2.28 1.31-2.28h2.63l1.32 2.28zM500.57 508.5l-1.32 2.28h-2.63l-1.31-2.28 1.31-2.28h2.63l1.32 2.28zM506.31 505.17l-1.32 2.28h-2.63l-1.32-2.28 1.32-2.28h2.63l1.32 2.28zM512.05 514.88l-1.32 2.28h-2.63l-1.32-2.28 1.32-2.28h2.63l1.32 2.28zM512.05 501.78l-1.32 2.28h-2.63l-1.32-2.28 1.32-2.28h2.63l1.32 2.28zM512.05 508.48l-1.32 2.28h-2.63l-1.32-2.28 1.32-2.28h2.63l1.32 2.28zM482.95 538.23l-1.32 2.28H479l-1.31-2.28 1.31-2.28h2.63l1.32 2.28zM482.95 531.57l-1.32 2.28H479l-1.31-2.28 1.31-2.29h2.63l1.32 2.29zM482.95 551.62l-1.32 2.28H479l-1.31-2.28 1.31-2.28h2.63l1.32 2.28zM482.95 544.93l-1.32 2.28H479l-1.31-2.28 1.31-2.28h2.63l1.32 2.28zM482.95 558.5l-1.32 2.28H479l-1.31-2.28 1.31-2.28h2.63l1.32 2.28zM482.95 524.96l-1.31 2.28H479l-1.31-2.28 1.31-2.28h2.64l1.31 2.28zM482.95 518.36l-1.31 2.28H479l-1.31-2.28 1.31-2.28h2.64l1.31 2.28zM482.95 511.64l-1.32 2.28H479l-1.32-2.28 1.32-2.28h2.63l1.32 2.28zM482.95 505.03l-1.32 2.28H479l-1.32-2.28 1.32-2.28h2.63l1.32 2.28zM477.22 541.59l-1.31 2.28h-2.64l-1.31-2.28 1.31-2.28h2.64l1.31 2.28zM477.22 534.92l-1.31 2.29h-2.64l-1.31-2.29 1.31-2.28h2.64l1.31 2.28zM477.22 554.98l-1.31 2.28h-2.64l-1.31-2.28 1.31-2.28h2.64l1.31 2.28zM477.22 548.28l-1.31 2.28h-2.64l-1.31-2.28 1.31-2.28h2.64l1.31 2.28zM477.22 528.26l-1.31 2.28h-2.64l-1.31-2.28 1.31-2.28h2.64l1.31 2.28zM477.22 521.66l-1.31 2.28h-2.64l-1.31-2.28 1.31-2.28h2.64l1.31 2.28zM477.22 501.67l-1.31 2.28h-2.64l-1.31-2.28 1.31-2.28h2.64l1.31 2.28zM477.22 515.06l-1.31 2.28h-2.64l-1.31-2.28 1.31-2.28h2.64l1.31 2.28zM477.22 508.36l-1.31 2.28h-2.64l-1.31-2.28 1.31-2.28h2.64l1.31 2.28zM471.5 538.12l-1.32 2.28h-2.63l-1.32-2.28 1.32-2.28h2.63l1.32 2.28zM471.5 531.46l-1.32 2.28h-2.63l-1.32-2.28 1.32-2.28h2.63l1.32 2.28zM471.5 551.51l-1.32 2.28h-2.63l-1.32-2.28 1.32-2.27h2.63l1.32 2.27zM471.5 544.82l-1.32 2.28h-2.63l-1.32-2.28 1.32-2.28h2.63l1.32 2.28zM471.5 558.39l-1.32 2.28h-2.63l-1.32-2.28 1.32-2.28h2.63l1.32 2.28zM471.5 524.86l-1.32 2.27h-2.63l-1.32-2.27 1.32-2.28h2.63l1.32 2.28zM471.5 518.25l-1.32 2.28h-2.63l-1.32-2.28 1.32-2.28h2.63l1.32 2.28zM471.49 511.53l-1.31 2.28h-2.63l-1.32-2.28 1.32-2.28h2.63l1.31 2.28zM471.49 504.92l-1.31 2.28h-2.63l-1.32-2.28 1.32-2.28h2.63l1.31 2.28zM465.76 541.59l-1.32 2.28h-2.63l-1.31-2.28 1.31-2.28h2.63l1.32 2.28zM465.76 534.93l-1.32 2.28h-2.63l-1.31-2.28 1.31-2.28h2.63l1.32 2.28zM465.76 554.98l-1.32 2.28h-2.63l-1.31-2.28 1.31-2.28h2.63l1.32 2.28zM465.76 548.29l-1.32 2.28h-2.63l-1.31-2.28 1.31-2.28h2.63l1.32 2.28zM465.76 528.26l-1.31 2.28h-2.64l-1.31-2.28 1.31-2.28h2.64l1.31 2.28zM465.76 521.66l-1.31 2.28h-2.64l-1.31-2.28 1.31-2.28h2.64l1.31 2.28zM465.76 501.67l-1.31 2.28h-2.64l-1.31-2.28 1.31-2.28h2.64l1.31 2.28zM465.76 515.06l-1.31 2.28h-2.64l-1.31-2.28 1.31-2.28h2.64l1.31 2.28zM465.76 508.37l-1.31 2.27h-2.64l-1.31-2.27 1.31-2.28h2.64l1.31 2.28zM460.04 538.26l-1.32 2.28h-2.63l-1.32-2.28 1.32-2.27h2.63l1.32 2.27zM460.04 531.6l-1.32 2.28h-2.63l-1.32-2.28 1.32-2.28h2.63l1.32 2.28zM460.04 551.66l-1.32 2.28h-2.63l-1.32-2.28 1.32-2.28h2.63l1.32 2.28zM460.04 544.96l-1.32 2.28h-2.63l-1.32-2.28 1.32-2.28h2.63l1.32 2.28zM460.04 558.54l-1.32 2.28h-2.63l-1.32-2.28 1.32-2.28h2.63l1.32 2.28zM460.04 525l-1.32 2.28h-2.63l-1.32-2.28 1.32-2.28h2.63l1.32 2.28zM460.04 518.39l-1.32 2.28h-2.63l-1.32-2.28 1.32-2.28h2.63l1.32 2.28zM460.03 511.67l-1.31 2.28h-2.64l-1.31-2.28 1.31-2.28h2.64l1.31 2.28zM460.03 505.07l-1.31 2.28h-2.64l-1.31-2.28 1.31-2.28h2.64l1.31 2.28zM454.31 541.62l-1.32 2.28h-2.63l-1.32-2.28 1.32-2.28h2.63l1.32 2.28zM454.31 534.96l-1.32 2.28h-2.63l-1.32-2.28 1.32-2.28h2.63l1.32 2.28zM454.31 555.02l-1.32 2.28h-2.63l-1.32-2.28 1.32-2.28h2.63l1.32 2.28zM454.31 548.32l-1.32 2.28h-2.63l-1.32-2.28 1.32-2.28h2.63l1.32 2.28zM454.31 528.29l-1.32 2.29h-2.63l-1.32-2.29 1.32-2.28h2.63l1.32 2.28zM454.31 521.7l-1.32 2.28h-2.63l-1.32-2.28 1.32-2.28h2.63l1.32 2.28zM454.31 501.7l-1.32 2.28h-2.63l-1.32-2.28 1.32-2.28h2.63l1.32 2.28zM454.31 515.1l-1.32 2.28h-2.63l-1.32-2.28 1.32-2.28h2.63l1.32 2.28zM454.31 508.4l-1.32 2.28h-2.63l-1.32-2.28 1.32-2.28h2.63l1.32 2.28zM448.58 538.16l-1.32 2.28h-2.63l-1.31-2.28 1.31-2.28h2.63l1.32 2.28zM448.58 531.49l-1.32 2.28h-2.63l-1.31-2.28 1.31-2.28h2.63l1.32 2.28zM448.58 551.55l-1.32 2.28h-2.63l-1.31-2.28 1.31-2.28h2.63l1.32 2.28zM448.58 544.86l-1.32 2.27h-2.63l-1.31-2.27 1.31-2.28h2.63l1.32 2.28zM448.58 558.43l-1.32 2.28h-2.63l-1.31-2.28 1.31-2.28h2.63l1.32 2.28zM448.58 524.89l-1.31 2.28h-2.64l-1.31-2.28 1.31-2.28h2.64l1.31 2.28zM448.58 518.29l-1.31 2.28h-2.64l-1.31-2.28 1.31-2.28h2.64l1.31 2.28zM448.58 511.57l-1.32 2.28h-2.63l-1.32-2.28 1.32-2.28h2.63l1.32 2.28zM448.58 504.96l-1.32 2.28h-2.63l-1.32-2.28 1.32-2.28h2.63l1.32 2.28zM442.85 541.59l-1.32 2.28h-2.63l-1.32-2.28 1.32-2.28h2.63l1.32 2.28zM442.85 534.93l-1.32 2.28h-2.63l-1.32-2.28 1.32-2.28h2.63l1.32 2.28zM442.85 554.99l-1.32 2.27h-2.63l-1.32-2.27 1.32-2.28h2.63l1.32 2.28zM442.85 548.29l-1.32 2.28h-2.63l-1.32-2.28 1.32-2.28h2.63l1.32 2.28zM442.85 528.26l-1.32 2.28h-2.63l-1.32-2.28 1.32-2.28h2.63l1.32 2.28zM442.85 521.66l-1.32 2.28h-2.63l-1.32-2.28 1.32-2.28h2.63l1.32 2.28zM442.85 501.67l-1.32 2.28h-2.63l-1.32-2.28 1.32-2.28h2.63l1.32 2.28zM442.85 515.06l-1.32 2.28h-2.63l-1.32-2.28 1.32-2.28h2.63l1.32 2.28zM442.85 508.37l-1.32 2.28h-2.63l-1.32-2.28 1.32-2.28h2.63l1.32 2.28zM437.12 538.27l-1.32 2.28h-2.63l-1.31-2.28 1.31-2.28h2.63l1.32 2.28zM437.12 531.6l-1.32 2.28h-2.63l-1.31-2.28 1.31-2.28h2.63l1.32 2.28zM437.12 551.66l-1.32 2.28h-2.63l-1.31-2.28 1.31-2.28h2.63l1.32 2.28zM437.12 544.96l-1.32 2.28h-2.63l-1.31-2.28 1.31-2.28h2.63l1.32 2.28zM437.12 558.54l-1.32 2.28h-2.63l-1.31-2.28 1.31-2.28h2.63l1.32 2.28zM437.12 525l-1.31 2.28h-2.64l-1.31-2.28 1.31-2.28h2.64l1.31 2.28zM437.12 518.39l-1.31 2.28h-2.64l-1.31-2.28 1.31-2.27h2.64l1.31 2.27zM437.12 511.68l-1.32 2.28h-2.63l-1.32-2.28 1.32-2.28h2.63l1.32 2.28zM437.12 505.07l-1.32 2.28h-2.63l-1.32-2.28 1.32-2.28h2.63l1.32 2.28zM431.39 541.63l-1.32 2.27h-2.63l-1.31-2.27 1.31-2.28h2.63l1.32 2.28zM431.39 534.96l-1.32 2.28h-2.63l-1.31-2.28 1.31-2.28h2.63l1.32 2.28zM431.39 555.02l-1.32 2.28h-2.63l-1.31-2.28 1.31-2.28h2.63l1.32 2.28zM431.39 548.32l-1.32 2.28h-2.63l-1.31-2.28 1.31-2.28h2.63l1.32 2.28zM431.39 528.3l-1.31 2.28h-2.64l-1.31-2.28 1.31-2.28h2.64l1.31 2.28zM431.39 521.7l-1.31 2.28h-2.64l-1.31-2.28 1.31-2.28h2.64l1.31 2.28zM431.39 501.7l-1.31 2.28h-2.64l-1.31-2.28 1.31-2.27h2.64l1.31 2.27zM431.39 515.1l-1.31 2.28h-2.64l-1.31-2.28 1.31-2.28h2.64l1.31 2.28zM431.39 508.4l-1.31 2.28h-2.64l-1.31-2.28 1.31-2.28h2.64l1.31 2.28zM425.67 538.16l-1.32 2.28h-2.63l-1.32-2.28 1.32-2.28h2.63l1.32 2.28zM425.67 531.5l-1.32 2.27h-2.63l-1.32-2.27 1.32-2.28h2.63l1.32 2.28zM425.67 551.55l-1.32 2.28h-2.63l-1.32-2.28 1.32-2.28h2.63l1.32 2.28zM425.67 544.86l-1.32 2.28h-2.63l-1.32-2.28 1.32-2.28h2.63l1.32 2.28zM425.67 558.43l-1.32 2.28h-2.63l-1.32-2.28 1.32-2.28h2.63l1.32 2.28zM425.67 524.89l-1.32 2.28h-2.63l-1.32-2.28 1.32-2.28h2.63l1.32 2.28zM425.67 518.29l-1.32 2.28h-2.63l-1.32-2.28 1.32-2.28h2.63l1.32 2.28zM425.66 511.57l-1.31 2.28h-2.64l-1.31-2.28 1.31-2.28h2.64l1.31 2.28zM425.66 504.96l-1.31 2.28h-2.64l-1.31-2.28 1.31-2.28h2.64l1.31 2.28zM419.93 541.6l-1.32 2.28h-2.63l-1.31-2.28 1.31-2.28h2.63l1.32 2.28zM419.93 534.93l-1.32 2.29h-2.63l-1.31-2.29 1.31-2.28h2.63l1.32 2.28zM419.93 554.99l-1.32 2.28h-2.63l-1.31-2.28 1.31-2.28h2.63l1.32 2.28zM419.93 548.29l-1.32 2.28h-2.63l-1.31-2.28 1.31-2.28h2.63l1.32 2.28zM419.93 528.27l-1.31 2.28h-2.64l-1.31-2.28 1.31-2.28h2.64l1.31 2.28zM419.93 521.67l-1.31 2.28h-2.64l-1.31-2.28 1.31-2.28h2.64l1.31 2.28zM419.93 501.68l-1.31 2.28h-2.64l-1.31-2.28 1.31-2.28h2.64l1.31 2.28zM419.93 515.07l-1.31 2.28h-2.64l-1.31-2.28 1.31-2.28h2.64l1.31 2.28zM419.93 508.37l-1.31 2.28h-2.64l-1.31-2.28 1.31-2.28h2.64l1.31 2.28zM414.2 538.27l-1.31 2.28h-2.63l-1.32-2.28 1.32-2.28h2.63l1.31 2.28zM414.2 531.61l-1.31 2.28h-2.63l-1.32-2.28 1.32-2.28h2.63l1.31 2.28zM414.2 551.67l-1.31 2.28h-2.63l-1.32-2.28 1.32-2.28h2.63l1.31 2.28zM414.2 544.97l-1.31 2.28h-2.63l-1.32-2.28 1.32-2.28h2.63l1.31 2.28zM414.2 558.55l-1.31 2.28h-2.63l-1.32-2.28 1.32-2.28h2.63l1.31 2.28zM414.21 525.01l-1.32 2.28h-2.63l-1.32-2.28 1.32-2.28h2.63l1.32 2.28zM414.21 518.4l-1.32 2.28h-2.63l-1.32-2.28 1.32-2.28h2.63l1.32 2.28zM414.2 511.68l-1.32 2.28h-2.63l-1.31-2.28 1.31-2.28h2.63l1.32 2.28zM414.2 505.08l-1.32 2.28h-2.63l-1.31-2.28 1.31-2.28h2.63l1.32 2.28zM408.48 534.97l-1.32 2.28h-2.63l-1.32-2.28 1.32-2.28h2.63l1.32 2.28zM408.48 541.63l-1.32 2.28h-2.63l-1.32-2.28 1.32-2.28h2.63l1.32 2.28zM408.48 555.03l-1.32 2.27h-2.63l-1.32-2.27 1.32-2.28h2.63l1.32 2.28zM408.48 548.33l-1.32 2.28h-2.63l-1.32-2.28 1.32-2.28h2.63l1.32 2.28zM408.48 528.3l-1.32 2.28h-2.63l-1.32-2.28 1.32-2.28h2.63l1.32 2.28zM408.48 521.7l-1.32 2.28h-2.63l-1.32-2.28 1.32-2.28h2.63l1.32 2.28zM408.48 501.71l-1.32 2.28h-2.63l-1.32-2.28 1.32-2.28h2.63l1.32 2.28zM408.48 515.11l-1.32 2.27h-2.63l-1.32-2.27 1.32-2.28h2.63l1.32 2.28zM408.48 508.41l-1.32 2.28h-2.63l-1.32-2.28 1.32-2.28h2.63l1.32 2.28zM402.75 538.17l-1.31 2.28h-2.64l-1.31-2.28 1.31-2.28h2.64l1.31 2.28zM402.75 531.5l-1.31 2.28h-2.64l-1.31-2.28 1.31-2.28h2.64l1.31 2.28zM402.75 551.56l-1.31 2.28h-2.64l-1.31-2.28 1.31-2.28h2.64l1.31 2.28zM402.75 544.86l-1.31 2.28h-2.64l-1.31-2.28 1.31-2.28h2.64l1.31 2.28zM402.75 558.44l-1.31 2.28h-2.64l-1.31-2.28 1.31-2.28h2.64l1.31 2.28zM402.75 524.9l-1.31 2.28h-2.64l-1.31-2.28 1.31-2.28h2.64l1.31 2.28zM402.75 518.29l-1.31 2.28h-2.64l-1.31-2.28 1.31-2.28h2.64l1.31 2.28zM402.75 511.57l-1.32 2.28h-2.63l-1.32-2.28 1.32-2.28h2.63l1.32 2.28zM402.75 504.97l-1.32 2.28h-2.63l-1.32-2.28 1.32-2.28h2.63l1.32 2.28zM397.01 541.59l-1.31 2.28h-2.64l-1.31-2.28 1.31-2.28h2.64l1.31 2.28zM397.01 534.93l-1.31 2.28h-2.64l-1.31-2.28 1.31-2.28h2.64l1.31 2.28zM397.01 554.99l-1.31 2.27h-2.64l-1.31-2.27 1.31-2.28h2.64l1.31 2.28zM397.01 548.29l-1.31 2.28h-2.64l-1.31-2.28 1.31-2.28h2.64l1.31 2.28zM397.01 528.26l-1.31 2.28h-2.63l-1.32-2.28 1.32-2.28h2.63l1.31 2.28zM397.01 521.66l-1.31 2.28h-2.63l-1.32-2.28 1.32-2.28h2.63l1.31 2.28zM397.01 501.67l-1.31 2.28h-2.64l-1.31-2.28 1.31-2.28h2.64l1.31 2.28zM397.01 515.06l-1.31 2.28h-2.64l-1.31-2.28 1.31-2.28h2.64l1.31 2.28zM397.01 508.37l-1.31 2.28h-2.64l-1.31-2.28 1.31-2.28h2.64l1.31 2.28zM391.29 538.27l-1.32 2.28h-2.63l-1.32-2.28 1.32-2.28h2.63l1.32 2.28zM391.29 531.6l-1.32 2.28h-2.63l-1.32-2.28 1.32-2.28h2.63l1.32 2.28zM391.29 551.66l-1.32 2.28h-2.63l-1.32-2.28 1.32-2.28h2.63l1.32 2.28zM391.29 544.96l-1.32 2.28h-2.63l-1.32-2.28 1.32-2.28h2.63l1.32 2.28zM391.29 558.54l-1.32 2.28h-2.63l-1.32-2.28 1.32-2.28h2.63l1.32 2.28zM391.29 525l-1.32 2.28h-2.63l-1.32-2.28 1.32-2.28h2.63l1.32 2.28zM391.29 518.39l-1.32 2.28h-2.63l-1.32-2.28 1.32-2.27h2.63l1.32 2.27zM391.28 511.68l-1.31 2.28h-2.64l-1.31-2.28 1.31-2.28h2.64l1.31 2.28zM391.28 505.07l-1.31 2.28h-2.64l-1.31-2.28 1.31-2.28h2.64l1.31 2.28zM385.56 541.63l-1.32 2.27h-2.63l-1.32-2.27 1.32-2.28h2.63l1.32 2.28zM385.56 534.96l-1.32 2.28h-2.63l-1.32-2.28 1.32-2.28h2.63l1.32 2.28zM385.56 555.02l-1.32 2.28h-2.63l-1.32-2.28 1.32-2.28h2.63l1.32 2.28zM385.56 548.32l-1.32 2.28h-2.63l-1.32-2.28 1.32-2.28h2.63l1.32 2.28zM385.56 528.3l-1.32 2.28h-2.63l-1.31-2.28 1.31-2.28h2.63l1.32 2.28zM385.56 521.7l-1.32 2.28h-2.63l-1.31-2.28 1.31-2.28h2.63l1.32 2.28zM385.56 501.7l-1.32 2.28h-2.63l-1.31-2.28 1.31-2.27h2.63l1.32 2.27zM385.56 515.1l-1.32 2.28h-2.63l-1.31-2.28 1.31-2.28h2.63l1.32 2.28zM385.56 508.4l-1.32 2.28h-2.63l-1.31-2.28 1.31-2.28h2.63l1.32 2.28zM379.83 538.16l-1.31 2.28h-2.64l-1.31-2.28 1.31-2.28h2.64l1.31 2.28zM379.83 531.5l-1.31 2.27h-2.64l-1.31-2.27 1.31-2.28h2.64l1.31 2.28zM379.83 551.55l-1.31 2.28h-2.64l-1.31-2.28 1.31-2.28h2.64l1.31 2.28zM379.83 544.86l-1.31 2.28h-2.64l-1.31-2.28 1.31-2.28h2.64l1.31 2.28zM379.83 558.43l-1.31 2.28h-2.64l-1.31-2.28 1.31-2.28h2.64l1.31 2.28zM379.83 524.89l-1.31 2.28h-2.63l-1.32-2.28 1.32-2.28h2.63l1.31 2.28zM379.83 518.29l-1.31 2.28h-2.63l-1.32-2.28 1.32-2.28h2.63l1.31 2.28zM379.83 511.57l-1.32 2.28h-2.63l-1.32-2.28 1.32-2.28h2.63l1.32 2.28zM379.83 504.96l-1.32 2.28h-2.63l-1.32-2.28 1.32-2.28h2.63l1.32 2.28zM374.1 541.59l-1.32 2.28h-2.63l-1.32-2.28 1.32-2.28h2.63l1.32 2.28zM374.1 534.93l-1.32 2.28h-2.63l-1.32-2.28 1.32-2.28h2.63l1.32 2.28zM374.1 554.99l-1.32 2.27h-2.63l-1.32-2.27 1.32-2.28h2.63l1.32 2.28zM374.1 548.29l-1.32 2.28h-2.63l-1.32-2.28 1.32-2.28h2.63l1.32 2.28zM374.1 528.26l-1.32 2.28h-2.63l-1.32-2.28 1.32-2.28h2.63l1.32 2.28zM374.1 521.66l-1.32 2.28h-2.63l-1.32-2.28 1.32-2.28h2.63l1.32 2.28zM374.1 501.67l-1.32 2.28h-2.63l-1.32-2.28 1.32-2.28h2.63l1.32 2.28zM374.1 515.06l-1.32 2.28h-2.63l-1.32-2.28 1.32-2.28h2.63l1.32 2.28zM374.1 508.37l-1.32 2.28h-2.63l-1.32-2.28 1.32-2.28h2.63l1.32 2.28zM368.37 538.27l-1.31 2.28h-2.64l-1.31-2.28 1.31-2.28h2.64l1.31 2.28zM368.37 531.6l-1.31 2.28h-2.64l-1.31-2.28 1.31-2.28h2.64l1.31 2.28zM368.37 551.66l-1.31 2.28h-2.64l-1.31-2.28 1.31-2.28h2.64l1.31 2.28zM368.37 544.96l-1.31 2.28h-2.64l-1.31-2.28 1.31-2.28h2.64l1.31 2.28zM368.37 558.54l-1.31 2.28h-2.64l-1.31-2.28 1.31-2.28h2.64l1.31 2.28zM368.38 525l-1.32 2.28h-2.63l-1.32-2.28 1.32-2.28h2.63l1.32 2.28zM368.38 518.39l-1.32 2.28h-2.63l-1.32-2.28 1.32-2.27h2.63l1.32 2.27zM368.37 511.68l-1.32 2.28h-2.63l-1.31-2.28 1.31-2.28h2.63l1.32 2.28zM368.37 505.07l-1.32 2.28h-2.63l-1.31-2.28 1.31-2.28h2.63l1.32 2.28zM362.64 541.63l-1.31 2.27h-2.63l-1.32-2.27 1.32-2.28h2.63l1.31 2.28zM362.64 534.96l-1.31 2.28h-2.63l-1.32-2.28 1.32-2.28h2.63l1.31 2.28zM362.64 555.02l-1.31 2.28h-2.63l-1.32-2.28 1.32-2.28h2.63l1.31 2.28zM362.64 548.32l-1.31 2.28h-2.63l-1.32-2.28 1.32-2.28h2.63l1.31 2.28zM362.65 528.3l-1.32 2.28h-2.63l-1.32-2.28 1.32-2.28h2.63l1.32 2.28zM362.65 521.7l-1.32 2.28h-2.63l-1.32-2.28 1.32-2.28h2.63l1.32 2.28zM362.64 501.7l-1.31 2.28h-2.63l-1.32-2.28 1.32-2.27h2.63l1.31 2.27zM362.64 515.1l-1.31 2.28h-2.63l-1.32-2.28 1.32-2.28h2.63l1.31 2.28zM362.64 508.4l-1.31 2.28h-2.63l-1.32-2.28 1.32-2.28h2.63l1.31 2.28zM356.92 538.16l-1.32 2.28h-2.63l-1.32-2.28 1.32-2.28h2.63l1.32 2.28zM356.92 531.5l-1.32 2.27h-2.63l-1.32-2.27 1.32-2.28h2.63l1.32 2.28zM356.92 551.55l-1.32 2.28h-2.63l-1.32-2.28 1.32-2.28h2.63l1.32 2.28zM356.92 544.86l-1.32 2.28h-2.63l-1.32-2.28 1.32-2.28h2.63l1.32 2.28zM356.92 558.43l-1.32 2.28h-2.63l-1.32-2.28 1.32-2.28h2.63l1.32 2.28zM356.92 524.89l-1.31 2.28h-2.64l-1.31-2.28 1.31-2.28h2.64l1.31 2.28zM356.92 518.29l-1.31 2.28h-2.64l-1.31-2.28 1.31-2.28h2.64l1.31 2.28zM356.92 511.57l-1.32 2.28h-2.63l-1.32-2.28 1.32-2.28h2.63l1.32 2.28zM356.92 504.96l-1.32 2.28h-2.63l-1.32-2.28 1.32-2.28h2.63l1.32 2.28zM351.18 541.59l-1.31 2.28h-2.63l-1.32-2.28 1.32-2.28h2.63l1.31 2.28zM351.18 534.93l-1.31 2.28h-2.63l-1.32-2.28 1.32-2.28h2.63l1.31 2.28zM351.18 554.99l-1.31 2.27h-2.63l-1.32-2.27 1.32-2.28h2.63l1.31 2.28zM351.18 548.29l-1.31 2.28h-2.63l-1.32-2.28 1.32-2.28h2.63l1.31 2.28zM351.19 528.26l-1.32 2.28h-2.63l-1.32-2.28 1.32-2.28h2.63l1.32 2.28zM351.19 521.66l-1.32 2.28h-2.63l-1.32-2.28 1.32-2.28h2.63l1.32 2.28zM351.19 501.67l-1.32 2.28h-2.63l-1.32-2.28 1.32-2.28h2.63l1.32 2.28zM351.19 515.06l-1.32 2.28h-2.63l-1.32-2.28 1.32-2.28h2.63l1.32 2.28zM351.19 508.37l-1.32 2.28h-2.63l-1.32-2.28 1.32-2.28h2.63l1.32 2.28zM342.64 535.99h1.5l1.32 2.28-1.32 2.28h-2.63l-.43-.75M344.14 529.32l1.32 2.28-1.32 2.28h-.79M345.46 551.66l-1.32 2.28h-2.63l-1.32-2.28 1.32-2.28h2.63l1.32 2.28zM345.46 544.96l-1.32 2.28h-2.63l-1.32-2.28 1.32-2.28h2.63l1.32 2.28zM345.46 558.54l-1.32 2.28h-2.63l-1.32-2.28 1.32-2.28h2.63l1.32 2.28zM340.48 511.17l1.03-1.77h2.63l1.31 2.28-.37.64M345.45 505.07l-1.31 2.28h-2.63l-1.32-2.28 1.32-2.28h2.63l1.31 2.28zM339.73 555.02l-1.32 2.28h-2.63l-1.32-2.28 1.32-2.28h2.63l1.32 2.28zM337.81 546.04h.6l1.32 2.28-1.32 2.28h-2.63l-.44-.76M339.73 501.7l-1.31 2.28h-2.64l-1.31-2.28 1.31-2.27h2.64l1.31 2.27zM335.43 510.08l-.96-1.68 1.31-2.28h2.64l1.31 2.28-1.31 2.28h-.72M334 558.43l-1.31 2.28h-2.63l-1.32-2.28 1.32-2.28h2.63l1.31 2.28zM329 512.02l-.26-.45 1.31-2.28h2.64l.79 1.37M334 504.96l-1.31 2.28h-2.64l-1.31-2.28 1.31-2.28h2.64l1.31 2.28zM328.26 554.99l-1.31 2.27h-2.64l-1.31-2.27M328.26 501.67l-1.31 2.28h-2.64l-1.31-2.28 1.31-2.28h2.64l1.31 2.28zM323.43 515.81l-.43-.75 1.31-2.28h2.64M328.26 508.37l-1.31 2.28h-2.64l-1.31-2.28 1.31-2.28h2.64l1.31 2.28zM322.54 558.54l-1.32 2.28h-2.63l-1.32-2.28 1.32-2.28h2.63l1.32 2.28zM319.51 516.14l1.71-.02 1.32 2.27-1.32 2.28h-2.63M317.68 510.96l.9-1.56h2.64l1.31 2.28-1.31 2.28h-2.02M322.53 505.07l-1.31 2.28h-2.64l-1.31-2.28 1.31-2.28h2.64l1.31 2.28zM316.81 555.02l-1.32 2.28h-2.63l-1.32-2.28 1.32-2.28M316.81 501.7l-1.32 2.28h-2.63l-1.31-2.28 1.31-2.27h2.63l1.32 2.27zM311.95 507.7l.91-1.58h2.63l1.32 2.28-.61 1.06M311.08 551.55l-1.31 2.28h-2.64l-1.31-2.28 1.31-2.28h1.7l2.25 2.28zM311.08 558.43l-1.31 2.28h-2.64l-1.31-2.28 1.31-2.28h2.64l1.31 2.28zM311.08 504.96l-1.32 2.28h-2.63l-1.32-2.28 1.32-2.28h2.63l1.32 2.28zM304.03 543.87h-2.64l-1.31-2.28 1.05-1.83M305.34 554.99l-1.31 2.27h-2.64l-1.31-2.27 1.31-2.28h2.64l1.31 2.28zM305.34 548.29l-1.31 2.28h-2.64l-1.31-2.28 1.31-2.28h2.64l1.31 2.28zM305.34 501.67l-1.31 2.28h-2.64l-1.31-2.28 1.31-2.28h2.64l1.31 2.28zM300.48 507.67l.91-1.58h2.64l1.31 2.28-.29.51M299.62 538.27l-1.32 2.28h-2.63l-1.32-2.28 1.32-2.28h2.63l1.32 2.28zM298.3 533.88h-2.63l-1.32-2.28 1.32-2.28h.66M299.62 551.66l-1.32 2.28h-2.63l-1.32-2.28 1.32-2.28h2.63l1.32 2.28zM299.62 544.96l-1.32 2.28h-2.63l-1.32-2.28 1.32-2.28h2.63l1.32 2.28zM299.62 558.54l-1.32 2.28h-2.63l-1.32-2.28 1.32-2.28h2.63l1.32 2.28zM295.67 527.28l-1.32-2.28.66-1.14M299.61 505.07l-1.31 2.28h-2.63l-1.32-2.28 1.32-2.28h2.63l1.31 2.28zM293.89 541.63l-1.32 2.27h-2.63l-1.32-2.27 1.32-2.28h2.63l1.32 2.28zM293.89 534.96l-1.32 2.28h-2.63l-1.32-2.28 1.32-2.28h2.63l1.32 2.28zM293.89 555.02l-1.32 2.28h-2.63l-1.32-2.28 1.32-2.28h2.63l1.32 2.28zM293.89 548.32l-1.32 2.28h-2.63l-1.32-2.28 1.32-2.28h2.63l1.32 2.28zM293.89 528.3l-1.32 2.28h-2.63l-1.31-2.28 1.31-2.28h2.63l1.32 2.28zM293.89 521.7l-1.32 2.28h-2.63l-1.31-2.28 1.31-2.28h2.63l1.32 2.28zM293.89 501.7l-1.32 2.28h-2.63l-1.32-2.28 1.32-2.27h2.63l1.32 2.27zM292.57 517.38h-2.63l-1.32-2.28 1.32-2.28h2.63M293.89 508.4l-1.32 2.28h-2.63l-1.32-2.28 1.32-2.28h2.63l1.32 2.28zM288.16 538.16l-1.31 2.28h-2.64l-1.31-2.28 1.31-2.28h2.64l1.31 2.28zM288.16 531.5l-1.31 2.27h-2.64l-1.31-2.27 1.31-2.28h2.64l1.31 2.28zM288.16 551.55l-1.31 2.28h-2.64l-1.31-2.28 1.31-2.28h2.64l1.31 2.28zM288.16 544.86l-1.31 2.28h-2.64l-1.31-2.28 1.31-2.28h2.64l1.31 2.28zM288.16 558.43l-1.31 2.28h-2.64l-1.31-2.28 1.31-2.28h2.64l1.31 2.28zM288.16 524.89l-1.31 2.28h-2.63l-1.32-2.28 1.32-2.28h2.63l1.31 2.28zM288.16 518.29l-1.31 2.28h-2.63l-1.32-2.28 1.32-2.28h2.63l1.31 2.28zM288.16 511.57l-1.32 2.28h-2.63l-1.32-2.28 1.32-2.28h2.63l1.32 2.28zM288.16 504.96l-1.32 2.28h-2.63l-1.32-2.28 1.32-2.28h2.63l1.32 2.28zM282.43 541.59l-1.32 2.28h-2.63l-1.32-2.28 1.32-2.28h2.63l1.32 2.28zM282.43 534.93l-1.32 2.28h-2.63l-1.32-2.28 1.32-2.28h2.63l1.32 2.28zM282.43 554.99l-1.32 2.27h-2.63l-1.32-2.27 1.32-2.28h2.63l1.32 2.28zM282.43 548.29l-1.32 2.28h-2.63l-1.32-2.28 1.32-2.28h2.63l1.32 2.28zM282.43 528.26l-1.32 2.28h-2.63l-1.31-2.28 1.31-2.28h2.63l1.32 2.28zM282.43 521.66l-1.32 2.28h-2.63l-1.31-2.28 1.31-2.28h2.63l1.32 2.28zM282.43 501.67l-1.32 2.28h-2.63l-1.32-2.28 1.32-2.28h2.63l1.32 2.28zM282.43 515.06l-1.32 2.28h-2.63l-1.32-2.28 1.32-2.28h2.63l1.32 2.28zM282.43 508.37l-1.32 2.28h-2.63l-1.32-2.28 1.32-2.28h2.63l1.32 2.28zM276.7 538.27l-1.31 2.28h-2.64l-1.31-2.28 1.31-2.28h2.64l1.31 2.28zM276.7 531.6l-1.31 2.28h-2.64l-1.31-2.28 1.31-2.28h2.64l1.31 2.28zM276.7 551.66l-1.31 2.28h-2.64l-1.31-2.28 1.31-2.28h2.64l1.31 2.28zM276.7 544.96l-1.31 2.28h-2.64l-1.31-2.28 1.31-2.28h2.64l1.31 2.28zM276.7 558.54l-1.31 2.28h-2.64l-1.31-2.28 1.31-2.28h2.64l1.31 2.28zM276.7 525l-1.31 2.28h-2.64l-1.31-2.28 1.31-2.28h2.64l1.31 2.28zM276.7 518.39l-1.31 2.28h-2.64l-1.31-2.28 1.31-2.27h2.64l1.31 2.27zM276.7 511.68l-1.32 2.28h-2.63l-1.32-2.28 1.32-2.28h2.63l1.32 2.28zM276.7 505.07l-1.32 2.28h-2.63l-1.32-2.28 1.32-2.28h2.63l1.32 2.28zM270.97 541.63l-1.31 2.27h-2.64l-1.31-2.27 1.31-2.28h2.64l1.31 2.28zM270.97 534.96l-1.31 2.28h-2.64l-1.31-2.28 1.31-2.28h2.64l1.31 2.28zM270.97 555.02l-1.31 2.28h-2.64l-1.31-2.28 1.31-2.28h2.64l1.31 2.28zM270.97 548.32l-1.31 2.28h-2.64l-1.31-2.28 1.31-2.28h2.64l1.31 2.28zM270.98 528.3l-1.32 2.28h-2.63l-1.32-2.28 1.32-2.28h2.63l1.32 2.28zM270.98 521.7l-1.32 2.28h-2.63l-1.32-2.28 1.32-2.28h2.63l1.32 2.28zM270.97 501.7l-1.31 2.28h-2.63l-1.32-2.28 1.32-2.27h2.63l1.31 2.27zM270.97 515.1l-1.31 2.28h-2.63l-1.32-2.28 1.32-2.28h2.63l1.31 2.28zM270.97 508.4l-1.31 2.28h-2.63l-1.32-2.28 1.32-2.28h2.63l1.31 2.28zM265.25 538.16l-1.32 2.28h-2.63l-1.32-2.28 1.32-2.28h2.63l1.32 2.28zM265.25 531.5l-1.32 2.27h-2.63l-1.32-2.27 1.32-2.28h2.63l1.32 2.28zM265.25 551.55l-1.32 2.28h-2.63l-1.32-2.28 1.32-2.28h2.63l1.32 2.28zM265.25 544.86l-1.32 2.28h-2.63l-1.32-2.28 1.32-2.28h2.63l1.32 2.28zM265.25 558.43l-1.32 2.28h-2.63l-1.32-2.28 1.32-2.28h2.63l1.32 2.28zM265.25 524.89l-1.32 2.28h-2.63l-1.31-2.28 1.31-2.28h2.63l1.32 2.28zM265.25 518.29l-1.32 2.28h-2.63l-1.31-2.28 1.31-2.28h2.63l1.32 2.28zM265.25 511.57l-1.32 2.28h-2.63l-1.32-2.28 1.32-2.28h2.63l1.32 2.28zM265.25 504.96l-1.32 2.28h-2.63l-1.32-2.28 1.32-2.28h2.63l1.32 2.28zM259.51 541.59l-1.32 2.28h-2.63l-1.32-2.28 1.32-2.28h2.63l1.32 2.28zM259.51 534.93l-1.32 2.28h-2.63l-1.32-2.28 1.32-2.28h2.63l1.32 2.28zM259.51 554.99l-1.32 2.27h-2.63l-1.32-2.27 1.32-2.28h2.63l1.32 2.28zM259.51 548.29l-1.32 2.28h-2.63l-1.32-2.28 1.32-2.28h2.63l1.32 2.28zM259.51 528.26l-1.32 2.28h-2.63l-1.32-2.28 1.32-2.28h2.63l1.32 2.28zM259.51 521.66l-1.32 2.28h-2.63l-1.32-2.28 1.32-2.28h2.63l1.32 2.28zM259.51 501.67l-1.32 2.28h-2.63l-1.32-2.28 1.32-2.28h2.63l1.32 2.28zM259.51 515.06l-1.32 2.28h-2.63l-1.32-2.28 1.32-2.28h2.63l1.32 2.28zM259.51 508.37l-1.32 2.28h-2.63l-1.32-2.28 1.32-2.28h2.63l1.32 2.28zM253.78 538.27l-1.31 2.28h-2.64l-1.31-2.28 1.31-2.28h2.64l1.31 2.28zM253.78 531.6l-1.31 2.28h-2.64l-1.31-2.28 1.31-2.28h2.64l1.31 2.28zM253.78 551.66l-1.31 2.28h-2.64l-1.31-2.28 1.31-2.28h2.64l1.31 2.28zM253.78 544.96l-1.31 2.28h-2.64l-1.31-2.28 1.31-2.28h2.64l1.31 2.28zM253.78 558.54l-1.31 2.28h-2.64l-1.31-2.28 1.31-2.28h2.64l1.31 2.28zM253.78 525l-1.31 2.28h-2.64l-1.31-2.28 1.31-2.28h2.64l1.31 2.28zM253.78 518.39l-1.31 2.28h-2.64l-1.31-2.28 1.31-2.27h2.64l1.31 2.27zM253.78 511.68l-1.32 2.28h-2.63l-1.32-2.28 1.32-2.28h2.63l1.32 2.28zM253.78 505.07l-1.32 2.28h-2.63l-1.32-2.28 1.32-2.28h2.63l1.32 2.28zM248.05 541.63l-1.31 2.27h-2.64l-1.31-2.27 1.31-2.28h2.64l1.31 2.28zM248.05 534.96l-1.31 2.28h-2.64l-1.31-2.28 1.31-2.28h2.64l1.31 2.28zM248.05 555.02l-1.31 2.28h-2.64l-1.31-2.28 1.31-2.28h2.64l1.31 2.28zM248.05 548.32l-1.31 2.28h-2.64l-1.31-2.28 1.31-2.28h2.64l1.31 2.28zM248.05 528.3l-1.31 2.28h-2.63l-1.32-2.28 1.32-2.28h2.63l1.31 2.28zM248.05 521.7l-1.31 2.28h-2.63l-1.32-2.28 1.32-2.28h2.63l1.31 2.28zM248.05 501.7l-1.31 2.28h-2.64l-1.31-2.28 1.31-2.27h2.64l1.31 2.27zM248.05 515.1l-1.31 2.28h-2.64l-1.31-2.28 1.31-2.28h2.64l1.31 2.28zM248.05 508.4l-1.31 2.28h-2.64l-1.31-2.28 1.31-2.28h2.64l1.31 2.28zM242.33 538.16l-1.32 2.28h-2.63l-1.32-2.28 1.32-2.28h2.63l1.32 2.28zM242.33 531.5l-1.32 2.27h-2.63l-1.32-2.27 1.32-2.28h2.63l1.32 2.28zM242.33 551.55l-1.32 2.28h-2.63l-1.32-2.28 1.32-2.28h2.63l1.32 2.28zM242.33 544.86l-1.32 2.28h-2.63l-1.32-2.28 1.32-2.28h2.63l1.32 2.28zM242.33 558.43l-1.32 2.28h-2.63l-1.32-2.28 1.32-2.28h2.63l1.32 2.28zM242.33 524.89l-1.32 2.28h-2.63l-1.32-2.28 1.32-2.28h2.63l1.32 2.28zM242.33 518.29l-1.32 2.28h-2.63l-1.32-2.28 1.32-2.28h2.63l1.32 2.28zM242.32 511.57l-1.31 2.28h-2.63l-1.32-2.28 1.32-2.28h2.63l1.31 2.28zM242.32 504.96l-1.31 2.28h-2.63l-1.32-2.28 1.32-2.28h2.63l1.31 2.28zM236.59 541.59l-1.31 2.28h-2.64l-1.31-2.28 1.31-2.28h2.64l1.31 2.28zM236.59 534.93l-1.31 2.28h-2.64l-1.31-2.28 1.31-2.28h2.64l1.31 2.28zM236.59 554.99l-1.31 2.27h-2.64l-1.31-2.27 1.31-2.28h2.64l1.31 2.28zM236.59 548.29l-1.31 2.28h-2.64l-1.31-2.28 1.31-2.28h2.64l1.31 2.28zM236.59 528.26l-1.31 2.28h-2.63l-1.32-2.28 1.32-2.28h2.63l1.31 2.28zM236.59 521.66l-1.31 2.28h-2.63l-1.32-2.28 1.32-2.28h2.63l1.31 2.28zM236.59 501.67l-1.31 2.28h-2.63l-1.32-2.28 1.32-2.28h2.63l1.31 2.28zM236.59 515.06l-1.31 2.28h-2.63l-1.32-2.28 1.32-2.28h2.63l1.31 2.28zM230.87 538.27l-1.32 2.28h-2.63l-1.32-2.28 1.32-2.28h2.63l1.32 2.28zM236.59 508.37l-1.31 2.28h-2.63l-1.32-2.28 1.32-2.28h2.63l1.31 2.28zM230.87 531.6l-1.32 2.28h-2.63l-1.32-2.28 1.32-2.28h2.63l1.32 2.28zM230.87 551.66l-1.32 2.28h-2.63l-1.32-2.28 1.32-2.28h2.63l1.32 2.28zM230.87 544.96l-1.32 2.28h-2.63l-1.32-2.28 1.32-2.28h2.63l1.32 2.28zM230.87 558.54l-1.32 2.28h-2.63l-1.32-2.28 1.32-2.28h2.63l1.32 2.28zM230.87 525l-1.32 2.28h-2.63L225.6 525l1.32-2.28h2.63l1.32 2.28zM230.86 511.68l-1.31 2.28h-2.64l-1.31-2.28 1.31-2.28h2.64l1.31 2.28zM230.87 518.39l-1.32 2.28h-2.63l-1.32-2.28 1.32-2.27h2.63l1.32 2.27zM230.86 505.07l-1.31 2.28h-2.64l-1.31-2.28 1.31-2.28h2.64l1.31 2.28zM225.14 541.63l-1.32 2.27h-2.63l-1.32-2.27 1.32-2.28h2.63l1.32 2.28zM225.14 534.96l-1.32 2.28h-2.63l-1.32-2.28 1.32-2.28h2.63l1.32 2.28zM225.14 555.02l-1.32 2.28h-2.63l-1.32-2.28 1.32-2.28h2.63l1.32 2.28zM225.14 548.32l-1.32 2.28h-2.63l-1.32-2.28 1.32-2.28h2.63l1.32 2.28zM225.14 528.3l-1.32 2.28h-2.63l-1.31-2.28 1.31-2.28h2.63l1.32 2.28zM225.14 521.7l-1.32 2.28h-2.63l-1.31-2.28 1.31-2.28h2.63l1.32 2.28zM225.14 501.7l-1.32 2.28h-2.63l-1.32-2.28 1.32-2.27h2.63l1.32 2.27zM225.14 515.1l-1.32 2.28h-2.63l-1.32-2.28 1.32-2.28h2.63l1.32 2.28zM225.14 508.4l-1.32 2.28h-2.63l-1.32-2.28 1.32-2.28h2.63l1.32 2.28zM219.41 538.16l-1.31 2.28h-2.64l-1.31-2.28 1.31-2.28h2.64l1.31 2.28zM219.41 531.5l-1.31 2.27h-2.64l-1.31-2.27 1.31-2.28h2.64l1.31 2.28zM219.41 551.55l-1.31 2.28h-2.64l-1.31-2.28 1.31-2.28h2.64l1.31 2.28zM219.41 544.86l-1.31 2.28h-2.64l-1.31-2.28 1.31-2.28h2.64l1.31 2.28zM219.41 558.43l-1.31 2.28h-2.64l-1.31-2.28 1.31-2.28h2.64l1.31 2.28zM219.41 524.89l-1.31 2.28h-2.63l-1.32-2.28 1.32-2.28h2.63l1.31 2.28zM219.41 518.29l-1.31 2.28h-2.63l-1.32-2.28 1.32-2.28h2.63l1.31 2.28zM219.41 511.57l-1.32 2.28h-2.63l-1.31-2.28 1.31-2.28h2.63l1.32 2.28zM219.41 504.96l-1.32 2.28h-2.63l-1.31-2.28 1.31-2.28h2.63l1.32 2.28zM213.67 541.61l-1.31 2.28h-2.64l-1.31-2.28 1.31-2.28h2.64l1.31 2.28zM213.67 534.95l-1.31 2.28h-2.64l-1.31-2.28 1.31-2.28h2.64l1.31 2.28zM213.67 555l-1.31 2.28h-2.64l-1.31-2.28 1.31-2.28h2.64l1.31 2.28zM213.67 548.31l-1.31 2.28h-2.64l-1.31-2.28 1.31-2.28h2.64l1.31 2.28zM213.67 528.28l-1.31 2.28h-2.64l-1.31-2.28 1.31-2.28h2.64l1.31 2.28zM213.67 521.68l-1.31 2.28h-2.64l-1.31-2.28 1.31-2.28h2.64l1.31 2.28zM213.67 501.69l-1.31 2.28h-2.64l-1.31-2.28 1.31-2.28h2.64l1.31 2.28zM213.67 515.08l-1.31 2.28h-2.64l-1.31-2.28 1.31-2.28h2.64l1.31 2.28zM213.67 508.39l-1.31 2.28h-2.64l-1.31-2.28 1.31-2.28h2.64l1.31 2.28zM207.95 538.29l-1.32 2.28H204l-1.32-2.28 1.32-2.28h2.63l1.32 2.28zM207.95 531.62l-1.32 2.28H204l-1.32-2.28 1.32-2.28h2.63l1.32 2.28zM207.95 551.68l-1.32 2.28H204l-1.32-2.28 1.32-2.28h2.63l1.32 2.28zM207.95 544.98l-1.32 2.28H204l-1.32-2.28 1.32-2.28h2.63l1.32 2.28zM207.95 558.56l-1.32 2.28H204l-1.32-2.28 1.32-2.28h2.63l1.32 2.28zM207.95 525.02l-1.32 2.28H204l-1.32-2.28 1.32-2.28h2.63l1.32 2.28zM207.95 518.41l-1.32 2.28H204l-1.32-2.28 1.32-2.28h2.63l1.32 2.28zM207.94 511.69l-1.31 2.28h-2.64l-1.31-2.28 1.31-2.27h2.64l1.31 2.27zM207.94 505.09l-1.31 2.28h-2.64l-1.31-2.28 1.31-2.28h2.64l1.31 2.28zM202.22 541.64l-1.32 2.28h-2.63l-1.32-2.28 1.32-2.27h2.63l1.32 2.27zM202.22 534.98l-1.32 2.28h-2.63l-1.32-2.28 1.32-2.28h2.63l1.32 2.28zM202.22 555.04l-1.32 2.28h-2.63l-1.32-2.28 1.32-2.28h2.63l1.32 2.28zM202.22 548.34l-1.32 2.28h-2.63l-1.32-2.28 1.32-2.28h2.63l1.32 2.28zM202.22 528.32l-1.32 2.28h-2.63l-1.31-2.28 1.31-2.28h2.63l1.32 2.28zM202.22 521.72L200.9 524h-2.63l-1.31-2.28 1.31-2.28h2.63l1.32 2.28zM202.22 501.72L200.9 504h-2.63l-1.32-2.28 1.32-2.28h2.63l1.32 2.28zM202.22 515.12l-1.32 2.28h-2.63l-1.32-2.28 1.32-2.28h2.63l1.32 2.28zM202.22 508.42l-1.32 2.28h-2.63l-1.32-2.28 1.32-2.28h2.63l1.32 2.28zM196.49 538.18l-1.31 2.28h-2.64l-1.31-2.28 1.31-2.28h2.64l1.31 2.28zM196.49 531.51l-1.31 2.28h-2.64l-1.31-2.28 1.31-2.28h2.64l1.31 2.28zM196.49 551.57l-1.31 2.28h-2.64l-1.31-2.28 1.31-2.28h2.64l1.31 2.28zM196.49 544.88l-1.31 2.27h-2.64l-1.31-2.27 1.31-2.28h2.64l1.31 2.28zM196.49 558.45l-1.31 2.28h-2.64l-1.31-2.28 1.31-2.28h2.64l1.31 2.28zM196.49 524.91l-1.31 2.28h-2.64l-1.31-2.28 1.31-2.28h2.64l1.31 2.28zM196.49 518.31l-1.31 2.28h-2.64l-1.31-2.28 1.31-2.28h2.64l1.31 2.28zM196.49 511.59l-1.32 2.28h-2.63l-1.32-2.28 1.32-2.28h2.63l1.32 2.28zM196.49 504.98l-1.32 2.28h-2.63l-1.32-2.28 1.32-2.28h2.63l1.32 2.28zM190.75 541.59l-1.32 2.28h-2.63l-1.31-2.28 1.31-2.28h2.63l1.32 2.28zM190.75 534.93l-1.32 2.28h-2.63l-1.31-2.28 1.31-2.28h2.63l1.32 2.28zM190.75 554.99l-1.32 2.27h-2.63l-1.31-2.27 1.31-2.28h2.63l1.32 2.28zM190.75 548.29l-1.32 2.28h-2.63l-1.31-2.28 1.31-2.28h2.63l1.32 2.28zM190.75 528.26l-1.31 2.28h-2.64l-1.31-2.28 1.31-2.28h2.64l1.31 2.28zM190.75 521.66l-1.31 2.28h-2.64l-1.31-2.28 1.31-2.28h2.64l1.31 2.28zM190.75 501.67l-1.31 2.28h-2.64l-1.31-2.28 1.31-2.28h2.64l1.31 2.28zM190.75 515.06l-1.31 2.28h-2.64l-1.31-2.28 1.31-2.28h2.64l1.31 2.28zM190.75 508.37l-1.31 2.28h-2.64l-1.31-2.28 1.31-2.28h2.64l1.31 2.28zM185.03 538.27l-1.32 2.28h-2.63l-1.32-2.28 1.32-2.28h2.63l1.32 2.28zM185.03 531.6l-1.32 2.28h-2.63l-1.32-2.28 1.32-2.28h2.63l1.32 2.28zM185.03 551.66l-1.32 2.28h-2.63l-1.32-2.28 1.32-2.28h2.63l1.32 2.28zM185.03 544.96l-1.32 2.28h-2.63l-1.32-2.28 1.32-2.28h2.63l1.32 2.28zM185.03 558.54l-1.32 2.28h-2.63l-1.32-2.28 1.32-2.28h2.63l1.32 2.28zM185.03 525l-1.32 2.28h-2.63l-1.32-2.28 1.32-2.28h2.63l1.32 2.28zM185.03 518.39l-1.32 2.28h-2.63l-1.32-2.28 1.32-2.27h2.63l1.32 2.27zM185.02 511.68l-1.31 2.28h-2.64l-1.31-2.28 1.31-2.28h2.64l1.31 2.28zM185.02 505.07l-1.31 2.28h-2.64l-1.31-2.28 1.31-2.28h2.64l1.31 2.28zM179.3 541.63l-1.32 2.27h-2.63l-1.32-2.27 1.32-2.28h2.63l1.32 2.28zM179.3 534.96l-1.32 2.28h-2.63l-1.32-2.28 1.32-2.28h2.63l1.32 2.28zM179.3 555.02l-1.32 2.28h-2.63l-1.32-2.28 1.32-2.28h2.63l1.32 2.28zM179.3 548.32l-1.32 2.28h-2.63l-1.32-2.28 1.32-2.28h2.63l1.32 2.28zM179.3 528.3l-1.32 2.28h-2.63l-1.32-2.28 1.32-2.28h2.63l1.32 2.28zM179.3 521.7l-1.32 2.28h-2.63l-1.32-2.28 1.32-2.28h2.63l1.32 2.28zM179.3 501.7l-1.32 2.28h-2.63l-1.32-2.28 1.32-2.27h2.63l1.32 2.27zM179.3 515.1l-1.32 2.28h-2.63l-1.32-2.28 1.32-2.28h2.63l1.32 2.28zM179.3 508.4l-1.32 2.28h-2.63l-1.32-2.28 1.32-2.28h2.63l1.32 2.28zM173.57 538.16l-1.32 2.28h-2.63l-1.31-2.28 1.31-2.28h2.63l1.32 2.28zM173.57 531.5l-1.32 2.27h-2.63l-1.31-2.27 1.31-2.28h2.63l1.32 2.28zM173.57 551.55l-1.32 2.28h-2.63l-1.31-2.28 1.31-2.28h2.63l1.32 2.28zM173.57 544.86l-1.32 2.28h-2.63l-1.31-2.28 1.31-2.28h2.63l1.32 2.28zM173.57 558.43l-1.32 2.28h-2.63l-1.31-2.28 1.31-2.28h2.63l1.32 2.28zM173.57 524.89l-1.31 2.28h-2.64l-1.31-2.28 1.31-2.28h2.64l1.31 2.28zM173.57 518.29l-1.31 2.28h-2.64l-1.31-2.28 1.31-2.28h2.64l1.31 2.28zM173.57 511.57l-1.32 2.28h-2.63l-1.32-2.28 1.32-2.28h2.63l1.32 2.28zM173.57 504.96l-1.32 2.28h-2.63l-1.32-2.28 1.32-2.28h2.63l1.32 2.28zM167.84 541.59l-1.32 2.28h-2.63l-1.32-2.28 1.32-2.28h2.63l1.32 2.28zM167.84 534.93l-1.32 2.28h-2.63l-1.32-2.28 1.32-2.28h2.63l1.32 2.28zM167.84 554.99l-1.32 2.27h-2.63l-1.32-2.27 1.32-2.28h2.63l1.32 2.28zM167.84 548.29l-1.32 2.28h-2.63l-1.32-2.28 1.32-2.28h2.63l1.32 2.28zM167.84 528.26l-1.32 2.28h-2.63l-1.32-2.28 1.32-2.28h2.63l1.32 2.28zM167.84 521.66l-1.32 2.28h-2.63l-1.32-2.28 1.32-2.28h2.63l1.32 2.28zM167.84 501.67l-1.32 2.28h-2.63l-1.32-2.28 1.32-2.28h2.63l1.32 2.28zM167.84 515.06l-1.32 2.28h-2.63l-1.32-2.28 1.32-2.28h2.63l1.32 2.28zM167.84 508.37l-1.32 2.28h-2.63l-1.32-2.28 1.32-2.28h2.63l1.32 2.28zM162.11 538.27l-1.32 2.28h-2.63l-1.31-2.28 1.31-2.28h2.63l1.32 2.28zM162.11 531.6l-1.32 2.28h-2.63l-1.31-2.28 1.31-2.28h2.63l1.32 2.28zM162.11 551.66l-1.32 2.28h-2.63l-1.31-2.28 1.31-2.28h2.63l1.32 2.28zM162.11 544.96l-1.32 2.28h-2.63l-1.31-2.28 1.31-2.28h2.63l1.32 2.28zM162.11 558.54l-1.32 2.28h-2.63l-1.31-2.28 1.31-2.28h2.63l1.32 2.28zM162.11 525l-1.31 2.28h-2.64l-1.31-2.28 1.31-2.28h2.64l1.31 2.28zM162.11 518.39l-1.31 2.28h-2.64l-1.31-2.28 1.31-2.27h2.64l1.31 2.27zM162.11 511.68l-1.32 2.28h-2.63l-1.32-2.28 1.32-2.28h2.63l1.32 2.28zM162.11 505.07l-1.32 2.28h-2.63l-1.32-2.28 1.32-2.28h2.63l1.32 2.28zM156.38 541.63l-1.31 2.27h-2.64l-1.31-2.27 1.31-2.28h2.64l1.31 2.28zM156.38 534.96l-1.31 2.28h-2.64l-1.31-2.28 1.31-2.28h2.64l1.31 2.28zM156.38 555.02l-1.31 2.28h-2.64l-1.31-2.28 1.31-2.28h2.64l1.31 2.28zM156.38 548.32l-1.31 2.28h-2.64l-1.31-2.28 1.31-2.28h2.64l1.31 2.28zM156.38 528.3l-1.31 2.28h-2.63l-1.32-2.28 1.32-2.28h2.63l1.31 2.28zM156.38 521.7l-1.31 2.28h-2.63l-1.32-2.28 1.32-2.28h2.63l1.31 2.28zM156.38 501.7l-1.31 2.28h-2.64l-1.31-2.28 1.31-2.27h2.64l1.31 2.27zM156.38 515.1l-1.31 2.28h-2.64l-1.31-2.28 1.31-2.28h2.64l1.31 2.28zM156.38 508.4l-1.31 2.28h-2.64l-1.31-2.28 1.31-2.28h2.64l1.31 2.28zM150.66 538.16l-1.32 2.28h-2.63l-1.32-2.28 1.32-2.28h2.63l1.32 2.28zM150.66 531.5l-1.32 2.27h-2.63l-1.32-2.27 1.32-2.28h2.63l1.32 2.28zM150.66 551.55l-1.32 2.28h-2.63l-1.32-2.28 1.32-2.28h2.63l1.32 2.28zM150.66 544.86l-1.32 2.28h-2.63l-1.32-2.28 1.32-2.28h2.63l1.32 2.28zM150.66 558.43l-1.32 2.28h-2.63l-1.32-2.28 1.32-2.28h2.63l1.32 2.28zM150.66 524.89l-1.32 2.28h-2.63l-1.32-2.28 1.32-2.28h2.63l1.32 2.28zM150.66 518.29l-1.32 2.28h-2.63l-1.32-2.28 1.32-2.28h2.63l1.32 2.28zM150.65 511.57l-1.31 2.28h-2.63l-1.32-2.28 1.32-2.28h2.63l1.31 2.28zM150.65 504.96l-1.31 2.28h-2.63l-1.32-2.28 1.32-2.28h2.63l1.31 2.28zM144.92 541.59l-1.32 2.28h-2.63l-1.31-2.28 1.31-2.28h2.63l1.32 2.28zM144.92 554.99l-1.32 2.27h-2.63l-1.31-2.27 1.31-2.28h2.63l1.32 2.28zM144.92 548.29l-1.32 2.28h-2.63l-1.31-2.28 1.31-2.28h2.63l1.32 2.28zM144.92 521.66l-1.31 2.28h-2.64l-1.31-2.28 1.31-2.28h2.64l1.31 2.28zM144.92 501.67l-1.31 2.28h-2.64l-1.31-2.28 1.31-2.28h2.64l1.31 2.28zM144.92 515.06l-1.31 2.28h-2.64l-1.31-2.28 1.31-2.28h2.64l1.31 2.28zM144.92 508.37l-1.31 2.28h-2.64l-1.31-2.28 1.31-2.28h2.64l1.31 2.28zM139.2 551.66l-1.32 2.28h-2.63l-1.32-2.28 1.32-2.28h2.63l1.32 2.28zM139.2 544.96l-1.32 2.28h-2.63l-1.32-2.28 1.32-2.28h2.63l1.32 2.28zM139.2 558.54l-1.32 2.28h-2.63l-1.32-2.28 1.32-2.28h2.63l1.32 2.28zM139.2 518.39l-1.32 2.28h-2.63l-1.32-2.28 1.32-2.27h2.63l1.32 2.27zM139.19 511.68l-1.31 2.28h-2.64l-1.31-2.28 1.31-2.28h2.64l1.31 2.28zM139.19 505.07l-1.31 2.28h-2.64l-1.31-2.28 1.31-2.28h2.64l1.31 2.28zM133.47 555.02l-1.32 2.28h-2.63l-1.32-2.28 1.32-2.28h2.63l1.32 2.28zM133.47 548.32l-1.32 2.28h-2.63l-1.32-2.28 1.32-2.28h2.63l1.32 2.28zM133.47 501.7l-1.32 2.28h-2.63l-1.32-2.28 1.32-2.27h2.63l1.32 2.27zM133.47 515.1l-1.32 2.28h-2.63l-1.32-2.28 1.32-2.28h2.63l1.32 2.28zM133.47 508.4l-1.32 2.28h-2.63l-1.32-2.28 1.32-2.28h2.63l1.32 2.28zM127.74 551.55l-1.31 2.28h-2.64l-1.31-2.28 1.31-2.28h2.64l1.31 2.28zM127.74 544.86l-1.31 2.28h-2.64l-1.31-2.28 1.31-2.28h2.64l1.31 2.28zM127.74 558.43l-1.31 2.28h-2.64l-1.31-2.28 1.31-2.28h2.64l1.31 2.28zM127.74 518.29l-1.31 2.28h-2.63l-1.32-2.28 1.32-2.28h2.63l1.31 2.28zM127.74 511.57l-1.32 2.28h-2.63l-1.32-2.28 1.32-2.28h2.63l1.32 2.28zM127.74 504.96l-1.32 2.28h-2.63l-1.32-2.28 1.32-2.28h2.63l1.32 2.28zM144.95 534.87l-1.31 2.28H141l-1.31-2.28 1.31-2.28h2.64l1.31 2.28zM144.96 528.2l-1.32 2.28h-2.63l-1.32-2.28 1.32-2.28h2.63l1.32 2.28zM139.23 538.21l-1.32 2.28h-2.63l-1.32-2.28 1.32-2.28h2.63l1.32 2.28zM139.23 531.54l-1.32 2.28h-2.63l-1.32-2.28 1.32-2.28h2.63l1.32 2.28zM139.23 524.94l-1.32 2.28h-2.63l-1.32-2.28 1.32-2.28h2.63l1.32 2.28zM133.5 541.57l-1.32 2.28h-2.63l-1.32-2.28 1.32-2.28h2.63l1.32 2.28zM133.5 534.9l-1.32 2.28h-2.63l-1.32-2.28 1.32-2.28h2.63l1.32 2.28zM133.5 528.24l-1.32 2.28h-2.63l-1.31-2.28 1.31-2.28h2.63l1.32 2.28zM133.5 521.64l-1.32 2.28h-2.63l-1.31-2.28 1.31-2.28h2.63l1.32 2.28zM127.77 538.1l-1.31 2.28h-2.63l-1.32-2.28 1.32-2.28h2.63l1.31 2.28zM127.77 531.44l-1.31 2.28h-2.63l-1.32-2.28 1.32-2.28h2.63l1.31 2.28zM127.78 524.83l-1.32 2.28h-2.63l-1.32-2.28 1.32-2.28h2.63l1.32 2.28z"/><path class="cls-3" d="M345.38 516.19l-.5-6.58-7.15 2.53-.06-2.74-14.2 4.3-.07 3.68a38 38 0 01-1.65 10 6.5 6.5 0 00-.6-1.17 15.06 15.06 0 01-2.58-5.23l1.36-1.27-.79-1a8.53 8.53 0 00.38-2.53 8.71 8.71 0 00-2.86-6.3 8.57 8.57 0 00-5.73-2.15 8.43 8.43 0 00-5.07 1.72 9.2 9.2 0 00-5.08-1.74 8.51 8.51 0 00-8.34 10.18 8.26 8.26 0 002 4.09 52.58 52.58 0 005.23 15.38 51.62 51.62 0 0012.5 14.9l3.7 2.35h15.72l1.52-1.83a58.61 58.61 0 0010.62-20.28 50 50 0 001.65-16.31z"/><path class="cls-7" d="M328.46 517.47a43.39 43.39 0 01-2.18 12.38c-.78 3.11-4.89 11.72-9.27 14.78-3.47-2.27-6.84-6.21-9.7-11.54a39.89 39.89 0 01-4.54-13.7.78.78 0 00.15-.1c1.62-1.61 1.69-4 .71-5.14a3.49 3.49 0 10-4.43 5.14 47.08 47.08 0 004.95 15.64c2.71 5.06 8.41 11.87 13 14.59 5.11-3.33 11.56-13.5 13.31-18.9a44.7 44.7 0 002.28-14.45zm-27.66.35a1.63 1.63 0 111.63-1.63 1.62 1.62 0 01-1.63 1.63z"/><path class="cls-4" d="M316.93 528.94c-2.86-4.35-3.06-5.65-3.92-9.82.05 0-.16.16 0 0 2.23-2.09 1.55-4.35.23-5.55a3.56 3.56 0 00-4.81.26 3.34 3.34 0 00-.29 4.41 2 2 0 001.06.88 33.14 33.14 0 005.8 14.57 29 29 0 002 2.77l-.12-7.46c-.14-.25-.31-.53.05-.06zm-6-11.1a1.63 1.63 0 111.63-1.63 1.63 1.63 0 01-1.56 1.63z"/><path class="cls-4" d="M316.93 528.94v.06c.19.27.38.52 0-.06z"/><path class="cls-7" d="M329.24 549.52a52.81 52.81 0 009.63-18.34 45.09 45.09 0 001.48-14.6l-4.09 1.42a43.76 43.76 0 01-1.49 12.53c-.61 3.16-7 15.57-11.2 19"/><path class="cls-4" d="M188.36 473.24l-1.14-29.51h2l1.18 26.92 21.51-26.86h2l-23.41 29.44zM212.43 473.24l22.11-29.38h2l5.6 29.38H240l-1.82-10h-16.1l-7.43 10zM235 445.85l-11.7 15.72h14.57zM259.48 443.92h1.77l-3.71 17.84a14.06 14.06 0 00-.31 4.32 6.23 6.23 0 001.25 3.28 6.53 6.53 0 003 2.08 14.89 14.89 0 005.08.73 17.3 17.3 0 005.33-.73 10.43 10.43 0 003.78-2.07 9.7 9.7 0 002.42-3.28 15.77 15.77 0 001.23-4.3L282 444h1.77l-2.59 17.89c-1.16 8-6.14 12.07-14.93 12.07s-12.34-4.12-10.63-12.09zM293.53 473.24l3.18-29.24h1.76l-2.85 27.45h19.28l-.09 1.76zM324.23 445.61v-1.52l23.67.07.06 1.51h-11l.11 27.61h-1.89v-27.61zM357 473.25l10.81-29h2l16.19 29h-2.12l-5.41-9.85h-15.71l-3.59 9.87zm12-27.07l-5.66 15.54h14.21zM407.12 473.25l-17.31-29h2l15.94 26.45 6-26.39h1.95l-6.38 28.92zM428.16 458.24a17.48 17.48 0 01-.45-3 14.19 14.19 0 01.18-3.25 11.52 11.52 0 011-3.09 8.36 8.36 0 012-2.61 9.35 9.35 0 013.19-1.79 13.7 13.7 0 014.63-.66 17.7 17.7 0 015 .68 18.91 18.91 0 014.29 1.78 19.92 19.92 0 013.5 2.61 25.69 25.69 0 012.78 3.09 22.73 22.73 0 012 3.25 21.34 21.34 0 011.31 3 18.44 18.44 0 01.7 3.09 14.94 14.94 0 01.1 3.41 12.59 12.59 0 01-.77 3.37 8.48 8.48 0 01-1.91 2.93 9.25 9.25 0 01-3.32 2.09 13.9 13.9 0 01-4.95.78 17.84 17.84 0 01-5.42-.79 19.23 19.23 0 01-4.54-2.08 19.64 19.64 0 01-3.61-2.94 24.07 24.07 0 01-2.73-3.38 21.65 21.65 0 01-1.89-3.42 20 20 0 01-1.09-3.07zm1.79 0a18.93 18.93 0 002.16 5.07 19.68 19.68 0 003.71 4.48 18 18 0 005 3.19 15.26 15.26 0 006.09 1.22 10.86 10.86 0 005.39-1.21 7.94 7.94 0 003.16-3.19 10 10 0 001.11-4.46 15.2 15.2 0 00-.78-5.07 19.69 19.69 0 00-2.44-4.93 20.28 20.28 0 00-3.75-4.14 17.83 17.83 0 00-4.8-2.85 15.3 15.3 0 00-5.68-1.06 10.88 10.88 0 00-5.07 1 7.94 7.94 0 00-3.17 2.83 9.44 9.44 0 00-1.36 4.13 14.36 14.36 0 00.48 5z"/></g><g id="Layer_3" data-name="Layer 3"><path d="M362.23 2h151a8 8 0 018 8v129a8 8 0 01-8 8h-201.7a8 8 0 01-8-8V10a8 8 0 018-8h28.32v16.13a1 1 0 001 1h20.37a1 1 0 001-1z" stroke-width="4" stroke="#21409a" stroke-linecap="round" fill="none"/><path class="cls-9" d="M345.37 14.72V2.97M351.22 14.64V2.89M357.08 14.64V2.89"/><rect class="cls-9" x="446.59" y="10.2" width="66.06" height="43.03" rx="2.03"/><path class="cls-9" d="M333.86 58.54v30.52M346.97 66.17v22.89"/><rect class="cls-9" x="320.98" y="58.54" width="39.1" height="30.52" rx="4.01"/><path class="cls-9" d="M320.98 73.8h12.88M320.98 66.17h12.88M320.98 81.43h12.88M346.97 73.8h13.11M346.97 81.43h13.11M346.97 66.17h13.11"/><path class="cls-10" d="M490.93 115.61h-16.87a2.36 2.36 0 00-2.36 2.39 2.36 2.36 0 002.36 2.35h19.62a4.39 4.39 0 004.39-4.39 4.38 4.38 0 00-4.38-4.39H474.2"/><path class="cls-10" d="M492.09 124.85h-18.31a6.64 6.64 0 01-6.64-6.65 6.64 6.64 0 016.64-6.65h17"/><path class="cls-10" d="M500.7 111.94a11 11 0 011.75 5.93 11 11 0 01-11 11H480M474.39 128.84a11 11 0 01-10.95-11 11 11 0 0110.95-11h17.1a11 11 0 014.94 1.17"/><path class="cls-10" d="M463.69 107.19a15 15 0 0110.18-4h18.27a15 15 0 0112.44 6.61M505.11 125.73a15 15 0 01-13 7.47h-18.24a15 15 0 01-15-15 15.52 15.52 0 01.17-2.26M501.22 134.78a19.05 19.05 0 01-8.79 2.14h-18.15a18.89 18.89 0 01-7.87-1.7M510.45 111.67a19.14 19.14 0 011 6.19 19 19 0 01-4.34 12.1M492.43 98.83a19 19 0 0112.68 4.84"/><path class="cls-10" d="M457 126a18.91 18.91 0 01-1.81-8.11 19 19 0 0119-19"/></g></svg>